<svg width="123" height="125" viewBox="0 0 123 125" fill="none" xmlns="http://www.w3.org/2000/svg">
<path opacity="0.89" d="M118.971 59.4194C117.001 59.3616 115.298 60.8808 114.816 62.9693C111.758 63.2078 108.268 63.2886 104.439 63.0463C102.298 62.9081 100.273 62.6847 98.3737 62.4079C98.3838 62.0424 98.3906 61.6732 98.3906 61.3041C98.3906 59.5077 98.2649 57.7425 98.0203 56.0156C98.9853 55.2735 100.195 54.4927 101.656 53.8231C104.194 52.6542 106.573 52.2385 108.401 52.1194C109.301 54.1697 111.36 55.3614 113.341 54.8427C115.567 54.258 116.838 51.7311 116.182 49.1964C115.526 46.662 113.192 45.0771 110.966 45.6619C108.938 46.1963 107.701 48.3427 107.993 50.6386C106.389 51.5542 104.007 52.5465 101.058 52.6197C99.5969 52.658 98.3227 52.4616 97.2898 52.2077C96.634 49.5272 95.6894 46.9576 94.4899 44.5348C95.7607 43.381 97.2626 42.1578 99.0227 40.977C101.571 39.2618 104.028 38.0348 106.185 37.1544C107.592 38.8077 109.838 39.3579 111.567 38.3499C113.555 37.1965 114.119 34.4154 112.821 32.1465C111.52 29.877 108.846 28.9771 106.858 30.1346C105.125 31.1385 104.48 33.3697 105.193 35.4234C103.341 36.8697 101.061 38.3964 98.3261 39.7582C96.4641 40.6889 94.6836 41.3965 93.073 41.9347C91.7581 39.7155 90.2121 37.6464 88.4826 35.758C89.1485 33.3273 90.2732 30.4884 92.1896 27.6427C93.987 24.981 95.9884 23.0389 97.6873 21.673C99.5561 22.8387 101.907 22.6577 103.246 21.1232C104.768 19.385 104.418 16.5734 102.465 14.8425C100.514 13.108 97.6975 13.1118 96.182 14.85C94.8365 16.3849 94.9487 18.7503 96.3384 20.4772C95.2409 22.3002 93.5827 24.5615 91.1431 26.7154C88.4554 29.0927 85.7507 30.5158 83.695 31.362C81.3573 29.5578 78.8056 28.0269 76.0771 26.8157C76.4746 25.7119 76.9979 24.6002 77.6843 23.508C78.2347 22.6427 78.8259 21.8807 79.4273 21.2159C81.5068 22.0658 83.8275 21.4537 84.8741 19.6731C86.0531 17.6848 85.1935 14.9848 82.9543 13.6463C80.7185 12.3077 77.9527 12.8347 76.777 14.8271C75.7475 16.5772 76.2911 18.8769 77.9527 20.3153C77.6061 21.2385 77.1848 22.1965 76.6853 23.173C76.1145 24.2964 75.4892 25.331 74.8335 26.2888C74.5582 26.1772 74.2796 26.0694 74.0044 25.9699C70.7527 24.7466 67.2937 23.9737 63.6886 23.7116C63.0974 22.1041 62.5809 20.3225 62.2207 18.3657C61.4834 14.3727 61.6193 10.8974 61.9591 8.28736C64.0793 7.87847 65.6695 6.20156 65.6695 4.19239C65.6695 1.87734 63.5595 0.000247843 60.9567 0.000247843C58.3574 0.000247843 56.2473 1.87734 56.2473 4.19239C56.2473 6.23646 57.8953 7.93631 60.0665 8.30755C60.5388 10.8792 60.848 14.4801 60.1175 18.6538C59.7947 20.4912 59.319 22.1657 58.7617 23.6812C55.3061 23.8776 51.9797 24.5495 48.8367 25.6325C48.3983 24.9335 48.0076 24.1995 47.6576 23.3338C46.961 21.62 46.6586 20.0125 46.5397 18.675C48.5716 17.6095 49.6215 15.3742 48.9012 13.3965C48.1163 11.2214 45.4932 10.187 43.0502 11.0859C40.6071 11.9847 39.265 14.4763 40.0533 16.6511C40.7328 18.5282 42.7783 19.5523 44.8986 19.2211C45.517 20.5011 46.1082 21.9775 46.5771 23.6541C46.8217 24.5424 47.0086 25.4104 47.1513 26.2597C44.3005 27.3974 41.623 28.8806 39.1664 30.6557C37.8718 29.7145 36.5501 28.6212 35.2453 27.3399C32.2382 24.3908 30.2301 21.3661 28.9118 18.9429C30.3728 17.3159 30.6277 14.9872 29.4044 13.3825C28.0011 11.5468 25.1945 11.3528 23.1321 12.9496C21.0696 14.5462 20.5327 17.3289 21.936 19.1643C23.1728 20.7868 25.5105 21.1242 27.4575 20.0792C29.3637 21.7959 31.8339 24.5047 33.7503 28.3978C34.6235 30.1784 35.2351 31.9101 35.6599 33.5251C35.2657 33.8898 34.8716 34.2662 34.491 34.6501C32.5678 36.5874 30.8553 38.7324 29.3841 41.054C28.5176 40.8022 27.6206 40.4987 26.7032 40.126C23.7097 38.9141 21.3923 37.3696 19.7138 36.0239C20.4274 33.9306 19.7342 31.6716 17.9572 30.6927C15.9422 29.58 13.2953 30.5401 12.0449 32.8373C10.7945 35.135 11.4129 37.8996 13.4312 39.012C15.2049 39.9909 17.4611 39.3654 18.8338 37.6392C20.8725 38.3489 23.4073 39.4876 26.0304 41.3571C26.8119 41.9155 27.5322 42.49 28.1982 43.0679C26.1221 46.832 24.6747 50.9924 23.9849 55.4093C22.1908 55.564 20.2575 55.6372 18.1848 55.5732C15.2253 55.4812 12.5512 55.1318 10.2169 54.6771C10.1625 52.3672 8.6267 50.4333 6.54382 50.2133C4.26048 49.9717 2.1844 51.8878 1.91597 54.4937C1.64074 57.0989 3.27849 59.4071 5.56184 59.6487C7.59714 59.8636 9.45916 58.368 10.0368 56.2004C12.4357 56.2493 15.1268 56.4649 18.0421 56.9699C20.057 57.3193 21.9292 57.7654 23.6519 58.2605C23.5704 59.2637 23.5296 60.2783 23.5296 61.3041C23.5296 63.7406 23.7572 66.1237 24.199 68.4333C22.218 69.7544 19.4794 71.2534 16 72.3055C12.9487 73.2287 10.1999 73.5428 8.01169 73.6102C7.2268 71.5562 5.27303 70.2752 3.29209 70.6597C1.03593 71.0991 -0.397956 73.5397 0.0981279 76.1121C0.590814 78.6848 2.81981 80.414 5.07937 79.9747C7.02973 79.5956 8.35825 77.7195 8.36505 75.5564C10.6076 74.8221 13.2511 74.1337 16.2616 73.6844C19.724 73.1695 22.8262 73.0959 25.4358 73.2102C26.4857 76.3974 27.9536 79.3924 29.7646 82.1337C28.9118 82.815 27.9536 83.488 26.8867 84.1169C24.831 85.3213 22.8602 86.0706 21.1511 86.5548C19.9891 84.6945 17.828 83.8206 15.9626 84.5809C13.8322 85.4503 12.891 88.1233 13.873 90.5502C14.4846 92.0731 15.7078 93.1424 17.0601 93.5078C17.8586 93.7271 18.7047 93.7001 19.4964 93.3768C19.7342 93.281 19.9551 93.1616 20.1589 93.0192C21.7186 91.9815 22.3777 89.8303 21.7185 87.7777C23.3359 86.9373 25.2251 86.1052 27.4065 85.4188C28.803 84.9784 30.1384 84.6575 31.3956 84.418C32.5407 85.9095 33.7979 87.3086 35.1502 88.6006C35.2793 88.7231 35.405 88.8462 35.5341 88.9615C34.6201 91.0155 33.244 93.5116 31.1679 96.0426C29.136 98.5191 27.0226 100.323 25.2455 101.596C23.4616 100.323 21.1273 100.35 19.6901 101.777C18.0557 103.404 18.212 106.235 20.0434 108.1C21.868 109.962 24.6815 110.154 26.3158 108.527C27.7327 107.116 27.8041 104.793 26.5944 102.988C27.9943 101.154 29.819 99.0847 32.1499 97.0423C34.6507 94.8501 37.1209 93.2269 39.2718 92.0311C42.1191 94.0693 45.2655 95.7192 48.626 96.9003C48.4901 98.1732 48.2624 99.5463 47.8921 100.988C47.0868 104.131 45.8737 106.65 44.7728 108.504C42.6186 108.069 40.4882 109.061 39.7576 110.961C38.9286 113.119 40.2231 115.635 42.6492 116.581C45.0752 117.528 47.7154 116.543 48.5444 114.381C49.2682 112.504 48.3814 110.358 46.5431 109.212C47.063 106.977 47.8819 104.335 49.1866 101.497C49.8254 100.112 50.505 98.8503 51.2015 97.7C53.7873 98.4038 56.4852 98.8349 59.2646 98.954C59.7199 101.146 60.0869 103.6 60.2636 106.281C60.5286 110.269 60.3145 113.8 59.9374 116.716C57.8239 117.129 56.2473 118.805 56.2473 120.808C56.2473 123.122 58.3574 125 60.9601 125C63.5629 125 65.6695 123.122 65.6695 120.808C65.6695 118.812 64.0997 117.139 61.9998 116.719C61.6465 113.738 61.4528 110.216 61.6533 106.281C61.7926 103.627 62.0916 101.177 62.4722 98.9619C65.3773 98.8503 68.1975 98.4 70.892 97.6504C71.123 98.05 71.3541 98.4654 71.5715 98.8924C73.0326 101.712 73.8209 104.354 74.249 106.47C72.3734 107.565 71.422 109.696 72.0914 111.596C72.8661 113.777 75.4757 114.831 77.9323 113.954C80.3821 113.073 81.7413 110.592 80.97 108.411C80.287 106.477 78.1497 105.431 75.9649 105.831C74.9626 104.096 73.7971 101.477 73.3928 98.1229C73.3418 97.7078 73.3044 97.3 73.2807 96.9003C76.2843 95.854 79.108 94.4272 81.7039 92.6808C83.3824 94.0539 85.1493 95.6925 86.906 97.6387C89.6038 100.631 91.5644 103.581 92.9813 106.088C91.544 107.712 91.2926 110.023 92.5124 111.619C93.9157 113.454 96.7189 113.646 98.7848 112.05C100.847 110.454 101.388 107.673 99.9842 105.834C98.7712 104.25 96.5082 103.889 94.5851 104.854C92.5158 102.742 90.2223 100.069 88.0103 96.7847C86.5798 94.6616 85.4007 92.6004 84.4255 90.6655C85.4721 89.8156 86.4744 88.9116 87.4224 87.9542C88.982 86.3847 90.4057 84.6808 91.6629 82.8581C93.987 83.5116 96.6748 84.4693 99.5221 85.9078C102.268 87.2887 104.554 88.8076 106.399 90.2231C105.699 92.2771 106.365 94.5001 108.095 95.4924C110.093 96.6427 112.753 95.7271 114.048 93.4541C115.339 91.1774 114.765 88.4038 112.767 87.2542C111.02 86.2503 108.764 86.8234 107.361 88.5078C105.302 87.7192 102.804 86.5233 100.215 84.6886C97.5242 82.7849 95.4957 80.7425 94.021 78.9807C95.0166 77.104 95.8559 75.1311 96.5253 73.0771C97.6431 73.1158 98.8188 73.2157 100.045 73.4001C103.188 73.8774 105.808 74.7735 107.823 75.6659C107.65 77.8578 108.88 79.8656 110.834 80.3692C113.056 80.9461 115.39 79.3578 116.039 76.8193C116.685 74.2808 115.404 71.7581 113.181 71.1812C111.217 70.6731 109.175 71.8429 108.275 73.8617C106.131 73.6848 103.392 73.2119 100.395 72.0424C99.2537 71.5966 98.2038 71.1001 97.2456 70.581C97.7247 68.6773 98.0611 66.7191 98.2344 64.712C100.171 64.5542 102.234 64.4543 104.398 64.4502C108.227 64.4386 111.7 64.7154 114.751 65.1233C115.118 67.2351 116.732 68.8425 118.703 68.9041C121 68.9695 122.926 66.9001 122.998 64.2808C123.073 61.6616 121.272 59.4848 118.971 59.4194Z" fill="#FA5752" fill-opacity="0.82"/>
</svg>
