<svg width="135" height="264" viewBox="0 0 135 264" fill="none" xmlns="http://www.w3.org/2000/svg">
<path d="M246.655 125.493C242.561 125.371 239.033 128.58 238.032 132.991C231.695 133.494 224.454 133.665 216.506 133.153C212.085 132.86 207.882 132.389 203.952 131.805C203.974 131.033 203.984 130.253 203.984 129.474C203.984 125.681 203.712 121.952 203.211 118.304C205.215 116.736 207.719 115.087 210.757 113.674C216.016 111.205 220.937 110.328 224.737 110.076C226.599 114.405 230.878 116.924 234.972 115.827C239.589 114.593 242.235 109.255 240.863 103.902C239.502 98.5487 234.667 95.2022 230.051 96.4364C225.848 97.5657 223.278 102.098 223.888 106.948C220.567 108.882 215.624 110.977 209.505 111.131C206.489 111.213 203.843 110.798 201.698 110.263C200.337 104.6 198.388 99.1741 195.895 94.0574C198.53 91.6202 201.644 89.0366 205.291 86.5425C210.572 82.9202 215.667 80.3289 220.143 78.4681C223.061 81.9619 227.71 83.1236 231.303 80.9958C235.43 78.5574 236.584 72.6845 233.894 67.8916C231.205 63.0999 225.663 61.1988 221.536 63.6438C217.954 65.7638 216.604 70.4751 218.085 74.8133C214.241 77.8671 209.516 81.0917 203.843 83.9679C199.989 85.9337 196.297 87.4282 192.955 88.5653C190.222 83.8786 187.032 79.5079 183.439 75.5193C184.821 70.3858 187.151 64.3911 191.126 58.3796C194.86 52.7591 198.998 48.6565 202.515 45.7725C206.391 48.2343 211.269 47.8524 214.045 44.611C217.203 40.9395 216.484 35.0018 212.423 31.3471C208.383 27.6835 202.547 27.6902 199.401 31.3627C196.624 34.6041 196.842 39.6002 199.727 43.246C197.452 47.0972 194.011 51.8734 188.959 56.4228C183.384 61.4423 177.788 64.448 173.519 66.2352C168.663 62.4252 163.372 59.1916 157.721 56.6338C158.537 54.3016 159.626 51.9549 161.052 49.6484C162.196 47.8199 163.426 46.2116 164.667 44.8064C168.968 46.6014 173.792 45.3102 175.958 41.5494C178.397 37.3496 176.612 31.6464 171.973 28.8206C167.335 25.9935 161.608 27.106 159.169 31.3135C157.035 35.0106 158.156 39.8672 161.608 42.9053C160.889 44.8555 160.018 46.8783 158.973 48.9402C157.786 51.3127 156.501 53.4986 155.14 55.5202C154.563 55.2846 153.997 55.0578 153.42 54.8467C146.691 52.2632 139.516 50.6313 132.036 50.0784C130.805 46.6828 129.738 42.9198 128.987 38.7871C127.462 30.3541 127.746 23.0146 128.453 17.5024C132.852 16.6379 136.14 13.0972 136.14 8.8539C136.14 3.96387 131.774 -0.000252005 126.385 -0.000252005C120.984 -0.000252005 116.607 3.96387 116.607 8.8539C116.607 13.1698 120.015 16.7597 124.523 17.5438C125.503 22.9767 126.145 30.5808 124.643 39.3958C123.967 43.2762 122.977 46.8125 121.822 50.0137C114.647 50.4281 107.755 51.8477 101.244 54.1352C100.34 52.6586 99.5235 51.1083 98.794 49.2798C97.3568 45.6586 96.7361 42.2653 96.4857 39.4406C100.699 37.1899 102.866 32.4685 101.385 28.2922C99.7521 23.6993 94.3189 21.5134 89.2451 23.4123C84.1821 25.3111 81.3947 30.573 83.0388 35.167C84.4543 39.13 88.6898 41.2935 93.0777 40.5932C94.3625 43.2973 95.5929 46.4148 96.5511 49.9566C97.0737 51.832 97.4548 53.6661 97.7488 55.4599C91.8365 57.8625 86.2944 60.9955 81.1988 64.7452C78.5203 62.7559 75.7765 60.4471 73.0653 57.7418C66.8264 51.5126 62.6671 45.1236 59.9341 40.0068C62.961 36.571 63.4946 31.652 60.9577 28.2632C58.0505 24.3851 52.2253 23.9763 47.9463 27.3483C43.6781 30.7215 42.5676 36.5979 45.4638 40.4748C48.0443 43.9005 52.8786 44.6132 56.929 42.4061C60.8706 46.0328 65.9989 51.7527 69.9622 59.9757C71.7805 63.7365 73.0435 67.3935 73.9364 70.8035C73.1197 71.5742 72.2922 72.3694 71.4974 73.1803C67.5232 77.2718 63.9627 81.8021 60.9141 86.7044C59.1175 86.1739 57.2557 85.5316 55.3502 84.7453C49.1549 82.1863 44.3532 78.9238 40.869 76.0812C42.3498 71.6602 40.9017 66.8908 37.2215 64.8222C33.0513 62.471 27.5637 64.4994 24.9723 69.3526C22.37 74.2035 23.6549 80.043 27.8468 82.393C31.5161 84.4594 36.198 83.1392 39.0398 79.4934C43.2644 80.9924 48.5342 83.3972 53.9674 87.3456C55.5898 88.5251 57.0706 89.7381 58.4534 90.9578C54.1526 98.9083 51.1474 107.695 49.7211 117.024C46.0082 117.349 42.0014 117.506 37.7006 117.369C31.5597 117.176 26.0175 116.438 21.1723 115.477C21.0634 110.598 17.8841 106.515 13.5724 106.05C8.82512 105.539 4.52432 109.586 3.95814 115.09C3.40284 120.593 6.78906 125.467 11.5254 125.977C15.75 126.431 19.6044 123.272 20.813 118.694C25.778 118.797 31.3527 119.253 37.3956 120.319C41.5876 121.058 45.4529 121.999 49.0351 123.046C48.8609 125.165 48.7847 127.307 48.7847 129.474C48.7847 134.62 49.2529 139.651 50.1675 144.53C46.0518 147.322 40.3899 150.487 33.171 152.71C26.845 154.659 21.1506 155.322 16.6102 155.465C14.977 151.127 10.9265 148.421 6.8217 149.233C2.15068 150.16 -0.821763 155.315 0.201724 160.747C1.22521 166.181 5.85266 169.834 10.5237 168.907C14.5741 168.105 17.3288 164.143 17.3397 159.575C21.989 158.024 27.4765 156.569 33.7155 155.622C40.8799 154.534 47.3148 154.377 52.7371 154.619C54.9038 161.352 57.9526 167.676 61.709 173.465C59.9342 174.905 57.9634 176.326 55.7313 177.654C51.4741 180.198 47.391 181.781 43.8414 182.804C41.446 178.873 36.9601 177.028 33.084 178.634C28.6743 180.471 26.7253 186.116 28.7505 191.241C30.0244 194.458 32.5613 196.717 35.3705 197.488C37.0255 197.951 38.7785 197.895 40.4226 197.213C40.9017 197.009 41.3699 196.757 41.7945 196.456C45.0174 194.265 46.3893 189.721 45.0283 185.386C48.3818 183.611 52.3016 181.853 56.8093 180.404C59.7164 179.474 62.482 178.795 65.0843 178.29C67.4579 181.44 70.0711 184.396 72.8693 187.123C73.1307 187.383 73.4028 187.644 73.6642 187.886C71.7696 192.224 68.9169 197.496 64.616 202.841C60.4023 208.073 56.0253 211.882 52.3342 214.572C48.6431 211.882 43.7979 211.94 40.8254 214.953C37.4283 218.389 37.755 224.368 41.5549 228.307C45.3331 232.238 51.1692 232.646 54.5554 229.209C57.5061 226.227 57.6476 221.322 55.1433 217.512C58.0396 213.636 61.8178 209.267 66.6413 204.953C71.8349 200.323 76.9524 196.895 81.4165 194.369C87.3179 198.674 93.8399 202.158 100.797 204.653C100.525 207.341 100.057 210.241 99.284 213.288C97.6072 219.925 95.1029 225.245 92.8273 229.161C88.3523 228.242 83.9316 230.338 82.4182 234.351C80.7087 238.908 83.3981 244.221 88.4285 246.219C93.4479 248.217 98.9138 246.137 100.645 241.572C102.137 237.608 100.307 233.076 96.4857 230.654C97.5636 225.935 99.2731 220.354 101.973 214.359C103.302 211.436 104.706 208.771 106.144 206.343C111.511 207.829 117.097 208.74 122.868 208.991C123.804 213.622 124.566 218.803 124.936 224.465C125.492 232.888 125.045 240.346 124.261 246.503C119.884 247.373 116.607 250.914 116.607 255.147C116.607 260.037 120.973 264 126.385 264C131.774 264 136.14 260.037 136.14 255.147C136.14 250.93 132.885 247.396 128.53 246.511C127.8 240.215 127.408 232.775 127.822 224.465C128.105 218.859 128.726 213.685 129.509 209.007C135.541 208.771 141.388 207.821 146.974 206.236C147.453 207.081 147.921 207.959 148.379 208.861C151.417 214.815 153.05 220.396 153.932 224.863C150.045 227.178 148.063 231.678 149.468 235.692C151.057 240.297 156.479 242.523 161.564 240.67C166.638 238.81 169.469 233.571 167.869 228.965C166.453 224.88 162.021 222.669 157.492 223.515C155.412 219.851 152.995 214.319 152.157 207.236C152.048 206.358 151.972 205.498 151.928 204.653C158.145 202.443 164.003 199.43 169.393 195.742C172.866 198.641 176.525 202.102 180.161 206.212C185.758 212.532 189.83 218.763 192.77 224.059C189.786 227.487 189.275 232.369 191.79 235.74C194.708 239.614 200.522 240.021 204.801 236.649C209.069 233.279 210.18 227.406 207.284 223.524C204.769 220.176 200.076 219.412 196.091 221.452C191.801 216.992 187.043 211.347 182.459 204.409C179.497 199.925 177.047 195.572 175.033 191.485C177.2 189.69 179.268 187.781 181.25 185.758C184.473 182.444 187.424 178.845 190.037 174.995C194.86 176.377 200.424 178.4 206.325 181.437C212.02 184.354 216.767 187.562 220.589 190.551C219.141 194.889 220.513 199.584 224.106 201.679C228.243 204.109 233.764 202.175 236.442 197.375C239.121 192.566 237.923 186.709 233.785 184.279C230.171 182.16 225.478 183.371 222.582 186.929C218.313 185.262 213.131 182.737 207.763 178.862C202.188 174.841 197.974 170.527 194.926 166.807C196.983 162.844 198.725 158.677 200.119 154.338C202.427 154.42 204.877 154.631 207.403 155.021C213.925 156.028 219.359 157.92 223.54 159.805C223.18 164.436 225.728 168.676 229.768 169.74C234.384 170.959 239.219 167.603 240.569 162.243C241.908 156.882 239.262 151.553 234.635 150.334C230.584 149.261 226.349 151.731 224.465 155.995C220.034 155.622 214.339 154.622 208.122 152.154C205.77 151.211 203.593 150.163 201.611 149.066C202.602 145.046 203.299 140.91 203.658 136.67C207.676 136.337 211.944 136.126 216.441 136.117C224.367 136.094 231.575 136.678 237.901 137.539C238.663 141.999 242.006 145.395 246.089 145.526C250.858 145.663 254.854 141.292 254.995 135.761C255.148 130.23 251.413 125.631 246.655 125.493Z" fill="#FA5752" fill-opacity="0.92"/>
</svg>
