<svg width="113" height="117" viewBox="0 0 113 117" fill="none" xmlns="http://www.w3.org/2000/svg">
<path d="M109.299 55.6161C107.488 55.562 105.924 56.984 105.481 58.9388C102.672 59.1621 99.4659 59.2376 95.9478 59.0109C93.9812 58.8815 92.1208 58.6724 90.3758 58.4133C90.3852 58.0712 90.3914 57.7257 90.3914 57.3801C90.3914 55.6987 90.2759 54.0465 90.0512 52.4302C90.9377 51.7355 92.049 51.0047 93.3913 50.3779C95.7231 49.2839 97.9082 48.8948 99.5876 48.7833C100.415 50.7023 102.306 51.8178 104.126 51.3323C106.171 50.785 107.339 48.4198 106.736 46.0473C106.134 43.6752 103.989 42.1917 101.944 42.739C100.081 43.2393 98.9446 45.2483 99.213 47.3972C97.7396 48.2543 95.5514 49.183 92.8418 49.2516C91.4996 49.2874 90.329 49.1036 89.38 48.866C88.7776 46.357 87.9097 43.9519 86.8078 41.6841C87.9753 40.6042 89.3551 39.4592 90.972 38.354C93.3132 36.7485 95.5701 35.6001 97.5523 34.776C98.8447 36.3235 100.908 36.8385 102.497 35.895C104.323 34.8154 104.841 32.2123 103.649 30.0887C102.453 27.9644 99.9965 27.1221 98.1704 28.2055C96.5784 29.1452 95.9853 31.2336 96.6408 33.1558C94.9396 34.5096 92.845 35.9386 90.3321 37.2132C88.6215 38.0843 86.9857 38.7466 85.5061 39.2504C84.2981 37.1732 82.8778 35.2366 81.2889 33.4691C81.9007 31.1939 82.9339 28.5367 84.6945 25.8731C86.3458 23.3818 88.1845 21.5639 89.7453 20.2855C91.4621 21.3766 93.6223 21.2072 94.8522 19.7708C96.2506 18.1439 95.9291 15.5123 94.1342 13.8921C92.3424 12.2687 89.7546 12.2722 88.3624 13.8991C87.1262 15.3358 87.2293 17.5498 88.506 19.1661C87.4977 20.8725 85.9744 22.9891 83.7331 25.0052C81.2639 27.2303 78.7791 28.5623 76.8905 29.3543C74.7429 27.6656 72.3986 26.2327 69.892 25.099C70.2572 24.0658 70.7379 23.0253 71.3685 22.003C71.8742 21.1931 72.4173 20.4799 72.9698 19.8576C74.8802 20.6531 77.0123 20.0802 77.9737 18.4135C79.0569 16.5525 78.2672 14.0253 76.21 12.7724C74.156 11.5196 71.6151 12.0128 70.535 13.8777C69.5892 15.5158 70.0886 17.6683 71.6151 19.0147C71.2967 19.8787 70.9096 20.7755 70.4507 21.6895C69.9263 22.7409 69.3519 23.7094 68.7494 24.6058C68.4966 24.5014 68.2406 24.4005 67.9878 24.3073C65.0004 23.1624 61.8226 22.4389 58.5106 22.1936C57.9675 20.689 57.493 19.0214 57.1621 17.1898C56.4847 13.4524 56.6096 10.1994 56.9218 7.75649C58.8696 7.37378 60.3305 5.80419 60.3305 3.92361C60.3305 1.75671 58.392 -0.000241008 56.0009 -0.000241008C53.6129 -0.000241008 51.6744 1.75671 51.6744 3.92361C51.6744 5.83685 53.1883 7.42791 55.183 7.7754C55.6169 10.1825 55.901 13.5529 55.2299 17.4595C54.9333 19.1793 54.4963 20.7466 53.9843 22.1651C50.8097 22.3489 47.7537 22.9779 44.8662 23.9915C44.4635 23.3372 44.1045 22.6503 43.783 21.84C43.1431 20.2358 42.8652 18.7312 42.756 17.4793C44.6227 16.482 45.5873 14.3898 44.9255 12.5387C44.2044 10.5027 41.7946 9.53458 39.5501 10.3759C37.3057 11.2172 36.0727 13.5494 36.7969 15.585C37.4212 17.3419 39.3004 18.3005 41.2483 17.9905C41.8164 19.1886 42.3596 20.5705 42.7903 22.1398C43.0151 22.9712 43.1868 23.7837 43.3179 24.5786C40.6989 25.6434 38.2391 27.0318 35.9821 28.6933C34.7928 27.8123 33.5785 26.789 32.3799 25.5896C29.6172 22.8293 27.7724 19.9982 26.5612 17.7301C27.9035 16.2073 28.1376 14.0275 27.0138 12.5255C25.7246 10.8073 23.1462 10.6257 21.2514 12.1204C19.3566 13.6147 18.8634 16.2194 20.1526 17.9373C21.2888 19.456 23.4365 19.7718 25.2252 18.7937C26.9764 20.4004 29.2458 22.9359 31.0064 26.5799C31.8086 28.2465 32.3705 29.8674 32.7607 31.379C32.3986 31.7204 32.0365 32.0727 31.6869 32.432C29.92 34.2454 28.3468 36.2531 26.9951 38.4261C26.1991 38.1903 25.375 37.9063 24.5322 37.5575C21.7821 36.4231 19.6531 34.9775 18.1111 33.7179C18.7666 31.7585 18.1298 29.6442 16.4972 28.7279C14.6461 27.6864 12.2144 28.585 11.0657 30.7353C9.91692 32.8858 10.485 35.4736 12.3393 36.5147C13.9687 37.431 16.0415 36.8456 17.3026 35.2298C19.1755 35.8941 21.5042 36.9599 23.9141 38.7098C24.6321 39.2325 25.2938 39.7702 25.9057 40.3111C23.9984 43.8343 22.6686 47.7284 22.0349 51.8626C20.3867 52.0074 18.6105 52.0759 16.7063 52.016C13.9874 51.9299 11.5308 51.6029 9.38623 51.1773C9.33628 49.0152 7.92534 47.2051 6.01181 46.9991C3.9141 46.773 2.0068 48.5665 1.7602 51.0056C1.50735 53.4441 3.01195 55.6046 5.10966 55.8307C6.97949 56.0318 8.69012 54.632 9.22079 52.6031C11.4246 52.6489 13.8969 52.8507 16.5753 53.3234C18.4264 53.6504 20.1463 54.068 21.729 54.5314C21.6541 55.4704 21.6166 56.42 21.6166 57.3801C21.6166 59.6607 21.8257 61.8913 22.2316 64.0531C20.4117 65.2896 17.8957 66.6927 14.6992 67.6775C11.896 68.5416 9.37064 68.8356 7.36034 68.8987C6.63925 66.9761 4.84433 65.7771 3.02444 66.1371C0.951708 66.5483 -0.365602 68.8327 0.0901501 71.2404C0.54278 73.6485 2.59056 75.2671 4.66641 74.8558C6.4582 74.501 7.67872 72.745 7.68496 70.7203C9.74521 70.033 12.1738 69.3887 14.9395 68.9682C18.1204 68.4862 20.9704 68.4173 23.3678 68.5243C24.3324 71.5075 25.6809 74.3108 27.3447 76.8767C26.5612 77.5143 25.6809 78.1443 24.7007 78.7329C22.8122 79.8603 21.0017 80.5616 19.4315 81.0148C18.3639 79.2735 16.3786 78.4556 14.6649 79.1672C12.7076 79.981 11.8429 82.4829 12.7451 84.7545C13.307 86.18 14.4307 87.1808 15.6731 87.5229C16.4067 87.7281 17.184 87.7028 17.9113 87.4002C18.1298 87.3105 18.3327 87.1988 18.52 87.0655C19.9528 86.0942 20.5584 84.0807 19.9528 82.1594C21.4387 81.3729 23.1743 80.594 25.1783 79.9515C26.4613 79.5394 27.6881 79.2389 28.8431 79.0148C29.8951 80.4108 31.0501 81.7203 32.2925 82.9297C32.4111 83.0443 32.5266 83.1596 32.6452 83.2675C31.8055 85.1901 30.5412 87.5264 28.6339 89.8954C26.7672 92.2134 24.8256 93.9022 23.193 95.0935C21.5542 93.9022 19.4097 93.9271 18.0892 95.2626C16.5878 96.7858 16.7313 99.4353 18.4139 101.181C20.0902 102.924 22.6748 103.104 24.1763 101.581C25.478 100.26 25.5436 98.0854 24.4323 96.3967C25.7184 94.6797 27.3947 92.7428 29.5361 90.8312C31.8336 88.7792 34.103 87.2599 36.0789 86.1406C38.6948 88.0484 41.5854 89.5927 44.6727 90.6982C44.5478 91.8896 44.3387 93.1748 43.9984 94.5247C43.2586 97.466 42.1442 99.8241 41.1328 101.559C39.1537 101.153 37.1965 102.081 36.5253 103.859C35.7636 105.879 36.953 108.234 39.1818 109.119C41.4106 110.006 43.8361 109.084 44.5977 107.06C45.2626 105.303 44.4479 103.294 42.7591 102.222C43.2367 100.13 43.989 97.6569 45.1877 95.0003C45.7746 93.7042 46.3989 92.5234 47.0388 91.4467C49.4143 92.1055 51.8929 92.509 54.4463 92.6205C54.8646 94.6724 55.2018 96.9693 55.3641 99.4786C55.6076 103.212 55.4109 106.516 55.0644 109.246C53.1228 109.632 51.6744 111.201 51.6744 113.076C51.6744 115.242 53.6129 117 56.004 117C58.3951 117 60.3305 115.242 60.3305 113.076C60.3305 111.208 58.8883 109.641 56.9592 109.249C56.6346 106.459 56.4567 103.161 56.6408 99.4786C56.7688 96.9943 57.0435 94.7015 57.3931 92.6278C60.0621 92.5234 62.653 92.102 65.1284 91.4003C65.3407 91.7743 65.5529 92.1631 65.7527 92.5628C67.095 95.2018 67.8192 97.6751 68.2125 99.655C66.4894 100.681 65.6154 102.675 66.2303 104.453C66.942 106.495 69.3394 107.482 71.5963 106.66C73.847 105.836 75.0957 103.514 74.3871 101.472C73.7596 99.6624 71.7961 98.683 69.7889 99.0574C68.8681 97.4337 67.7974 94.9821 67.4259 91.8425C67.3791 91.4541 67.3447 91.0723 67.3229 90.6982C70.0824 89.7189 72.6764 88.3834 75.0613 86.7488C76.6034 88.034 78.2266 89.5677 79.8404 91.3894C82.319 94.1901 84.1202 96.9514 85.4219 99.2982C84.1014 100.818 83.8704 102.981 84.9911 104.475C86.2803 106.192 88.8556 106.373 90.7535 104.878C92.6483 103.384 93.1447 100.782 91.8554 99.0606C90.741 97.5778 88.662 97.2393 86.8952 98.1431C84.9942 96.1664 82.8871 93.6645 80.855 90.59C79.5408 88.6028 78.4576 86.6735 77.5617 84.8624C78.5231 84.0669 79.444 83.2208 80.3149 82.3247C81.7477 80.8556 83.0557 79.2607 84.2107 77.5547C86.3458 78.1664 88.815 79.0628 91.4309 80.4092C93.9532 81.7018 96.054 83.1234 97.749 84.4483C97.1059 86.3709 97.7178 88.4516 99.3067 89.3804C101.142 90.4571 103.586 89.6001 104.776 87.4726C105.962 85.3416 105.434 82.7455 103.599 81.6694C101.994 80.7298 99.9216 81.2662 98.6324 82.8429C96.7407 82.1047 94.4463 80.9853 92.0677 79.2681C89.5954 77.4862 87.7318 75.5745 86.3771 73.9255C87.2917 72.1689 88.0627 70.3222 88.6777 68.3997C89.7047 68.4359 90.7847 68.5294 91.9116 68.702C94.7991 69.1488 97.2058 69.9875 99.0569 70.8228C98.8977 72.8744 100.028 74.7537 101.823 75.2251C103.864 75.7651 106.009 74.2784 106.605 71.9024C107.198 69.5264 106.021 67.1651 103.98 66.6251C102.175 66.1495 100.299 67.2445 99.4721 69.134C97.5024 68.9685 94.9864 68.5259 92.2331 67.4312C91.1843 67.0139 90.2197 66.5492 89.3394 66.0634C89.7796 64.2814 90.0886 62.4486 90.2478 60.5699C92.0271 60.4223 93.9219 60.3288 95.9104 60.3249C99.4284 60.314 102.619 60.5731 105.422 60.9549C105.759 62.9315 107.242 64.4361 109.052 64.4938C111.162 64.555 112.932 62.618 112.998 60.1664C113.067 57.7148 111.412 55.6773 109.299 55.6161Z" fill="#FA5752" fill-opacity="0.75"/>
</svg>
