<svg width="189" height="193" viewBox="0 0 189 193" fill="none" xmlns="http://www.w3.org/2000/svg">
<path opacity="0.93" d="M182.81 91.7432C179.781 91.6539 177.166 93.9996 176.424 97.2243C171.725 97.5925 166.363 97.7172 160.479 97.3432C157.19 97.1297 154.078 96.7847 151.16 96.3573C151.175 95.7931 151.186 95.2231 151.186 94.6531C151.186 91.8795 150.992 89.1541 150.617 86.4877C152.099 85.3419 153.958 84.1363 156.203 83.1024C160.103 81.2978 163.758 80.6559 166.567 80.472C167.95 83.6376 171.114 85.4777 174.158 84.6768C177.578 83.7739 179.531 79.8724 178.523 75.9588C177.515 72.0458 173.929 69.5987 170.509 70.5015C167.392 71.3267 165.491 74.6407 165.94 78.1856C163.476 79.5993 159.816 81.1314 155.284 81.2444C153.039 81.3036 151.081 81.0003 149.494 80.6083C148.486 76.4697 147.035 72.5022 145.192 68.7613C147.145 66.9799 149.452 65.0913 152.157 63.2681C156.073 60.6198 159.847 58.7253 163.163 57.366C165.324 59.9187 168.775 60.7682 171.433 59.2119C174.487 57.431 175.354 53.137 173.359 49.6339C171.36 46.1297 167.251 44.7403 164.197 46.5275C161.534 48.0775 160.542 51.5225 161.638 54.6933C158.793 56.9265 155.289 59.2837 151.086 61.3863C148.225 62.8233 145.489 63.9158 143.015 64.7468C140.994 61.3203 138.619 58.1257 135.961 55.21C136.984 51.457 138.713 47.0737 141.657 42.6799C144.419 38.5703 147.494 35.5717 150.105 33.4627C152.976 35.2626 156.589 34.9832 158.647 32.6138C160.986 29.93 160.448 25.589 157.446 22.9164C154.449 20.2385 150.121 20.2443 147.792 22.928C145.724 25.298 145.897 28.9501 148.032 31.6164C146.346 34.4311 143.798 37.9226 140.049 41.2482C135.919 44.9188 131.763 47.116 128.605 48.4225C125.012 45.6368 121.091 43.2732 116.899 41.403C117.51 39.6987 118.314 37.9823 119.368 36.296C120.214 34.9599 121.123 33.7834 122.047 32.7569C125.242 34.0692 128.808 33.1241 130.416 30.3749C132.228 27.3049 130.907 23.1362 127.466 21.0695C124.031 19.0028 119.781 19.8164 117.974 22.8926C116.392 25.5949 117.228 29.1455 119.781 31.3665C119.248 32.7918 118.601 34.271 117.833 35.7788C116.956 37.5132 115.996 39.1108 114.988 40.5895C114.565 40.4173 114.137 40.2508 113.714 40.0971C108.718 38.2084 103.402 37.015 97.8629 36.6103C96.9545 34.1284 96.1609 31.3776 95.6074 28.3563C94.4745 22.1911 94.6833 16.8251 95.2054 12.7953C98.4634 12.164 100.907 9.57482 100.907 6.47268C100.907 2.89823 97.6646 4.38748e-06 93.6652 4.38748e-06C89.6711 4.38748e-06 86.4288 2.89823 86.4288 6.47268C86.4288 9.62872 88.961 12.2533 92.2973 12.8265C93.023 16.7971 93.4981 22.3569 92.3756 28.8011C91.8796 31.638 91.1486 34.2235 90.2924 36.5633C84.9826 36.8666 79.8712 37.9041 75.0417 39.5762C74.3682 38.4969 73.7677 37.3637 73.23 36.0271C72.1597 33.3809 71.695 30.8989 71.5122 28.8338C74.6344 27.1887 76.2477 23.7374 75.1409 20.6838C73.9348 17.3255 69.9042 15.7284 66.1502 17.1162C62.3963 18.5041 60.334 22.3511 61.5453 25.7089C62.5895 28.6072 65.7325 30.1884 68.9905 29.677C69.9407 31.6533 70.8492 33.9329 71.5697 36.5216C71.9456 37.893 72.2327 39.2333 72.452 40.5446C68.0715 42.3011 63.9574 44.5913 60.1825 47.3321C58.1933 45.8787 56.1623 44.1908 54.1574 42.2124C49.5368 37.659 46.4511 32.9889 44.4254 29.2475C46.6704 26.7355 47.062 23.1399 45.1824 20.6622C43.0261 17.8279 38.7136 17.5283 35.5444 19.9939C32.3752 22.4589 31.5502 26.7555 33.7065 29.5893C35.607 32.0945 39.1991 32.6154 42.1908 31.002C45.1198 33.6524 48.9155 37.8349 51.8602 43.8459C53.202 46.5951 54.1418 49.2688 54.7944 51.7624C54.1888 52.3255 53.5831 52.9066 52.9984 53.4994C50.0432 56.4906 47.4118 59.8025 45.1511 63.387C43.8198 62.9982 42.4414 62.5295 41.0317 61.9542C36.4319 60.083 32.8712 57.6983 30.292 55.6205C31.3884 52.3884 30.3233 48.9006 27.5927 47.3892C24.4966 45.6711 20.4294 47.1535 18.5081 50.7005C16.5867 54.248 17.5369 58.5166 20.6382 60.2341C23.3636 61.7456 26.8304 60.7799 28.9397 58.1146C32.0724 59.2103 35.9673 60.9684 39.9979 63.855C41.1988 64.7172 42.3056 65.6042 43.329 66.4965C40.1389 72.3083 37.9147 78.7318 36.8548 85.5516C34.0981 85.7904 31.1273 85.9034 27.9425 85.8047C23.3949 85.6625 19.286 85.1232 15.6991 84.421C15.6156 80.8545 13.2557 77.8686 10.0551 77.5289C6.54659 77.1559 3.35651 80.1144 2.94405 84.1379C2.52114 88.1603 5.03768 91.7242 8.54624 92.0972C11.6737 92.429 14.5348 90.1198 15.4224 86.773C19.1085 86.8486 23.2436 87.1814 27.7232 87.9612C30.8193 88.5006 33.6961 89.1894 36.3432 89.9539C36.2179 91.5028 36.1552 93.0692 36.1552 94.6531C36.1552 98.4151 36.505 102.095 37.1838 105.661C34.1399 107.7 29.9317 110.015 24.5853 111.639C19.8968 113.065 15.673 113.55 12.3107 113.654C11.1046 110.482 8.10246 108.504 5.05858 109.098C1.59179 109.777 -0.611493 113.545 0.150782 117.517C0.907836 121.489 4.33288 124.159 7.80489 123.481C10.8018 122.895 12.8432 119.999 12.8536 116.659C16.2995 115.525 20.3615 114.462 24.9874 113.768C30.3076 112.973 35.0745 112.86 39.0842 113.036C40.6975 117.957 42.9531 122.581 45.7359 126.814C44.4254 127.866 42.9531 128.905 41.3136 129.876C38.1549 131.736 35.1267 132.893 32.5005 133.64C30.7149 130.768 27.3943 129.419 24.5279 130.592C21.2543 131.935 19.8081 136.062 21.317 139.809C22.2568 142.161 24.1363 143.811 26.2143 144.376C27.4413 144.714 28.7413 144.673 29.9578 144.173C30.3233 144.025 30.6627 143.841 30.9759 143.621C33.3724 142.019 34.3853 138.698 33.3724 135.528C35.8576 134.231 38.7605 132.946 42.1125 131.886C44.2583 131.206 46.3102 130.711 48.242 130.341C50.0015 132.644 51.9333 134.804 54.0113 136.799C54.2097 136.988 54.4028 137.178 54.6012 137.356C53.1968 140.528 51.0822 144.382 47.8922 148.289C44.77 152.113 41.5225 154.899 38.7919 156.864C36.0508 154.899 32.464 154.94 30.2554 157.143C27.7441 159.656 27.9843 164.026 30.7984 166.906C33.6021 169.78 37.9252 170.077 40.4365 167.565C42.6137 165.386 42.7233 161.799 40.8646 159.014C43.0157 156.182 45.8194 152.986 49.401 149.833C53.2437 146.448 57.0395 143.942 60.3444 142.096C64.7197 145.243 69.5543 147.79 74.718 149.614C74.5091 151.579 74.1593 153.699 73.5903 155.926C72.3529 160.778 70.4889 164.668 68.7973 167.53C65.4871 166.859 62.2135 168.39 61.091 171.324C59.8171 174.656 61.8063 178.54 65.5341 180C69.262 181.463 73.3187 179.942 74.5927 176.604C75.7047 173.706 74.3421 170.392 71.5175 168.623C72.3163 165.172 73.5746 161.093 75.5795 156.71C76.561 154.572 77.6052 152.625 78.6755 150.848C82.6488 151.935 86.7943 152.601 91.0651 152.785C91.7647 156.169 92.3286 159.958 92.6001 164.097C93.0074 170.255 92.6784 175.707 92.0989 180.209C88.8514 180.846 86.4288 183.435 86.4288 186.527C86.4288 190.1 89.6711 193 93.6704 193C97.6698 193 100.907 190.1 100.907 186.527C100.907 183.446 98.4947 180.862 95.2681 180.214C94.7251 175.612 94.4275 170.172 94.7355 164.097C94.9496 160 95.409 156.217 95.9938 152.797C100.458 152.625 104.791 151.929 108.932 150.772C109.287 151.389 109.642 152.03 109.976 152.689C112.221 157.043 113.432 161.123 114.09 164.389C111.208 166.081 109.746 169.37 110.775 172.304C111.965 175.671 115.975 177.299 119.75 175.945C123.514 174.585 125.602 170.754 124.417 167.387C123.368 164.401 120.084 162.785 116.727 163.403C115.186 160.724 113.396 156.68 112.774 151.501C112.696 150.861 112.639 150.231 112.602 149.614C117.217 147.998 121.556 145.795 125.545 143.099C128.124 145.219 130.839 147.749 133.538 150.754C137.684 155.374 140.697 159.929 142.874 163.8C140.665 166.307 140.279 169.875 142.153 172.34C144.309 175.172 148.617 175.47 151.791 173.005C154.96 170.54 155.791 166.247 153.634 163.408C151.77 160.962 148.293 160.404 145.338 161.894C142.158 158.634 138.634 154.507 135.235 149.435C133.037 146.157 131.225 142.975 129.727 139.987C131.335 138.675 132.875 137.279 134.332 135.801C136.728 133.378 138.916 130.747 140.848 127.933C144.419 128.942 148.549 130.42 152.924 132.641C157.143 134.773 160.657 137.119 163.492 139.304C162.416 142.475 163.439 145.908 166.097 147.44C169.167 149.216 173.255 147.802 175.244 144.293C177.228 140.777 176.346 136.495 173.276 134.72C170.592 133.17 167.126 134.055 164.969 136.656C161.805 135.438 157.968 133.592 153.989 130.759C149.854 127.819 146.737 124.666 144.471 121.946C146.001 119.048 147.291 116.002 148.319 112.831C150.037 112.89 151.843 113.045 153.728 113.329C158.558 114.066 162.583 115.45 165.679 116.828C165.413 120.212 167.303 123.312 170.305 124.09C173.72 124.98 177.307 122.528 178.304 118.609C179.296 114.689 177.328 110.794 173.913 109.903C170.895 109.119 167.757 110.925 166.374 114.042C163.079 113.769 158.871 113.039 154.266 111.233C152.512 110.545 150.899 109.778 149.426 108.977C150.162 106.037 150.679 103.014 150.945 99.9149C153.921 99.6714 157.091 99.5171 160.416 99.5108C166.301 99.4928 171.637 99.9202 176.325 100.55C176.889 103.811 179.369 106.292 182.397 106.388C185.927 106.488 188.887 103.293 188.997 99.2493C189.111 95.2051 186.344 91.8441 182.81 91.7432Z" fill="#FA5752" fill-opacity="0.9"/>
</svg>
