<svg width="366" height="536" viewBox="0 0 366 536" fill="none" xmlns="http://www.w3.org/2000/svg">
<path d="M106.736 165.017C103.709 164.773 100.886 163.391 98.8133 161.169C93.3968 155.359 85.6392 141.848 96.7498 117.853C117.434 73.1669 193.08 79.8709 211.123 112.341C223.961 135.441 236.732 140.024 229.841 146.974C223.192 153.682 144.406 168.058 106.736 165.017Z" fill="#FF504A"/>
<path d="M240.066 433.483C239.984 433.494 239.896 433.506 239.815 433.517C223.455 435.9 206.865 438.089 190.228 439.375C189.275 439.445 188.32 439.52 187.363 439.578C169.758 440.83 152.105 441.018 134.635 439.299C128.904 438.736 123.189 437.958 117.535 436.924C104.894 434.615 96.3733 422.667 98.4197 409.984C100.348 398.076 101.607 386.795 102.436 376.19C102.56 374.613 102.68 373.056 102.779 371.513C103.617 359.134 103.889 347.734 103.979 337.379C103.983 336.498 103.99 335.627 103.994 334.766C103.994 334.376 104.002 333.988 104.002 333.607C104.005 333.016 104.005 332.43 104.005 331.852C104.013 331.456 104.013 331.067 104.013 330.686C104.013 329.878 104.017 329.091 104.013 328.303C104.024 325.882 104.017 323.53 104.024 321.247V320.641C104.028 312.738 104.061 305.664 104.378 299.462C104.39 299.178 104.401 298.903 104.424 298.625C104.494 297.337 104.559 296.059 104.622 294.8C104.677 293.579 104.738 292.37 104.781 291.173C104.913 287.815 105.002 284.578 105.055 281.487C105.088 278.887 105.088 276.396 105.048 274.032C104.998 271.409 104.905 268.952 104.757 266.676C104.7 265.923 104.648 265.145 104.587 264.346C104.494 263.136 104.393 261.881 104.289 260.592C104.226 259.808 104.159 259.019 104.08 258.216C104.045 257.866 104.017 257.511 103.983 257.151C103.979 257.062 103.967 256.976 103.962 256.895C103.916 256.398 103.87 255.904 103.827 255.4C103.777 254.911 103.728 254.422 103.68 253.928C103.602 253.066 103.517 252.187 103.422 251.301C103.015 247.167 102.541 242.827 102.06 238.378C101.902 236.984 101.748 235.569 101.592 234.152C101.343 231.957 101.092 229.738 100.848 227.53C100.681 226.104 100.519 224.677 100.36 223.253C97.9195 201.802 95.6239 181.264 96.4398 174.746C97.8529 163.46 152.512 133.672 152.512 133.672L185.321 132.641C185.321 132.641 231.374 151.192 239.87 162.39C239.915 162.445 239.953 162.502 239.995 162.553C241.922 165.191 243.135 168.856 243.829 173.386C244.451 177.369 244.672 182.015 244.626 187.226C244.605 190.935 244.444 194.932 244.204 199.171C243.951 203.666 243.607 208.435 243.228 213.43C243.12 214.883 243.006 216.355 242.892 217.844C242.774 219.358 242.662 220.885 242.546 222.431C242.471 223.43 242.397 224.438 242.323 225.449C242.123 228.118 241.927 230.835 241.751 233.589C241.694 234.477 241.631 235.375 241.574 236.275C241.536 236.841 241.503 237.418 241.473 237.988C241.437 238.572 241.403 239.154 241.37 239.742V239.753C241.34 240.293 241.306 240.828 241.281 241.366C241.241 241.952 241.214 242.539 241.186 243.129C241.131 244.209 241.074 245.291 241.03 246.383C240.984 247.283 240.948 248.192 240.914 249.099C240.9 249.259 240.895 249.428 240.895 249.591C240.864 250.177 240.842 250.765 240.826 251.347L240.817 251.653L240.809 251.799C240.786 252.566 240.76 253.346 240.739 254.118C240.708 255.046 240.686 255.972 240.663 256.895C240.653 257.321 240.649 257.76 240.642 258.193C240.63 258.576 240.627 258.971 240.619 259.359C240.619 259.557 240.615 259.747 240.615 259.949C240.604 260.483 240.596 261.018 240.59 261.567C240.583 262.478 240.581 263.401 240.581 264.346V265.841C240.583 268.456 240.611 271.189 240.663 274.032C240.682 275.206 240.708 276.396 240.735 277.604C240.764 278.884 240.798 280.177 240.83 281.487C240.914 284.241 241.003 287.054 241.115 289.918C241.127 290.337 241.14 290.751 241.159 291.173C241.167 291.345 241.171 291.514 241.178 291.685C241.212 292.619 241.249 293.556 241.292 294.505C241.351 295.869 241.414 297.248 241.469 298.625C241.532 300.116 241.635 301.696 241.766 303.362C241.927 305.447 242.135 307.657 242.386 309.992C242.441 310.538 242.504 311.091 242.57 311.647C242.673 312.543 242.774 313.455 242.899 314.382C242.968 314.964 243.036 315.542 243.114 316.133C243.162 316.506 243.209 316.881 243.261 317.257C243.441 318.661 243.637 320.104 243.845 321.573C243.867 321.736 243.89 321.898 243.911 322.061C244.018 322.805 244.134 323.552 244.236 324.313C244.447 325.762 244.676 327.242 244.906 328.741C244.974 329.161 245.037 329.589 245.104 330.013C245.503 332.565 245.933 335.182 246.382 337.858C246.46 338.324 246.545 338.803 246.625 339.281C246.804 340.334 246.988 341.396 247.173 342.464C247.819 346.188 248.504 349.998 249.219 353.868C250.054 358.343 250.923 362.896 251.825 367.483C252.563 371.256 253.327 375.051 254.099 378.845C255.906 387.721 257.785 396.593 259.639 405.153C262.532 418.481 253.561 431.515 240.066 433.483Z" fill="white"/>
<path d="M243.832 173.387C219.863 178.523 197.626 179.99 180.063 179.99C176.872 179.99 173.836 179.942 170.97 179.86C143.836 179.067 126.187 175.134 125.448 174.971L126.726 169.322L128 163.676H128.004C128.35 163.754 145.66 167.563 171.617 168.295C189.148 168.788 213.374 167.911 239.872 162.39C239.916 162.445 239.956 162.5 239.996 162.554C241.922 165.191 243.138 168.856 243.832 173.387Z" fill="#1DB776" fill-opacity="0.56"/>
<path d="M244.625 187.226C244.603 190.935 244.441 194.932 244.201 199.171C220.759 204.154 198.903 205.623 181.309 205.623C176.952 205.623 172.857 205.533 169.063 205.383C141.947 204.322 124.343 200.214 123.607 200.039L126.273 188.768C126.447 188.81 143.751 192.829 169.824 193.822C188.766 194.548 215.548 193.747 244.625 187.226Z" fill="#1DB776" fill-opacity="0.56"/>
<path d="M243.23 213.43C243.122 214.883 243.008 216.355 242.893 217.844C242.776 219.358 242.663 220.885 242.547 222.431C242.473 223.429 242.399 224.437 242.323 225.449C220.237 229.913 199.583 231.28 182.576 231.28C177.021 231.28 171.863 231.136 167.164 230.908C140.068 229.574 122.508 225.289 121.772 225.111L124.551 213.867C124.722 213.907 141.985 218.099 168.039 219.354C187.044 220.269 213.961 219.73 243.23 213.43Z" fill="#1DB776" fill-opacity="0.56"/>
<path d="M241.373 239.741V239.753C241.343 240.295 241.31 240.827 241.284 241.366C241.246 241.953 241.219 242.539 241.189 243.129C241.133 244.209 241.078 245.291 241.033 246.383C240.989 247.282 240.951 248.191 240.918 249.099C240.905 249.258 240.898 249.428 240.898 249.591C240.867 250.177 240.846 250.765 240.831 251.346L240.82 251.653C219.916 255.69 200.31 256.972 183.842 256.972C177.075 256.972 170.843 256.759 165.261 256.426C138.184 254.825 120.668 250.363 119.936 250.177L122.827 238.964H122.831C122.989 239.005 127.363 240.107 134.938 241.388C142.513 242.67 153.285 244.131 166.25 244.886C185.219 245.991 212.092 245.723 241.373 239.741Z" fill="#1DB776" fill-opacity="0.56"/>
<path d="M121.102 264.062L119.604 269.654L121.106 264.062H121.102ZM240.668 274.032C240.617 271.188 240.588 268.455 240.584 265.84C210.875 271.711 183.626 271.727 164.467 270.416C138.554 268.649 121.42 264.144 121.106 264.062L119.604 269.654L118.103 275.245C118.832 275.439 136.298 280.076 163.358 281.947C169.797 282.396 177.106 282.697 185.107 282.697C201.376 282.697 220.466 281.447 240.738 277.603C240.714 276.396 240.687 275.205 240.668 274.032Z" fill="#1DB776" fill-opacity="0.56"/>
<path d="M241.768 303.361C221.691 307.182 202.708 308.453 186.366 308.453C177.121 308.453 168.724 308.046 161.451 307.471C134.415 305.322 116.994 300.514 116.263 300.313L117.823 294.737L119.377 289.16H119.379C119.656 289.238 136.752 293.919 162.676 295.952C182.324 297.49 210.504 297.721 241.181 291.684C241.215 292.62 241.253 293.557 241.295 294.504C241.354 295.868 241.416 297.247 241.474 298.626C241.536 300.115 241.639 301.695 241.768 303.361Z" fill="#1DB776" fill-opacity="0.56"/>
<path d="M244.908 328.74C224.237 332.863 204.597 334.238 187.613 334.238C177.115 334.238 167.636 333.711 159.55 332.991C132.528 330.573 115.155 325.591 114.426 325.381L117.654 314.261V314.257C117.821 314.307 134.9 319.185 160.887 321.483C181.326 323.293 211.04 323.776 243.263 317.257C243.444 318.662 243.64 320.104 243.847 321.572C243.87 321.736 243.893 321.897 243.916 322.061C244.02 322.804 244.136 323.552 244.239 324.313C244.45 325.764 244.678 327.241 244.908 328.74Z" fill="#1DB776" fill-opacity="0.56"/>
<path d="M249.221 353.867C227.531 358.51 206.802 360.052 188.843 360.052C177.092 360.052 166.525 359.392 157.641 358.51C130.639 355.821 113.311 350.667 112.587 350.446L115.926 339.36C116.094 339.408 133.127 344.459 159.094 347.017C180.709 349.147 212.717 349.896 247.175 342.464C247.821 346.188 248.504 349.997 249.221 353.867Z" fill="#1DB776" fill-opacity="0.56"/>
<path d="M254.099 378.846C231.184 384.146 209.164 385.902 190.064 385.902C177.05 385.902 165.395 385.088 155.736 384.026C128.756 381.067 111.472 375.738 110.751 375.514L112.478 369.985L114.199 364.458L114.203 364.462C114.471 364.542 131.438 369.738 157.305 372.551C180.226 375.04 214.872 376.094 251.825 367.482C252.563 371.255 253.327 375.05 254.099 378.846Z" fill="#1DB776" fill-opacity="0.56"/>
<path d="M165.866 417.906C166.974 370.164 158.8 314.613 158.869 266.857C158.931 224.039 162.06 181.529 162.026 138.711C151.811 139.479 147.423 141.223 147.423 141.223C147.423 141.223 137.656 149.557 105.872 159.914C75.9006 169.68 81.4711 280.379 83.2931 342.338C85.1132 404.298 84.3905 443.581 143.31 451.11C148.844 451.818 154.28 452.442 159.603 452.965C159.692 438.796 165.537 432.109 165.866 417.906Z" fill="#FB4C47"/>
<path d="M101.947 292.021C101.314 292.021 100.743 291.578 100.606 290.931C100.447 290.191 100.92 289.461 101.662 289.301C102.413 289.139 120.098 285.113 126.196 263.938C126.403 263.208 127.166 262.789 127.896 262.997C128.624 263.206 129.047 263.968 128.835 264.697C122.27 287.508 103.048 291.817 102.232 291.99C102.137 292.011 102.04 292.021 101.947 292.021Z" fill="#B63A37"/>
<path d="M153.383 408.501C152.813 408.501 152.333 408.056 152.301 407.478C147.558 321.988 143.784 238.42 149.635 155.937C149.678 155.34 150.199 154.893 150.793 154.933C151.392 154.975 151.841 155.494 151.799 156.091C145.954 238.447 149.726 321.94 154.467 407.356C154.499 407.955 154.041 408.466 153.444 408.499C153.423 408.501 153.404 408.501 153.383 408.501Z" fill="#B63A37"/>
<path d="M268.134 203.275C269.555 159.169 248.311 147.528 205.917 141.17C205.752 141.145 205.59 141.121 205.425 141.098C204.744 148.384 204.993 155.784 205.469 163.058C206.229 174.692 207.58 186.259 208.047 197.912C210.006 246.538 214.765 279.566 210.858 343.388C207.92 391.356 215.588 416.533 216.931 452.881C240.997 449.205 259.937 439.41 271.601 419.534C293.482 382.245 266.716 247.381 268.134 203.275Z" fill="#FB4C47"/>
<path d="M263.155 290.533C263.053 290.533 262.952 290.524 262.847 290.499C262.564 290.434 234.377 283.517 229.613 242.523C229.525 241.77 230.065 241.087 230.82 241.001C231.579 240.908 232.256 241.454 232.342 242.207C236.885 281.294 263.195 287.76 263.462 287.819C264.201 287.989 264.664 288.726 264.494 289.466C264.35 290.101 263.783 290.533 263.155 290.533Z" fill="#B63A37"/>
<path d="M220.165 400.658C219.644 400.658 219.184 400.281 219.096 399.749C217.109 387.679 217.871 355.299 218.611 323.987C219.172 300.166 219.703 277.667 219.083 264.113C216.989 218.225 210.719 154.136 210.656 153.495C210.597 152.9 211.032 152.369 211.628 152.31C212.219 152.253 212.755 152.687 212.813 153.282C212.875 153.925 219.151 218.067 221.249 264.012C221.871 277.642 221.34 300.177 220.777 324.038C220.041 355.251 219.281 387.527 221.236 399.397C221.333 399.986 220.933 400.546 220.342 400.643C220.283 400.652 220.224 400.658 220.165 400.658Z" fill="#B63A37"/>
<path d="M181.622 40.0141L160.775 47.5853C160.775 47.5853 154.522 56.2083 146.323 54.4301C143.035 53.715 139.435 51.3282 135.797 46.0467C123.088 27.5836 153.741 2.00372 172.164 6.3019C181.199 8.40915 183.649 16.5643 183.795 24.3257C183.949 32.3838 181.622 40.0141 181.622 40.0141Z" fill="#002014"/>
<path d="M181.621 40.0141L160.775 47.5853C160.775 47.5853 154.521 56.2083 146.323 54.4301C146.323 44.8676 159.736 27.3839 183.795 24.3257C183.949 32.3839 181.621 40.0141 181.621 40.0141Z" fill="#FFD339"/>
<path d="M181.274 3.13044C180.898 3.13044 180.489 3.17418 180.046 3.26167C178.966 3.47848 178.266 4.00339 177.845 4.91437C175.972 8.96911 179.922 18.6267 182.745 24.3323C184.489 18.0029 186.579 7.42291 183.625 4.08897C183.057 3.44805 182.282 3.13044 181.274 3.13044ZM183.074 29.0945C182.604 29.0945 182.165 28.8415 181.933 28.4231C180.934 26.6335 172.277 10.7397 175.472 3.81891C176.24 2.15479 177.646 1.07454 179.534 0.697974C182.752 0.0570518 184.601 1.24571 185.582 2.35448C190.713 8.14752 184.987 26.1618 184.317 28.1968C184.154 28.6894 183.716 29.0393 183.199 29.0888C183.157 29.0926 183.115 29.0945 183.074 29.0945Z" fill="#FFD339"/>
<path d="M198.901 9.56206C198.778 9.56206 198.652 9.56967 198.527 9.58869C194.109 10.1764 188.77 19.5468 185.948 25.4748C191.815 23.0043 201.121 18.2858 202.357 13.9953C202.635 13.0291 202.448 12.1752 201.773 11.3042C200.864 10.1345 199.923 9.56206 198.901 9.56206ZM183.439 29.1777C183.088 29.1777 182.743 29.037 182.494 28.7745C182.135 28.398 182.032 27.8464 182.232 27.3672C183.057 25.3912 190.509 8.01966 198.181 6.99647C199.651 6.80058 201.825 7.10868 203.837 9.699C205.02 11.2205 205.377 12.9569 204.869 14.718C202.758 22.042 185.811 28.398 183.886 29.0998C183.74 29.153 183.59 29.1777 183.439 29.1777Z" fill="#FFD339"/>
<path d="M144.747 57.1445C140.194 56.4636 135.074 54.0369 131.86 47.3329C124.27 31.5076 142.423 18.1528 142.607 18.0197C142.978 17.7515 143.495 17.8371 143.764 18.2061C144.032 18.5769 143.948 19.0961 143.577 19.3643C143.404 19.4898 126.365 32.0439 133.353 46.6159C139.589 59.6169 153.318 55.043 153.899 54.8395C154.334 54.6911 154.804 54.9212 154.954 55.353C155.102 55.7847 154.874 56.2563 154.441 56.4066C154.359 56.4351 149.918 57.9167 144.747 57.1445Z" fill="#002014"/>
<path d="M205.145 59.1003C205.145 59.1003 213.281 93.2632 201.98 115.376C190.681 137.489 179.327 143.512 195.553 150.381C211.78 157.249 230.241 144.166 242.63 150.971C257.586 159.185 240.816 90.243 233.341 61.0668C225.69 31.2135 189.357 27.8719 189.357 27.8719L205.145 59.1003Z" fill="#002014"/>
<path d="M226.651 83.6477C226.651 83.6477 241.189 50.3521 213.931 34.6789C186.672 19.0058 159.139 30.8429 151.804 48.8876C144.468 66.9324 155.701 78.8018 155.701 78.8018L226.651 83.6477Z" fill="#002014"/>
<path d="M179.934 153.95C187.802 156.135 190.949 152.647 193.365 150.053L194.991 135.947L195.942 127.72L196.139 126.508L192.522 126.107L165.832 118.408L162.222 135.356L160.506 143.391C163.937 146.63 168.496 150.774 179.934 153.95Z" fill="#FBB990"/>
<path d="M194.989 135.947C186.718 139.676 170.405 137.982 162.22 135.355C162.191 135.352 162.17 135.342 162.142 135.332L165.83 118.408L192.52 126.107L196.137 126.508L195.94 127.719L194.989 135.947Z" fill="#181818"/>
<path d="M216.782 83.853C216.782 83.853 232.63 79.2467 229.521 93.2481C226.095 108.665 213.479 104.288 211.307 103.29L216.782 83.853Z" fill="#FB9476"/>
<path d="M205.395 109.459C204.518 115.325 208.577 120.81 214.442 121.686C220.31 122.563 225.794 118.505 226.671 112.637C227.419 107.634 224.568 102.917 220.077 101.091C220.07 101.101 220.062 101.112 220.055 101.129C219.3 101.327 219.142 101.909 219.071 102.542C223.054 103.959 225.616 108.048 224.969 112.384C224.233 117.308 219.627 120.72 214.697 119.984C209.773 119.248 206.361 114.638 207.097 109.714C207.428 107.489 208.55 105.576 210.135 104.216C210.545 103.866 210.987 103.55 211.453 103.276C211.038 102.902 210.644 102.466 210.296 101.968C209.868 102.234 209.45 102.537 209.066 102.868C207.153 104.49 205.793 106.787 205.395 109.459Z" fill="white"/>
<path d="M218.554 98.7131C218.524 98.7093 218.493 98.7017 218.463 98.6941C218.004 98.5743 217.727 98.1045 217.846 97.6443C219.609 90.849 224.613 88.4945 224.824 88.3975C225.256 88.2016 225.768 88.3899 225.965 88.8235C226.161 89.2552 225.973 89.7649 225.543 89.9627C225.355 90.0502 221.061 92.1099 219.513 98.0779C219.4 98.5077 218.984 98.7778 218.554 98.7131Z" fill="#FA7764"/>
<path d="M224.225 95.8529C223.981 95.8168 223.755 95.678 223.618 95.4517C223.593 95.4136 222.534 93.7324 221.018 93.7134C220.545 93.7115 220.162 93.3197 220.166 92.8442C220.174 92.3688 220.562 91.9884 221.037 91.9941C223.508 92.0188 225.024 94.4513 225.086 94.554C225.334 94.961 225.204 95.4897 224.799 95.7369C224.62 95.8453 224.417 95.8815 224.225 95.8529Z" fill="#FA7764"/>
<path d="M225.472 81.9326C224.487 87.5012 222.97 92.9119 221.081 97.9861C220.231 100.285 219.295 102.512 218.304 104.654C211.321 119.747 201.283 130.622 193.265 131.563C180.57 133.056 166.159 126.854 159.094 110.299C157.94 107.594 156.73 104.327 156.152 100.477C156.074 99.9431 155.998 99.3953 155.933 98.8362C153.862 81.6359 158.225 57.1153 158.225 57.1153C168.63 41.581 190.999 45.7214 203.976 47.8571C216.962 49.9967 229.993 56.4497 225.472 81.9326Z" fill="#FFC29C"/>
<path d="M189.753 122.674C186.997 122.263 185.369 121.014 185.299 120.96C184.924 120.668 184.856 120.127 185.148 119.753C185.439 119.378 185.978 119.31 186.352 119.601C186.381 119.622 187.84 120.709 190.272 121.008C192.752 121.31 194.414 120.738 194.429 120.732C194.876 120.574 195.369 120.808 195.529 121.253C195.688 121.698 195.458 122.191 195.013 122.351C194.932 122.381 192.976 123.071 190.065 122.716C189.958 122.704 189.856 122.689 189.753 122.674Z" fill="#FB9476"/>
<path d="M141.434 287.759C140.882 287.759 140.369 287.407 140.19 286.853C138.32 281.096 137.031 274.602 136.976 274.328C136.837 273.618 137.297 272.932 138.006 272.791C138.712 272.652 139.402 273.112 139.541 273.822C139.555 273.888 140.857 280.44 142.677 286.047C142.9 286.733 142.523 287.471 141.837 287.694C141.704 287.738 141.567 287.759 141.434 287.759Z" fill="#108A57"/>
<path d="M148.415 285.416C147.869 285.416 147.361 285.073 147.177 284.528C145.231 278.797 143.856 272.323 143.799 272.051C143.649 271.344 144.102 270.65 144.809 270.501C145.515 270.351 146.207 270.804 146.357 271.509C146.371 271.576 147.759 278.107 149.653 283.687C149.885 284.372 149.518 285.113 148.835 285.345C148.695 285.393 148.554 285.416 148.415 285.416Z" fill="#108A57"/>
<path d="M155.402 283.073C154.863 283.073 154.359 282.738 154.169 282.201C152.149 276.498 150.689 270.045 150.628 269.773C150.47 269.069 150.911 268.369 151.617 268.211C152.319 268.054 153.02 268.495 153.178 269.2C153.194 269.265 154.667 275.775 156.634 281.329C156.876 282.009 156.518 282.755 155.839 282.996C155.694 283.048 155.546 283.073 155.402 283.073Z" fill="#108A57"/>
<path d="M162.38 280.73C161.848 280.73 161.35 280.403 161.154 279.875C159.058 274.2 157.514 267.767 157.449 267.496C157.28 266.794 157.713 266.088 158.417 265.921C159.119 265.753 159.822 266.187 159.992 266.889C160.007 266.953 161.566 273.443 163.607 278.969C163.856 279.646 163.51 280.4 162.833 280.649C162.685 280.704 162.531 280.73 162.38 280.73Z" fill="#108A57"/>
<path d="M169.365 278.388C168.84 278.388 168.344 278.068 168.144 277.549C165.974 271.9 164.343 265.489 164.276 265.219C164.097 264.519 164.521 263.808 165.221 263.631C165.921 263.454 166.632 263.878 166.809 264.578C166.826 264.641 168.471 271.111 170.584 276.611C170.843 277.285 170.508 278.042 169.833 278.3C169.679 278.359 169.521 278.388 169.365 278.388Z" fill="#108A57"/>
<path d="M176.345 276.046C175.826 276.046 175.335 275.734 175.131 275.222C172.885 269.602 171.17 263.21 171.098 262.94C170.911 262.244 171.326 261.527 172.024 261.341C172.722 261.154 173.437 261.569 173.623 262.267C173.64 262.331 175.373 268.781 177.558 274.252C177.826 274.924 177.499 275.684 176.83 275.952C176.67 276.015 176.506 276.046 176.345 276.046Z" fill="#108A57"/>
<path d="M183.327 273.703C182.814 273.703 182.329 273.398 182.119 272.896C179.799 267.303 177.998 260.932 177.922 260.664C177.726 259.969 178.131 259.247 178.827 259.051C179.521 258.855 180.244 259.26 180.438 259.956C180.457 260.021 182.273 266.449 184.535 271.894C184.811 272.56 184.495 273.326 183.827 273.602C183.664 273.67 183.494 273.703 183.327 273.703Z" fill="#108A57"/>
<path d="M220.947 134.328C220.681 137.738 220.048 141.143 218.886 144.324C218.591 145.138 218.258 145.935 217.885 146.715V146.719C216.012 150.682 213.178 154.174 209.013 156.728C209.013 156.728 188.703 165.361 164.778 154.766H164.774C163.416 154.163 162.045 153.495 160.662 152.763C159.455 152.124 158.245 151.434 157.032 150.69C146.64 144.324 142.521 135.745 141.395 127.575C141.294 126.846 141.216 126.126 141.161 125.401C140.72 119.64 141.65 114.212 142.762 110.076C142.838 109.802 142.912 109.532 142.987 109.271C144.191 105.057 145.508 102.375 145.508 102.375C145.508 102.375 150.887 100.038 157.943 98.9654C160.626 98.5584 163.553 98.334 166.52 98.4918C169.888 98.6668 173.31 99.3362 176.486 100.785C199.171 111.135 210.66 115.757 217.242 106.873C217.242 106.873 218.385 110.179 219.428 115.158C219.576 115.865 219.719 116.601 219.861 117.37C220.245 119.481 220.59 121.81 220.816 124.266C221.115 127.482 221.217 130.903 220.947 134.328Z" fill="#0CAD69"/>
<path d="M219.862 117.369C219.56 117.837 219.22 118.311 218.847 118.782C215.973 122.413 210.389 126.593 199.908 126.593C199.265 126.593 198.607 126.578 197.928 126.544C187.765 126.059 179.842 121.863 172.177 117.807C163.029 112.967 154.386 108.391 142.917 110.806L142.763 110.076L142.611 109.345C142.739 109.321 142.866 109.294 142.99 109.271C154.793 106.919 163.581 111.569 172.875 116.489C180.395 120.466 188.172 124.583 197.999 125.049C206.905 125.479 213.508 123.075 217.632 117.911C218.371 116.985 218.961 116.048 219.429 115.157C219.579 115.863 219.72 116.601 219.862 117.369Z" fill="#108E59"/>
<path d="M218.883 144.324C218.588 145.138 218.255 145.935 217.882 146.715V146.718C214.082 148.9 209.529 150.395 204.263 151.186C201.27 151.639 198.046 151.861 194.606 151.861C190.127 151.861 185.283 151.481 180.114 150.72C164.604 148.426 151.344 143.421 151.209 143.367L151.744 141.971C151.875 142.023 165.003 146.979 180.357 149.244C192.571 151.039 208.398 151.418 218.883 144.324Z" fill="#108E59"/>
<path d="M183.024 263.994L137.037 279.011C137.037 279.011 136.429 276.331 135.487 271.774C135.278 270.759 135.05 269.646 134.812 268.45C134.162 265.215 133.414 261.356 132.625 257.05C132.427 255.958 132.227 254.842 132.026 253.695C131.387 250.093 130.733 246.24 130.097 242.212C129.922 241.095 129.746 239.968 129.574 238.825C129.004 235.059 128.45 231.175 127.946 227.233C127.8 226.09 127.655 224.943 127.517 223.791C127.045 219.89 126.627 215.957 126.28 212.056C126.172 210.888 126.075 209.723 125.986 208.561C125.668 204.496 125.436 200.489 125.32 196.615C125.286 195.423 125.259 194.243 125.246 193.078C125.193 188.738 125.301 184.599 125.611 180.778C125.712 179.525 125.835 178.312 125.982 177.136C126.083 176.284 126.202 175.451 126.328 174.641C126.929 170.856 127.762 167.424 128.768 164.308C129.186 163 129.639 161.75 130.116 160.554C138.629 139.173 155.348 134.959 155.348 134.959C167.731 136.188 173.174 149.419 173.174 149.419C170.578 151.893 168.703 155.292 167.417 159.369C167.085 160.427 166.79 161.53 166.537 162.673C165.848 165.735 165.43 169.097 165.236 172.675C165.173 173.785 165.135 174.917 165.116 176.064C165.061 179.407 165.177 182.903 165.434 186.495C165.512 187.617 165.605 188.745 165.71 189.881C166.031 193.34 166.468 196.87 166.995 200.413C167.164 201.543 167.339 202.667 167.522 203.795C168.096 207.321 168.751 210.85 169.46 214.333C169.684 215.453 169.92 216.565 170.156 217.676C170.921 221.257 171.735 224.772 172.568 228.165C172.838 229.27 173.11 230.36 173.387 231.436C174.308 235.078 175.247 238.553 176.151 241.78C176.461 242.889 176.771 243.973 177.073 245.021C178.189 248.891 179.235 252.324 180.129 255.171C180.498 256.345 180.839 257.415 181.149 258.379C182.303 261.944 183.024 263.994 183.024 263.994Z" fill="#0CAD69"/>
<path d="M167.413 159.37C167.08 160.427 166.785 161.528 166.532 162.671C158.393 161.667 143.608 160.733 128.764 164.309C129.182 163 129.635 161.749 130.112 160.555C137.489 158.959 144.576 158.428 150.424 158.369C157.328 158.295 163.267 158.832 167.413 159.37Z" fill="#108E59"/>
<path d="M165.232 172.675C165.17 173.784 165.132 174.916 165.113 176.063C155.398 175.646 140.139 176.038 125.607 180.777C125.708 179.526 125.832 178.313 125.978 177.135C135.611 174.174 145.215 173.048 152.756 172.694C157.456 172.474 161.703 172.521 165.232 172.675Z" fill="#108E59"/>
<path d="M165.706 189.88C155.337 190.055 139.766 191.352 125.316 196.617C125.282 195.424 125.255 194.243 125.24 193.077C135.879 189.35 146.752 187.714 155.086 187.02C158.878 186.702 162.374 186.552 165.428 186.497C165.508 187.617 165.601 188.745 165.706 189.88Z" fill="#108E59"/>
<path d="M167.522 203.795C156.813 204.516 140.87 206.532 126.279 212.057C126.172 210.887 126.075 209.723 125.986 208.561C140.661 203.126 156.305 201.132 166.996 200.414C167.165 201.541 167.34 202.667 167.522 203.795Z" fill="#108E59"/>
<path d="M170.152 217.675C159.27 218.908 142.843 221.57 127.942 227.234C127.796 226.091 127.651 224.944 127.512 223.79C142.484 218.191 158.598 215.557 169.456 214.332C169.68 215.454 169.916 216.566 170.152 217.675Z" fill="#108E59"/>
<path d="M173.385 231.437C162.474 233.158 145.459 236.49 130.095 242.212C129.92 241.096 129.745 239.968 129.572 238.825C144.884 233.203 161.645 229.9 172.567 228.163C172.836 229.27 173.108 230.36 173.385 231.437Z" fill="#108E59"/>
<path d="M177.078 245.022C166.287 247.218 148.588 251.283 132.63 257.049C132.432 255.959 132.23 254.843 132.029 253.696C147.917 248.006 165.357 243.987 176.155 241.779C176.465 242.888 176.775 243.972 177.078 245.022Z" fill="#108E59"/>
<path d="M181.147 258.379C170.696 261.009 152.199 265.941 135.487 271.774C135.276 270.758 135.05 269.646 134.81 268.449C151.425 262.675 169.669 257.809 180.128 255.171C180.498 256.344 180.837 257.415 181.147 258.379Z" fill="#108E59"/>
<path d="M164.778 154.766H164.774C164.434 154.747 164.084 154.707 163.72 154.638C162.615 154.429 161.6 153.773 160.66 152.763C152.754 144.235 150.717 110.58 150.717 110.58C150.717 110.58 153.68 103.256 157.943 98.9674C160.624 98.5604 163.553 98.336 166.52 98.4938C167.134 104.814 169.26 124.962 171.733 130.506C174.576 136.873 174.213 155.27 164.778 154.766Z" fill="#128E5A"/>
<path d="M220.948 134.328C209.395 143.294 184.18 138.132 161.156 131.348C153.29 129.03 146.736 127.948 141.394 127.577C141.297 126.848 141.217 126.126 141.162 125.403C151.17 126.029 164.578 128.841 181.187 132.615C205.819 138.208 217.04 128.767 220.819 124.268C221.118 127.484 221.219 130.907 220.948 134.328Z" fill="#108E59"/>
<path d="M204.253 88.7218C203.873 91.1523 204.66 93.2957 206.015 93.5087C207.374 93.7236 208.786 91.9226 209.166 89.4901C209.316 88.5316 209.284 87.6225 209.109 86.8542C211.524 87.3372 212.561 85.9489 212.561 85.9489C210.957 85.9242 208.913 85.2585 207.949 84.9124C207.608 84.7849 207.399 84.7032 207.399 84.7032C206.045 84.4883 204.636 86.2855 204.253 88.7218Z" fill="#181818"/>
<path d="M207.401 84.7022C207.401 84.7022 207.609 84.7842 207.952 84.9119C207.782 84.8051 207.599 84.7327 207.401 84.7022Z" fill="#181818"/>
<path d="M221.085 97.9859C220.233 100.285 219.299 102.512 218.308 104.654C217.216 104.663 216.045 104.587 214.837 104.416C209.442 103.653 205.317 101.291 205.623 99.1422C205.929 96.995 210.551 95.8748 215.94 96.6356C217.863 96.9075 219.626 97.383 221.085 97.9859Z" fill="#FD9B7E"/>
<path d="M181.483 94.9252C181.175 97.0971 176.508 98.2287 171.057 97.4566C165.606 96.6825 161.438 94.2976 161.748 92.1257C162.054 89.9557 166.723 88.8222 172.172 89.5943C177.622 90.3684 181.791 92.7533 181.483 94.9252Z" fill="#FD9B7E"/>
<path d="M158.982 81.1944C159.277 79.1385 158.402 77.0997 156.725 75.8787C152.566 72.8529 146.995 71.1393 144.235 76.6394C139.112 86.8486 148.421 100.53 156.474 98.7275L158.982 81.1944Z" fill="#FBB990"/>
<path d="M160.671 98.0575C160.515 98.202 160.361 98.3408 160.203 98.4683C159.741 98.8505 159.269 99.1757 158.788 99.4458C157.905 99.946 157.012 100.271 156.156 100.479C156.074 99.9403 156 99.3945 155.939 98.8353C156.551 98.6889 157.181 98.4759 157.803 98.1621C158.307 97.9243 158.811 97.6219 159.29 97.2473C159.48 97.097 159.674 96.9335 159.855 96.7642C160.155 96.4713 160.585 96.536 160.81 96.9011C161.034 97.2587 160.979 97.7836 160.671 98.0575Z" fill="#FB9476"/>
<path d="M152.877 91.6305C152.455 91.5677 152.134 91.1969 152.145 90.7594C152.312 83.8671 147.94 80.1871 147.896 80.1509C147.531 79.8485 147.476 79.3084 147.777 78.9413C148.077 78.5724 148.617 78.5172 148.986 78.8177C149.192 78.987 154.055 83.0341 153.866 90.7994C153.855 91.2748 153.459 91.6514 152.986 91.6381C152.948 91.6381 152.913 91.6343 152.877 91.6305Z" fill="#FB9476"/>
<path d="M147.383 86.8023C147.185 86.7719 146.998 86.6749 146.86 86.5132C146.55 86.1538 146.588 85.6137 146.947 85.3018C147.048 85.2143 149.465 83.1546 152.179 83.8735C152.637 83.9952 152.911 84.4668 152.79 84.9271C152.666 85.3854 152.192 85.6555 151.736 85.5376C149.91 85.0545 148.09 86.5893 148.071 86.6045C147.873 86.7738 147.62 86.8385 147.383 86.8023Z" fill="#FB9476"/>
<path d="M197.964 97.925H197.97H197.964ZM193.645 102.269C193.297 102.217 192.989 101.955 192.919 101.55C192.852 101.17 193.075 100.797 193.425 100.629C195.542 99.6252 197.582 98.3339 197.938 97.788C197.645 96.219 196.483 89.9847 196.059 87.7025C195.971 87.2347 196.279 86.7896 196.747 86.7021C197.213 86.6147 197.662 86.9209 197.75 87.3868C198.189 89.7451 199.412 96.3084 199.655 97.6073C199.741 98.0562 199.996 99.4198 194.14 102.195C193.98 102.271 193.807 102.293 193.645 102.269Z" fill="#FB9476"/>
<path d="M182.719 85.5051C182.371 87.9414 180.993 89.7595 179.635 89.5693C178.273 89.3773 177.449 87.2415 177.796 84.8033C177.933 83.8448 178.229 82.9832 178.621 82.3005C176.17 82.057 175.584 80.4253 175.584 80.4253C177.124 80.8703 179.275 80.8323 180.298 80.7828C180.662 80.76 180.884 80.741 180.884 80.741C182.242 80.9331 183.068 83.0631 182.719 85.5051Z" fill="#181818"/>
<path d="M180.89 80.7412C180.89 80.7412 180.667 80.7603 180.303 80.7812C180.496 80.7298 180.692 80.7107 180.89 80.7412Z" fill="#181818"/>
<path d="M216.683 84.8326C216.19 83.8152 215.543 82.8015 214.845 81.8886C214.142 80.97 213.351 80.1351 212.504 79.401C211.664 78.6554 210.739 78.0449 209.783 77.5562C208.839 77.0351 207.809 76.7498 206.814 76.493L206.711 76.4683C205.629 76.1906 204.979 75.0876 205.256 74.0073C205.532 72.9252 206.635 72.2728 207.715 72.5505C207.841 72.5828 207.968 72.6304 208.081 72.6836C209.338 73.2808 210.557 73.937 211.597 74.8118C212.651 75.6562 213.592 76.6091 214.38 77.6532C215.176 78.6878 215.853 79.7851 216.413 80.9282C216.97 82.0788 217.421 83.2332 217.74 84.4903C217.816 84.7889 217.637 85.0913 217.339 85.1674C217.078 85.2339 216.814 85.1046 216.702 84.8707L216.683 84.8326Z" fill="#111111"/>
<path d="M170.332 77.4539C171.197 76.269 172.159 75.2401 173.23 74.2664C174.299 73.3002 175.472 72.4311 176.743 71.6799C178.004 70.9153 179.388 70.3124 180.841 69.8712C182.294 69.3881 183.839 69.2113 185.396 69.1105C186.509 69.0382 187.469 69.8826 187.541 70.9952C187.612 72.1078 186.769 73.0682 185.657 73.1405C185.546 73.1481 185.436 73.1443 185.33 73.1348L185.2 73.1215C184.01 72.9978 182.775 72.897 181.543 73.0853C180.309 73.2299 179.063 73.5208 177.859 73.9887C176.651 74.4413 175.469 75.0233 174.343 75.727C173.228 76.4288 172.133 77.2561 171.195 78.1556L171.165 78.1842C170.944 78.3972 170.592 78.3877 170.379 78.1671C170.189 77.9693 170.176 77.6669 170.332 77.4539Z" fill="#111111"/>
<path d="M169.355 55.183C169.355 55.183 185.311 76.961 222.591 75.896C242.648 75.3236 225.229 44.0039 195.332 42.2428C165.433 40.4836 169.355 55.183 169.355 55.183Z" fill="#002014"/>
<path d="M222.687 72.4875C222.687 72.4875 224.928 89.0964 221.084 97.9856C221.084 97.9856 228.292 83.1188 226.044 73.7218C223.796 64.3248 222.687 72.4875 222.687 72.4875Z" fill="#181818"/>
<path d="M179.351 55.2483C179.351 55.2483 161.582 85.539 165.93 109.991C170.274 134.441 176.62 153.907 159.095 155.732C141.75 157.541 130.245 150.729 114.715 156.87H114.711C114.549 156.936 114.39 156.999 114.224 157.068C113.817 157.235 113.452 157.336 113.115 157.381C110.426 157.727 109.911 154.217 110.919 148.226C111.278 146.107 111.824 143.684 112.53 141.008C115.801 128.618 122.53 110.891 129.838 93.8539C135.58 80.4744 141.679 67.519 146.748 57.9109C148.594 54.4115 150.306 51.3609 151.81 48.8866C167.851 22.5745 203.575 29.9936 203.575 29.9936L179.351 55.2483Z" fill="#002014"/>
<path d="M147.814 59.0621C147.65 59.3607 138.601 76.0019 129.836 93.8527C122.683 108.417 115.72 123.792 113.915 131.76C113.139 135.193 112.711 138.274 112.525 141.009C111.935 149.754 113.826 154.963 114.706 156.869C114.547 156.935 114.385 157 114.221 157.066C113.814 157.236 113.447 157.336 113.111 157.38C112.413 155.838 111.331 152.816 110.916 148.225C110.528 143.982 110.714 138.394 112.297 131.393C116.361 113.434 145.136 60.5114 146.357 58.2672C146.446 58.1017 146.585 57.9838 146.745 57.9115C146.973 57.8069 147.245 57.8069 147.481 57.9382C147.884 58.155 148.034 58.659 147.814 59.0621Z" fill="#002014"/>
<g opacity="0.399994">
<g opacity="0.399994">
<g opacity="0.399994">
<g opacity="0.399994">
<g opacity="0.399994">
<g opacity="0.399994">
<path opacity="0.399994" d="M200.44 75.9416C200.44 75.9416 181.083 70.063 175.57 91.3447C170.054 112.624 189.136 122.179 201.239 119.84C213.344 117.499 221.307 79.5513 200.44 75.9416Z" fill="#FFC29C"/>
</g>
</g>
</g>
</g>
</g>
</g>
<path d="M181.134 73.6815C173.894 73.6815 168.006 79.5715 168.006 86.8118C168.006 94.0503 173.894 99.9403 181.134 99.9403C188.374 99.9403 194.263 94.0503 194.263 86.8118C194.263 79.5715 188.374 73.6815 181.134 73.6815ZM181.134 101.747C172.897 101.747 166.197 95.0469 166.197 86.8118C166.197 78.5749 172.897 71.8747 181.134 71.8747C189.371 71.8747 196.071 78.5749 196.071 86.8118C196.071 95.0469 189.371 101.747 181.134 101.747Z" fill="white"/>
<path d="M214.224 80.3919C206.984 80.3919 201.096 86.282 201.096 93.5204C201.096 100.761 206.984 106.651 214.224 106.651C221.465 106.651 227.353 100.761 227.353 93.5204C227.353 86.282 221.465 80.3919 214.224 80.3919ZM214.224 108.458C205.987 108.458 199.287 101.757 199.287 93.5204C199.287 85.2854 205.987 78.5852 214.224 78.5852C222.461 78.5852 229.161 85.2854 229.161 93.5204C229.161 101.757 222.461 108.458 214.224 108.458Z" fill="white"/>
<path d="M200.139 89.6421C198.547 87.1887 195.614 88.2271 195.489 88.2728L194.869 86.5763C196.388 86.021 199.76 85.7414 201.655 88.6569L200.139 89.6421Z" fill="white"/>
<path d="M223.891 432.712C219.713 435.711 214.019 444.673 204.129 447.818C147.95 465.694 95.5241 431 95.5241 431C92.4108 415.614 94.3374 398.133 99.5199 391.733C97.89 389.46 98.9684 386.742 98.9684 386.742L74.2291 340.879C74.8282 341.256 113.036 365.409 141.349 382.52H141.361C149.52 387.448 156.855 391.792 162.23 394.81C170.432 399.415 180.902 399.865 191.16 398.452C211.155 395.689 230.337 385.837 230.337 385.837C230.337 385.837 278.178 357.627 290.252 358.601C299.64 359.354 265.671 411.118 223.891 432.712Z" fill="#108E59"/>
<path d="M118.08 479.116C118.08 479.116 115.056 479.683 110.142 480.691C108.742 480.978 107.19 481.296 105.515 481.651C103.29 482.121 100.844 482.646 98.2345 483.226C96.7473 483.555 95.2068 483.901 93.6225 484.261C73.927 488.747 47.8469 495.571 37.3449 502.243C36.6089 502.71 35.8938 503.174 35.2072 503.64C19.2051 514.399 15.932 523.69 12.9632 521.805C9.86512 519.842 9.17094 511.786 14.2261 506.489C17.7255 502.819 20.175 497.465 24.8745 491.678C26.1449 490.113 27.5789 488.515 29.2431 486.91C36.5937 479.827 48.3566 472.507 54.9256 466.88C55.3497 466.518 55.751 466.161 56.1295 465.813C61.5364 460.826 63.6456 450.564 73.5124 447.445C78.3336 445.923 84.1114 446.516 89.6857 447.987C90.6766 448.247 91.6617 448.538 92.6298 448.846C94.0809 449.31 95.4997 449.82 96.8671 450.347C98.7556 451.087 100.547 451.864 102.181 452.627C103.746 453.357 105.172 454.073 106.401 454.715C109.366 456.269 111.199 457.424 111.199 457.424L118.08 479.116Z" fill="white"/>
<path d="M89.6801 447.987C83.8491 455.619 70.4201 470.208 54.92 466.881C55.3442 466.518 55.7454 466.162 56.1239 465.813C61.5309 460.826 63.6419 450.564 73.5068 447.444C78.328 445.923 84.1058 446.518 89.6801 447.987Z" fill="#80D7B2"/>
<path d="M35.2063 503.639C19.2041 514.398 15.9311 523.689 12.9642 521.806C9.86417 519.843 9.17189 511.785 14.2251 506.488C17.7264 502.818 20.176 497.466 24.8736 491.679C28.8332 494.488 33.0439 498.47 35.2063 503.639Z" fill="#80D7B2"/>
<path d="M110.137 480.691C108.737 480.976 107.187 481.296 105.51 481.651C102.596 476.33 101.134 469.841 101.223 462.439C101.269 458.698 101.699 455.299 102.176 452.627C103.743 453.358 105.168 454.073 106.396 454.715C106.048 456.965 105.769 459.643 105.736 462.528C105.67 468.361 106.63 475.041 110.137 480.691Z" fill="#80D7B2"/>
<path d="M96.8633 450.347C95.4959 449.82 94.0771 449.31 92.626 448.846C91.6846 451.579 90.3362 456.184 89.7276 461.598C88.7405 470.373 90.0794 478.079 93.6188 484.26C95.203 483.901 96.7435 483.555 98.2308 483.226C90.7451 471.76 94.8626 456.222 96.8633 450.347Z" fill="#80D7B2"/>
<path d="M354.234 395.855C333.144 421.611 285.725 447.958 235.01 463.245C217.401 468.553 202.283 472.537 189.381 475.523C179.222 477.879 170.431 479.61 162.887 480.875C133.758 485.761 123.052 483.726 123.052 483.726C123.052 483.726 105.078 477.946 112.784 448.749C112.784 448.749 146.858 440.917 173.259 427.867C178.642 425.208 183.708 422.328 188.099 419.253C189.128 418.532 190.152 417.8 191.163 417.056C215.701 399.082 236.682 374.668 291.978 352.599C291.978 352.599 320.9 335.035 344.148 342.911C347.615 344.082 350.898 345.775 353.865 348.111C370.711 361.366 368.473 378.477 354.234 395.855Z" fill="#0CAD69"/>
<path d="M250.945 455.354L239.952 456.864L173.268 427.867C178.65 425.206 183.715 422.329 188.108 419.253C189.135 418.532 190.16 417.8 191.172 417.057L250.945 455.354Z" fill="#108E59"/>
<path d="M189.388 475.522C179.228 477.879 170.438 479.609 162.893 480.874C141.672 475.111 116.263 464.358 116.263 464.358L117.918 451.179L189.388 475.522Z" fill="#108E59"/>
<path d="M354.232 395.856C336.826 372.462 340.284 352.873 344.147 342.911C347.616 344.084 350.896 345.775 353.865 348.111C370.71 361.366 368.471 378.477 354.232 395.856Z" fill="#108E59"/>
<path d="M115.683 457.457C133.417 453.984 169.889 439.098 213.245 417.636C245.672 401.584 283.163 380.9 288.853 373.416C291.927 369.374 292.802 365.997 291.453 363.38C289.435 359.464 283.175 358.802 280.312 358.709C279.574 358.684 278.97 359.283 278.992 360.023C279.013 360.692 279.544 361.233 280.215 361.255C283.028 361.356 287.904 362.046 289.19 364.547C290.259 366.626 288.494 369.679 286.824 371.873C282.235 377.91 250.816 396.194 212.116 415.352C178.792 431.848 135.829 450.916 115.194 454.958L115.683 457.457Z" fill="#108E59"/>
<path d="M119.514 445.111C120.832 460.687 124.248 474.942 132.54 486.113C132.54 486.113 124.818 491.191 118.137 487.028C113.035 483.848 103.984 459.221 108.377 446.467C112.852 444.265 116.66 443.592 119.514 445.111Z" fill="#108E59"/>
<path d="M241.635 485.405C241.635 485.405 244.615 486.166 249.453 487.495C250.83 487.871 252.359 488.294 254.008 488.756C256.197 489.37 258.603 490.055 261.168 490.804C262.631 491.23 264.147 491.675 265.702 492.137C285.063 497.904 310.641 506.42 320.683 513.761C321.389 514.279 322.071 514.788 322.727 515.298C337.99 527.08 340.65 536.563 343.733 534.879C346.955 533.124 348.172 525.129 343.477 519.513C340.223 515.621 338.129 510.119 333.819 504.035C332.653 502.392 331.328 500.703 329.772 498.993C322.9 491.443 311.642 483.372 305.455 477.326C305.055 476.938 304.677 476.555 304.323 476.181C299.255 470.852 297.819 460.475 288.178 456.715C283.468 454.882 277.663 455.095 272.005 456.198C270.997 456.394 269.995 456.618 269.01 456.864C267.53 457.233 266.083 457.647 264.683 458.085C262.751 458.699 260.914 459.359 259.232 460.011C257.621 460.639 256.153 461.259 254.885 461.822C251.825 463.176 249.919 464.207 249.919 464.207L241.635 485.405Z" fill="white"/>
<path d="M272.006 456.197C277.325 464.197 289.773 479.63 305.455 477.325C305.056 476.937 304.679 476.555 304.324 476.182C299.255 470.851 297.819 460.475 288.179 456.715C283.468 454.883 277.666 455.096 272.006 456.197Z" fill="#80D7B2"/>
<path d="M322.725 515.298C337.987 527.08 340.648 536.564 343.731 534.879C346.953 533.124 348.17 525.128 343.474 519.512C340.22 515.621 338.128 510.119 333.817 504.035C329.682 506.58 325.22 510.281 322.725 515.298Z" fill="#80D7B2"/>
<path d="M249.454 487.494C250.831 487.871 252.358 488.293 254.009 488.755C257.263 483.637 259.148 477.257 259.544 469.864C259.741 466.129 259.536 462.709 259.234 460.012C257.623 460.638 256.153 461.258 254.884 461.821C255.087 464.088 255.19 466.777 255.034 469.661C254.719 475.484 253.323 482.085 249.454 487.494Z" fill="#80D7B2"/>
<path d="M261.17 490.804C262.632 491.23 264.146 491.675 265.704 492.137C269.639 486.201 271.48 478.6 271.069 469.777C270.814 464.336 269.77 459.653 269.009 456.863C267.531 457.232 266.084 457.647 264.684 458.084C266.297 464.075 269.388 479.849 261.17 490.804Z" fill="#80D7B2"/>
<path d="M247.276 455.856C253.054 485.498 234.743 490.087 234.743 490.087C234.743 490.087 207.457 493.444 124.365 462.328C76.4576 444.389 32.2853 416.354 11.8784 390.067C-3.10623 370.767 -5.27624 352.401 13.2953 339.664C17.5745 336.729 22.3709 335.048 27.3633 334.265C50.3547 330.657 77.515 346.13 77.515 346.13C133.469 372.828 119.464 382.003 166.126 411.727C192.813 428.726 247.276 455.856 247.276 455.856Z" fill="#0CAD69"/>
<path d="M27.363 334.265C28.2531 344.287 29.7784 377.8 11.8782 390.067C-3.10648 370.767 -5.27648 352.401 13.297 339.664C17.5761 336.729 22.3707 335.048 27.363 334.265Z" fill="#108E59"/>
<path d="M243.82 464.356C226.35 459.731 190.93 442.491 149.07 418.239C117.764 400.101 81.7067 377.008 76.5185 369.169C73.7152 364.933 73.0628 361.506 74.5786 358.985C76.8494 355.207 83.1407 354.958 86.003 355.051C86.7409 355.076 87.3039 355.713 87.2335 356.447C87.1688 357.115 86.6021 357.619 85.9326 357.6C83.1179 357.516 78.2092 357.885 76.7619 360.299C75.5581 362.301 77.1214 365.462 78.6429 367.763C82.8269 374.085 112.985 394.387 150.348 416.036C182.522 434.676 224.146 456.513 244.473 461.894L243.82 464.356Z" fill="#108E59"/>
<path d="M240.8 451.786C238.464 467.245 234.124 481.242 225.119 491.847C225.119 491.847 232.492 497.419 239.43 493.703C244.729 490.866 255.372 466.883 251.825 453.869C247.502 451.378 243.747 450.459 240.8 451.786Z" fill="#108E59"/>
<path d="M324.577 333.719C318.374 341.657 309.815 346.098 303.022 350.639C286.683 361.565 253.532 368.473 256.023 330.835C258.519 293.202 286.989 308.452 266.042 242.352C257.102 214.149 250.944 156.014 250.944 156.014C250.944 156.014 297.74 188.798 325.429 269.653C327.588 275.952 329.22 281.701 330.399 286.956C335.755 310.828 331.725 324.586 324.577 333.719Z" fill="#FB4C47"/>
<path d="M324.574 333.719C314.422 315.592 322.842 297.673 330.396 286.956C335.751 310.828 331.721 324.586 324.574 333.719Z" fill="#B63A37"/>
<path d="M255.915 337.572C255.397 337.572 254.932 337.212 254.821 336.685C254.753 336.364 253.18 328.705 256.303 318.523C259.173 309.175 266.734 295.875 286.466 285.604C287.018 285.316 287.693 285.531 287.978 286.079C288.265 286.629 288.05 287.306 287.503 287.591C268.518 297.475 261.244 310.16 258.484 319.063C255.489 328.715 256.997 336.145 257.012 336.219C257.141 336.824 256.753 337.419 256.149 337.547C256.069 337.564 255.991 337.572 255.915 337.572Z" fill="#B63A37"/>
<path d="M272.917 296.561C272.765 296.576 272.605 296.559 272.451 296.508C271.862 296.31 271.546 295.675 271.746 295.089C275.378 284.275 277.706 279.646 277.803 279.454C278.083 278.902 278.756 278.682 279.309 278.963C279.861 279.243 280.082 279.916 279.802 280.468C279.777 280.513 277.44 285.173 273.87 295.802C273.724 296.234 273.343 296.519 272.917 296.561Z" fill="#B63A37"/>
<path d="M274.183 291.636C273.565 291.636 273.063 291.134 273.063 290.516C273.063 268.486 243.626 218.609 243.328 218.106C243.012 217.574 243.187 216.885 243.719 216.57C244.252 216.254 244.938 216.431 245.256 216.962C246.483 219.031 275.303 267.876 275.303 290.516C275.303 291.134 274.803 291.636 274.183 291.636Z" fill="#B63A37"/>
<path d="M253.346 235.025C253.113 235.025 252.877 234.953 252.675 234.802C248.866 231.955 239.227 229.437 239.13 229.413C238.531 229.258 238.172 228.646 238.328 228.049C238.482 227.448 239.094 227.088 239.691 227.244C240.104 227.351 249.855 229.896 254.018 233.007C254.512 233.378 254.615 234.08 254.244 234.576C254.024 234.869 253.687 235.025 253.346 235.025Z" fill="#B63A37"/>
<path d="M239.626 392.348C239.809 394.338 239.98 396.416 240.224 398.094C240.682 401.264 241.405 402.999 242.981 399.984C243.331 399.305 243.615 398.438 243.847 397.441C245.205 391.626 244.758 381.39 245.385 379.159C246.095 376.624 249.052 369.414 249.311 369.007C249.177 369.307 247.844 373.716 247.69 376.436C247.544 378.986 247.69 382.086 247.69 388.366C247.69 391.104 247.791 393.936 248.137 395.996V396.002C248.582 398.664 249.442 400.02 251.037 398.174C251.823 397.265 252.325 395.669 252.652 393.78C253.512 388.875 253.204 381.949 253.656 379.682C254.265 376.643 256.732 371.732 256.889 371.424C255.954 374.551 255.954 374.243 255.435 378.351C255.067 381.221 254.398 388.856 255.107 392.278C255.408 393.754 255.973 394.45 256.927 393.642C258.417 392.381 259.451 390.532 260.182 388.417C261.003 386.044 261.437 383.33 261.713 380.73C262.234 375.808 264.225 372.774 264.225 372.774C263.12 378.105 262.515 383.261 262.842 385.924C263.069 387.807 263.759 388.442 265.06 387.01C267.597 384.222 270.159 375.003 271.045 371.536C271.075 371.43 271.1 371.323 271.125 371.223C271.157 371.116 271.176 371.023 271.203 370.933C271.321 370.469 271.383 370.205 271.383 370.205L271.389 370.199C272.125 367.31 272.789 364.422 273.763 361.835C275.208 357.991 277.355 354.808 281.488 353.277C290.864 349.791 287.985 331.959 274.843 330.888C271.014 330.576 267.224 331.845 264.219 334.237C262.306 335.761 259.607 337.889 256.876 339.975L256.87 339.981C256.608 340.316 248.061 350.901 245.385 357.495C242.667 364.189 240.362 374.764 239.839 377.797C239.313 380.831 239.107 386.589 239.626 392.348Z" fill="#FAB893"/>
<path d="M33.0451 342.514C39.2872 350.653 47.8982 355.208 54.7335 359.865C71.1729 371.069 104.528 378.15 102.022 339.556C99.511 300.967 70.8668 316.606 91.9428 248.824C100.937 219.905 102.022 162.272 102.022 162.272C102.022 162.272 60.0494 193.908 32.1878 276.82C30.0159 283.277 28.3741 289.172 27.1896 294.563C21.801 319.042 25.8558 333.149 33.0451 342.514Z" fill="#FB4C47"/>
<path d="M33.3041 344.099C43.4562 325.97 35.0367 308.053 27.4845 297.336C22.1289 321.208 26.1589 334.966 33.3041 344.099Z" fill="#B63A37"/>
<path d="M101.963 347.952C102.48 347.952 102.946 347.592 103.057 347.065C103.125 346.744 104.698 339.085 101.573 328.903C98.7051 319.555 91.1434 306.256 71.4098 295.982C70.8602 295.696 70.185 295.911 69.8978 296.459C69.6125 297.007 69.8256 297.684 70.3752 297.971C89.3594 307.853 96.634 320.54 99.3955 329.443C102.387 339.093 100.881 346.525 100.866 346.599C100.738 347.204 101.124 347.798 101.729 347.927C101.807 347.944 101.885 347.952 101.963 347.952Z" fill="#B63A37"/>
<path d="M84.9646 306.94C85.1187 306.956 85.2765 306.939 85.4325 306.887C86.0182 306.689 86.3339 306.054 86.1381 305.468C82.5036 294.655 80.1758 290.025 80.0788 289.833C79.7992 289.282 79.1259 289.061 78.5725 289.343C78.021 289.622 77.8003 290.295 78.0799 290.849C78.1027 290.893 80.442 295.552 84.0137 306.182C84.1582 306.613 84.5386 306.899 84.9646 306.94Z" fill="#B63A37"/>
<path d="M83.6961 302.015C84.3161 302.015 84.8163 301.513 84.8163 300.895C84.8163 278.866 114.255 228.988 114.552 228.486C114.869 227.953 114.692 227.265 114.16 226.949C113.629 226.633 112.941 226.81 112.625 227.343C111.397 229.41 82.5759 278.255 82.5759 300.895C82.5759 301.513 83.078 302.015 83.6961 302.015Z" fill="#B63A37"/>
<path d="M104.534 245.405C104.768 245.405 105.002 245.333 105.203 245.181C109.013 242.334 118.651 239.818 118.748 239.793C119.347 239.639 119.709 239.026 119.553 238.427C119.397 237.828 118.784 237.469 118.187 237.623C117.774 237.729 108.024 240.276 103.86 243.387C103.366 243.756 103.265 244.46 103.634 244.956C103.855 245.249 104.191 245.405 104.534 245.405Z" fill="#B63A37"/>
<path d="M118.254 402.727C118.071 404.718 117.902 406.797 117.659 408.472C117.198 411.642 116.476 413.379 114.901 410.364C114.549 409.684 114.266 408.818 114.034 407.82C112.678 402.004 113.123 391.768 112.495 389.539C111.786 387.002 108.828 379.794 108.572 379.387C108.703 379.688 110.036 384.096 110.19 386.816C110.336 389.364 110.19 392.466 110.19 398.746C110.19 401.485 110.091 404.317 109.745 406.376V406.382C109.3 409.045 108.438 410.401 106.843 408.554C106.059 407.645 105.557 406.049 105.23 404.159C104.37 399.254 104.677 392.327 104.226 390.06C103.615 387.021 101.149 382.111 100.991 381.804C101.926 384.931 101.926 384.623 102.448 388.731C102.813 391.599 103.484 399.235 102.775 402.658C102.474 404.134 101.907 404.83 100.953 404.022C99.4655 402.759 98.429 400.912 97.7005 398.797C96.877 396.424 96.4453 393.71 96.1677 391.11C95.6466 386.186 93.6572 383.153 93.6572 383.153C94.7622 388.486 95.3651 393.641 95.038 396.302C94.8116 398.187 94.1213 398.82 92.8204 397.388C90.2833 394.602 87.7216 385.382 86.8372 381.917C86.8049 381.81 86.7801 381.702 86.7554 381.603C86.7231 381.494 86.706 381.401 86.6793 381.314C86.5614 380.85 86.4987 380.585 86.4987 380.585L86.4911 380.578C85.7569 377.691 85.0913 374.802 84.1175 372.215C82.674 368.372 80.5269 365.188 76.3941 363.655C67.0161 360.171 69.8955 342.339 83.0373 341.266C86.8676 340.955 90.658 342.223 93.6629 344.616C95.5762 346.141 98.273 348.269 101.004 350.355L101.01 350.361C101.274 350.694 109.821 361.281 112.495 367.875C115.215 374.57 117.52 385.144 118.041 388.177C118.568 391.209 118.775 396.97 118.254 402.727Z" fill="#FAB893"/>
</svg>
