<svg width="882" height="812" viewBox="0 0 882 812" fill="none" xmlns="http://www.w3.org/2000/svg">
<g opacity="0.699997">
<g opacity="0.699997">
<path d="M323.084 524.238V690.898C323.084 678.92 332.42 694.329 343.935 694.329H509.7C518.091 694.329 525.319 686.159 528.627 686.353V690.898C528.627 688.619 528.964 687.336 529.584 686.745C530.211 687.336 530.551 688.619 530.551 690.898V686.351C533.836 686.189 540.985 694.329 549.282 694.329H713.481C724.889 694.329 734.136 678.92 734.136 690.898V424.073C734.136 421.404 734.105 418.906 734.053 416.514L323.084 524.238Z" fill="#DCB21D"/>
</g>
</g>
<path d="M341.511 648.111C341.511 665.026 331.841 678.737 319.913 678.737H272.396C260.467 678.737 250.796 665.026 250.796 648.111V537.856C250.796 520.941 260.467 507.229 272.396 507.229H319.913C331.841 507.229 341.511 520.941 341.511 537.856V648.111Z" fill="#EBAFB2"/>
<path d="M361.267 660.326C361.267 678.723 347.237 693.637 329.929 693.637H260.986C243.678 693.637 229.647 678.723 229.647 660.326V540.408C229.647 522.01 243.678 507.097 260.986 507.097H329.929C347.237 507.097 361.267 522.01 361.267 540.408V660.326Z" fill="#CAA41E"/>
<path d="M845.102 660.611C845.102 679.066 831.266 694.026 814.198 694.026H746.209C729.141 694.026 715.305 679.066 715.305 660.611V540.318C715.305 521.863 729.141 506.903 746.209 506.903H814.198C831.266 506.903 845.102 521.863 845.102 540.318V660.611Z" fill="#CAA41E"/>
<g opacity="0.67">
<path d="M209.055 365.954L190.92 371.999L208.718 360.812C208.573 359.105 208.393 357.384 208.176 355.65L198.6 357.492L207.663 351.882C205.59 338.514 200.975 321.736 194.643 304.611L159.345 318.235L193.076 300.45C184.219 277.441 172.385 254.264 159.542 238.28L140.57 251.671L155.697 233.742C144.01 220.744 131.668 214.127 120.088 219.242C106.019 225.459 101.987 255.602 106.319 291.95L115.821 291.781L106.53 293.64C108.529 309.547 112.109 326.572 117.133 343.267L153.371 331.036L118.772 348.549C126.425 372.41 137.029 395.244 150.176 412.742L164.464 398.455L152.856 416.19C163.926 429.947 176.684 439.921 190.92 443.684C190.92 443.684 211.064 409.831 209.055 365.954Z" fill="#03673D"/>
<path d="M192.996 443.684C192.996 443.684 213.14 409.831 211.131 365.954L192.996 371.999L210.794 360.812C210.648 359.105 210.469 357.384 210.252 355.65L200.676 357.492L209.739 351.882C207.666 338.514 203.051 321.736 196.719 304.613L161.421 318.235L195.152 300.452C186.295 277.441 174.46 254.264 161.618 238.28L142.645 251.673L157.773 233.742C146.086 220.744 133.744 214.127 122.164 219.242C122.164 219.242 174.839 344.815 191.972 443.385C192.314 443.481 192.653 443.593 192.996 443.684Z" fill="#04AD66"/>
<path d="M181.668 471.274L168.248 474.406L180.504 467.766C179.243 464.165 177.738 460.409 175.928 456.484C172.201 448.411 166.869 439.174 160.692 430.242L148.619 439.416L157.124 425.243C138.399 399.862 113.785 379.341 101.684 399.308C96.7099 407.513 96.3817 420.576 99.8164 435.261L127.284 434.297L100.803 439.151C103.545 449.172 107.947 459.79 113.749 470.042L123.019 465.872L115.032 472.261C121.146 482.642 128.694 492.561 137.398 500.998L156.299 480.381L140.011 503.455C151.46 513.883 164.759 521.709 179.342 524.756C179.342 524.756 192.614 506.14 181.668 471.274Z" fill="#10794D"/>
<path d="M178.26 524.506C178.622 524.588 178.981 524.68 179.345 524.755C179.345 524.755 192.618 506.139 181.671 471.275L168.25 474.406L180.507 467.766C179.246 464.165 177.741 460.409 175.93 456.485C172.205 448.412 166.872 439.175 160.695 430.241L148.622 439.417L157.126 425.244C139.477 401.317 116.597 381.727 103.893 396.28C114.068 410.001 156.941 469.438 178.26 524.506Z" fill="#04AD66"/>
<path d="M140.343 509.605C132.851 502.528 119.483 493.84 103.964 485.854C97.2336 495.798 89.7205 507.028 88.4275 509.488C88.2429 509.927 88.1741 510.078 88.2576 509.852C88.2869 509.768 88.346 509.644 88.4275 509.488C89.5157 506.909 94.7831 493.924 99.0504 483.387C89.7404 478.818 79.8291 474.574 70.0519 471.112L64.7303 496.361L67.182 470.117C36.6919 459.774 8.26335 457.54 4.64257 477.567C3.64176 483.102 5.58261 489.252 9.74223 495.689C21.4286 495.005 38.3339 493.908 38.3339 493.908L13.6875 501.07C22.7267 512.208 37.5762 523.914 54.794 534.611L69.585 505.904L57.4948 536.264C75.6299 547.266 96.1025 557.081 115.034 563.944C116.64 556.864 117.814 551.734 117.814 551.734L118.053 565.015C121.697 566.288 125.273 567.442 128.756 568.471L130.322 562.348L131.349 569.216C148.69 574.079 163.435 575.595 171.883 572.069C171.883 572.069 178.601 545.745 140.343 509.605Z" fill="#007248"/>
<path d="M245.356 320.595C263.626 275.59 288.616 266.195 298.828 267.123C315.762 264.896 316.652 294.416 314.98 309.455H289.358L314.98 314.468C314.534 338.531 308.11 364.227 304.954 374.067L273.205 367.94L304.954 378.523C296.933 408.824 284.902 436.823 279.889 447.034L247.583 431.995L278.218 450.376L274.319 457.06L265.407 455.389L273.205 459.288C259.392 487.361 233.658 498.835 222.518 501.063C213.161 489.923 210.45 468.572 210.264 459.288L226.974 455.389H210.264C208.482 439.348 213.977 411.572 216.948 399.689L229.759 405.259L217.505 396.904L219.176 391.334L246.469 399.689L221.404 384.093C224.078 368.497 237 337.862 243.127 324.494L260.394 326.722L245.356 320.595Z" fill="#096B42"/>
<path d="M273.474 460.233C259.372 488.021 233.726 499.807 222.666 502.227C239.256 387.754 283.152 297.958 303.025 267.37C316.712 269.859 317.024 297.094 315.468 310.401L290.064 309.364L315.468 314.03C313.809 341.404 308.556 365.875 306.136 374.689L271.919 367.43L304.581 378.318C296.7 412.328 284.707 438.458 279.695 447.271L248.07 431.718L278.658 450.382L274.511 457.64L265.697 455.567L273.474 460.233Z" fill="#0EA867"/>
<path fill-rule="evenodd" clip-rule="evenodd" d="M205.606 662.193C205.606 662.195 205.606 662.196 204.941 662.151L205.606 662.196C205.583 662.547 205.291 662.819 204.939 662.818C204.587 662.817 204.297 662.542 204.276 662.191C201.708 619.115 184.724 586.149 162.662 561.094C140.941 537.505 115.316 520.137 90.0273 507.374C90.0556 507.328 90.0846 507.281 90.1142 507.234C73.3421 498.894 58.9325 493.651 50.6014 490.62L50.6003 490.619C48.6941 489.926 47.1062 489.348 45.8811 488.875C30.7491 483.856 16.8397 480.367 5.33 477.964C5.34318 477.86 5.35298 477.755 5.36279 477.65C5.37861 477.48 5.39445 477.31 5.42451 477.143C9.01269 457.832 37.3095 460.012 67.6635 470.014L65.3036 494.74C65.3252 494.748 65.3468 494.757 65.3685 494.766L70.5208 470.975C80.255 474.324 90.1234 478.426 99.3955 482.839C95.9493 491.096 91.8525 500.901 89.8592 505.621C90.1824 505.781 90.5064 505.941 90.8314 506.103C93.6641 501.697 99.5563 493.091 104.953 485.282C120.6 493.168 134.078 501.744 141.632 508.729C180.208 544.398 173.454 570.355 173.454 570.355C173.08 570.508 172.689 570.649 172.287 570.779C188.626 592.429 201.004 619.249 204.762 652.325C204.997 646.493 205.255 638.212 205.376 627.913C205.628 606.413 205.284 576.12 202.901 540.953C198.132 470.609 185.203 380.811 152.582 302.882C152.44 302.543 152.6 302.152 152.94 302.01C153.279 301.868 153.67 302.028 153.812 302.367C186.515 380.492 199.458 470.457 204.231 540.863C206.617 576.071 206.962 606.4 206.709 627.928C206.583 638.692 206.307 647.257 206.063 653.131C205.941 656.069 205.827 658.333 205.743 659.865C205.701 660.63 205.667 661.212 205.643 661.604C205.636 661.735 205.629 661.844 205.623 661.932L205.616 662.046L205.609 662.158L205.607 662.186L205.606 662.193Z" fill="#128E5A"/>
<path d="M131.549 435.15C131.549 435.15 204.94 537.556 204.94 662.151C216.035 444.538 272.437 325.955 272.437 325.955" stroke="#014D2D" stroke-miterlimit="10" stroke-linecap="round" stroke-linejoin="round"/>
<path d="M228.91 627.692H170.044C170.044 627.692 154.195 753.176 205.137 767.741C256.078 782.306 228.91 627.692 228.91 627.692Z" fill="#F52D29"/>
<path d="M239.259 627.692H184.067C184.067 627.692 171.579 753.176 211.716 767.741C275.55 774.931 239.259 627.692 239.259 627.692Z" fill="#F80700"/>
</g>
<g opacity="0.76">
<path d="M251.782 40.1785H232.743V115.1H251.782V40.1785Z" fill="#FF1F55"/>
<path d="M274.347 40.1785H255.309V115.1H274.347V40.1785Z" fill="#FFC702"/>
<path d="M288.418 41.5193L272.292 51.6431L312.17 115.101L328.297 104.978L288.418 41.5193Z" fill="#3D99EE"/>
<path d="M436.976 131.616H231.524C227.142 131.616 222.939 129.876 219.84 126.778C216.741 123.681 215 119.48 215 115.1H453.498C453.498 119.48 451.758 123.68 448.659 126.778C445.561 129.875 441.358 131.615 436.976 131.616Z" fill="#6F2A1A"/>
<path d="M440.884 42.9529H349.925V115.099H440.884V42.9529Z" fill="#BDD8F5"/>
<path d="M434.804 50.0396H356.012V107.998H434.804V50.0396Z" fill="#FB4C47"/>
<path d="M395.407 97.6165C405.679 97.6165 414.006 89.2934 414.006 79.0263C414.006 68.7592 405.679 60.436 395.407 60.436C385.134 60.436 376.807 68.7592 376.807 79.0263C376.807 89.2934 385.134 97.6165 395.407 97.6165Z" fill="#FFC700"/>
<path d="M417.856 107.998H356.012V80.2463C366.688 79.8422 382.457 81.14 397.356 89.7005C405.385 94.3123 412.367 100.544 417.856 107.998Z" fill="#1DB776"/>
<path d="M434.801 69.8809V107.999H385.217C388.394 101.367 392.478 95.2086 397.353 89.7012C405.817 80.1872 417.893 71.9911 434.801 69.8809Z" fill="#11915B"/>
<path d="M263.235 145.954H248.409L250.457 115.099H261.187L263.235 145.954Z" fill="#592A3C"/>
<path d="M420.094 145.954H405.268L407.316 115.099H418.046L420.094 145.954Z" fill="#592A3C"/>
<path d="M731.914 98.9117H520.482V0.000244141H731.914V98.9117ZM529.548 89.8525H722.85V9.06189H529.545L529.548 89.8525Z" fill="#925C50"/>
<path d="M722.85 9.06201H529.546V89.8526H722.85V9.06201Z" fill="white"/>
<path d="M572.531 68.8182C588.82 65.0038 598.931 48.7135 595.114 32.4327C591.298 16.152 574.999 6.04606 558.71 9.86048C542.421 13.6749 532.31 29.9652 536.127 46.246C539.943 62.5267 556.242 72.6327 572.531 68.8182Z" fill="#FFC700"/>
<path d="M529.546 64.3461L587.01 38.697C591.588 36.6531 596.637 35.8977 601.614 36.512C606.59 37.1264 611.303 39.0873 615.246 42.1831L675.975 89.8518H529.548L529.546 64.3461Z" fill="#11915B"/>
<path d="M629.877 53.6689L673.161 39.3659C677.79 37.8363 682.742 37.5623 687.511 38.5718C692.28 39.5812 696.696 41.838 700.306 45.1115L722.849 65.5485V89.8575H675.973L629.877 53.6689Z" fill="#1DB776"/>
</g>
<path d="M778.349 286.798V698.903" stroke="#925D51" stroke-width="5.81" stroke-miterlimit="10"/>
<path d="M697.958 285.333C697.958 285.333 768.096 315.068 858.015 281.834L809.456 171.64L737.527 169.89L697.958 285.333Z" fill="#AC6352"/>
<path d="M828.493 214.839C800.232 246.847 754.334 260.325 706.173 261.365L697.958 285.333C697.958 285.333 768.096 315.068 858.017 281.834L828.493 214.839Z" fill="#984B39"/>
<rect x="154.703" y="762.272" width="726.385" height="16.939" rx="8.46951" fill="#925D51"/>
<path fill-rule="evenodd" clip-rule="evenodd" d="M518.526 393.656C517.719 393.53 516.899 393.469 516.069 393.469H331.466H331.306C318.555 393.468 308.245 393.468 308.245 440.304V691.357C308.245 685.047 311.505 686.815 316.626 689.594C320.65 691.777 325.823 694.584 331.466 694.584H516.069C517.838 694.584 519.561 694.308 521.216 693.862H702.076C709.921 693.862 717.112 691.064 722.706 688.887C729.824 686.117 734.355 684.353 734.355 690.644V440.35C734.355 393.654 720.023 393.655 702.298 393.656H702.076H518.526Z" fill="#F5C827"/>
<path d="M280.78 801.411C280.78 807.258 276.964 812 272.259 812C267.551 812 263.735 807.258 263.735 801.411V764.827C263.735 758.98 267.551 754.239 272.259 754.239C276.964 754.239 280.78 758.98 280.78 764.827V801.411Z" fill="#925D51"/>
<path d="M810.095 799.517C810.095 805.364 806.28 810.106 801.572 810.106C796.867 810.106 793.051 805.364 793.051 799.517V762.933C793.051 757.086 796.867 752.345 801.572 752.345C806.28 752.345 810.095 757.086 810.095 762.933V799.517Z" fill="#925D51"/>
<path d="M824.358 507.097H800.461C788.463 507.097 778.737 520.816 778.737 537.739V690.946H293.205V537.739C293.205 520.816 283.479 507.097 271.481 507.097H247.586C235.588 507.097 225.862 520.816 225.862 537.739V747.632C225.862 756.489 228.542 764.444 232.801 770.039C236.766 776.034 242.401 779.805 248.673 779.805L824.358 778.274C836.356 778.274 846.082 764.555 846.082 747.632V537.739C846.082 520.816 836.356 507.097 824.358 507.097Z" fill="#F5C827"/>
<path d="M416.952 523.195H328.537C325.173 523.195 322.446 526.376 322.446 530.3V633.451C322.446 637.376 325.173 640.557 328.537 640.557H416.952C420.316 640.557 423.042 637.376 423.042 633.451V530.3C423.042 526.376 420.316 523.195 416.952 523.195Z" fill="white"/>
<path d="M759.098 534.406L678.695 520.374C675.636 519.84 672.608 522.547 671.931 526.421L654.141 628.247C653.465 632.121 655.396 635.694 658.454 636.228L738.858 650.261C741.916 650.795 744.945 648.087 745.622 644.213L763.411 542.387C764.088 538.513 762.157 534.94 759.098 534.406Z" fill="white"/>
<path fill-rule="evenodd" clip-rule="evenodd" d="M749.963 714.351C766.288 714.351 779.522 699.584 779.522 681.366V651.681C779.522 633.463 766.288 618.696 749.963 618.696H521.667C520.027 618.045 518.311 617.699 516.544 617.699H313.645C302.032 617.699 292.619 632.621 292.619 651.028V681.023C292.619 699.43 302.032 714.351 313.645 714.351H469.093C469.112 714.351 469.131 714.351 469.15 714.351H749.963Z" fill="#FFE792"/>
</svg>
