<svg width="481" height="572" viewBox="0 0 481 572" fill="none" xmlns="http://www.w3.org/2000/svg">
<path d="M349.553 554.465C216.463 593.163 105.555 555.847 66.7377 532.352L30.6926 504.71L43.1698 483.979L120.805 477.069L249.736 470.158L353.712 490.89L461.847 454.956H472.938C456.302 511.344 383.749 544.79 349.553 554.465Z" fill="#FB4C47"/>
<path d="M75.119 479.7H391.999C391.999 479.7 403.094 297.504 362.723 270.844C322.358 244.189 133.577 249.756 91.7363 272.523C49.8957 295.296 75.119 479.7 75.119 479.7Z" fill="#FB4C47"/>
<path d="M127.878 232.455C127.415 232.455 126.953 232.306 126.573 231.987C125.697 231.277 105.38 214.175 116.502 179.707C120.384 167.654 124.189 159.12 127.547 151.582C133.598 138.015 137.97 128.214 138.796 107.263C138.846 106.124 139.732 105.27 140.944 105.276C142.083 105.325 142.97 106.283 142.926 107.423C142.061 129.172 137.326 139.804 131.324 153.261C128.004 160.705 124.249 169.135 120.422 180.973C110.165 212.787 128.99 228.639 129.183 228.793C130.064 229.515 130.201 230.814 129.474 231.695C129.067 232.196 128.472 232.455 127.878 232.455Z" fill="#000C3E"/>
<path d="M240.359 26.8879C239.825 41.1927 227.794 52.348 213.489 51.8139C199.19 51.2798 188.029 39.249 188.563 24.9497C189.103 10.645 201.128 -0.515841 215.433 0.0182475C229.732 0.557844 240.893 12.5831 240.359 26.8879Z" fill="#000C3E"/>
<path d="M125.556 222.389C125.556 222.389 133.16 238.07 164.203 243.581C195.252 249.098 219.616 237.866 243.584 246.56C267.552 255.249 302.18 243.923 309.046 233.852C315.907 223.782 314.469 112.256 295.573 93.552C276.67 74.8534 177.649 59.2437 156.192 81.1248C134.735 103.011 111.945 209.829 125.556 222.389Z" fill="#000C3E"/>
<path d="M304.807 134.4C303.04 181.532 263.402 218.312 216.27 216.545C169.138 214.777 132.357 175.139 134.125 128.002C135.892 80.8697 175.53 44.0947 222.662 45.8621C269.794 47.6241 306.575 87.2678 304.807 134.4Z" fill="#000C3E"/>
<path d="M254.497 205.807C254.497 205.807 260.041 272.315 254.497 279.704C248.952 287.093 213.851 281.554 204.617 279.704C195.378 277.859 191.683 205.807 197.222 205.807C202.767 205.807 253.434 190.979 254.497 205.807Z" fill="#FFCEB0"/>
<path d="M149.738 128C149.738 128 153.251 231.663 223.332 236.139C293.419 240.61 293.348 94.5559 267.987 80.6641C242.62 66.7723 136.782 69.3767 149.738 128Z" fill="#FFCEB0"/>
<path d="M221.697 150.19C221.697 150.19 235.082 182.097 231.636 184.212C228.194 186.326 218.113 185.946 215.398 183.601C212.684 181.255 216.224 146.622 221.697 150.19Z" fill="#EE9B68"/>
<path d="M200.709 171.497C200.533 175.131 197.444 177.928 193.81 177.752C190.182 177.575 187.379 174.486 187.555 170.852C187.732 167.224 190.821 164.421 194.455 164.598C198.083 164.774 200.886 167.863 200.709 171.497Z" fill="#41294A"/>
<path d="M257.244 168.396C257.068 172.03 253.979 174.827 250.345 174.651C246.716 174.475 243.914 171.386 244.09 167.752C244.266 164.123 247.355 161.321 250.989 161.497C254.618 161.673 257.42 164.762 257.244 168.396Z" fill="#41294A"/>
<path d="M204.922 72.7162C204.922 72.7162 179.792 84.8681 175.013 107.68C170.228 130.497 172.706 188.911 146.078 186.229C146.078 186.229 94.5251 70.6239 204.922 72.7162Z" fill="#000C3E"/>
<path d="M218.167 73.2131C215.887 74.8484 244.078 74.7768 260.195 94.3179C276.316 113.853 280.143 162.687 282.632 163.59C285.126 164.498 295.081 103.084 277.407 84.6327C259.738 66.1818 231.139 63.9244 218.167 73.2131Z" fill="#000C3E"/>
<path d="M198.198 226.685C198.198 226.685 225.464 242.19 253.776 227.698C253.776 227.698 255.978 245.103 253.776 249.117C251.573 253.131 206.732 256 197.906 236.216C197.906 236.216 195.648 225.826 198.198 226.685Z" fill="#EE9B68"/>
<path d="M276.59 167.755C276.59 167.755 283.302 141.805 295.002 151.039C306.708 160.278 296.12 187.395 284.552 189.857C272.984 192.318 270.198 181.135 276.59 167.755Z" fill="#FFCEB0"/>
<path d="M166.053 163.613C166.053 163.613 161.301 137.233 148.94 145.569C136.579 153.9 145.108 181.739 156.461 185.059C167.815 188.373 171.421 177.433 166.053 163.613Z" fill="#FFCEB0"/>
<path d="M248.035 134.316C248.035 134.316 260.578 128.073 267.989 137.648C274.508 146.061 259.345 139.008 253.673 139.944C248.008 140.88 240.569 140.236 248.035 134.316Z" fill="#41294A"/>
<path d="M198.743 135.525C198.743 135.525 186.179 129.325 178.8 138.927C172.314 147.363 187.45 140.254 193.122 141.168C198.793 142.088 206.232 141.416 198.743 135.525Z" fill="#41294A"/>
<path d="M193.578 146.103C182.753 146.103 173.955 154.588 173.542 165.424C173.344 170.776 175.243 175.891 178.888 179.823C182.533 183.748 187.489 186.022 192.846 186.221L193.617 186.237C204.447 186.237 213.246 177.752 213.654 166.922C213.857 161.57 211.958 156.449 208.313 152.523C204.668 148.592 199.707 146.318 194.349 146.12L193.578 146.103ZM193.617 188.99L192.741 188.974C186.652 188.748 181.014 186.16 176.867 181.695C172.721 177.224 170.563 171.409 170.789 165.314C171.257 153.002 181.267 143.35 193.578 143.35L194.454 143.367C200.544 143.593 206.182 146.18 210.328 150.646C214.474 155.122 216.632 160.931 216.407 167.032C215.944 179.344 205.934 188.99 193.617 188.99Z" fill="#FFFCF6"/>
<path d="M250.522 142.906C239.698 142.906 230.899 151.391 230.486 162.227C230.073 173.283 238.734 182.616 249.79 183.023L250.561 183.04C261.386 183.04 270.185 174.555 270.598 163.719C270.796 158.367 268.896 153.252 265.251 149.32C261.606 145.395 256.651 143.121 251.293 142.922L250.522 142.906ZM250.561 185.793L249.686 185.776C237.11 185.308 227.265 174.692 227.733 162.117C228.201 149.805 238.211 140.153 250.522 140.153L251.398 140.169C257.488 140.395 263.126 142.983 267.272 147.448C271.418 151.919 273.576 157.734 273.351 163.829C272.883 176.141 262.873 185.793 250.561 185.793Z" fill="#FFFCF6"/>
<path d="M172.84 162.172C172.675 162.172 172.499 162.139 172.334 162.073L163.992 158.78C163.282 158.499 162.935 157.701 163.216 156.996C163.496 156.286 164.284 155.945 165 156.22L173.347 159.518C174.057 159.793 174.398 160.597 174.118 161.302C173.903 161.842 173.391 162.172 172.84 162.172Z" fill="#FFFCF6"/>
<path d="M271.183 158.53C270.588 158.53 270.032 158.139 269.861 157.528C269.652 156.801 270.076 156.041 270.808 155.832L282.404 152.512C283.147 152.308 283.902 152.727 284.105 153.459C284.315 154.191 283.891 154.951 283.158 155.16L271.557 158.475C271.436 158.514 271.304 158.53 271.183 158.53Z" fill="#FFFCF6"/>
<path d="M213.423 67.2749C213.423 67.2749 216.584 123.464 232.072 128.563C247.561 133.667 285.641 132.269 287.48 126.124C289.319 119.973 257.951 70.5179 235.442 62.5892C195.969 48.6808 161.897 112.86 166.401 128.321C170.905 143.787 204.823 130.253 212.058 128.266C219.298 126.278 211.975 78.3806 213.423 67.2749Z" fill="#000C3E"/>
<path d="M215.038 167.145C214.322 167.145 213.722 166.595 213.667 165.879C213.607 165.119 214.174 164.458 214.928 164.398L229.057 163.296C229.883 163.164 230.483 163.809 230.532 164.557C230.593 165.317 230.031 165.978 229.271 166.038L215.148 167.14C215.11 167.145 215.071 167.145 215.038 167.145Z" fill="#FFFCF6"/>
<path d="M198.274 51.851C197.95 51.851 197.63 51.7739 197.327 51.6198C189.751 47.7104 185.231 42.2594 183.898 35.4209C180.974 20.4113 194.607 4.32261 195.191 3.64536C195.94 2.7699 197.234 2.67079 198.104 3.42512C198.968 4.16844 199.067 5.46787 198.324 6.33232C198.192 6.48649 185.407 21.6007 187.956 34.639C189.035 40.1726 192.829 44.6491 199.221 47.9527C200.235 48.4758 200.631 49.7202 200.108 50.7333C199.745 51.4436 199.023 51.851 198.274 51.851Z" fill="#000C3E"/>
<path d="M228.159 56.4639C227.575 56.4639 226.986 56.2106 226.578 55.7206C225.846 54.8506 225.962 53.5512 226.837 52.8189C226.986 52.6868 242.089 39.8741 241.715 26.5935C241.56 20.9608 238.554 15.9227 232.789 11.617C231.875 10.9342 231.688 9.64029 232.371 8.72629C233.059 7.80677 234.342 7.63057 235.261 8.30782C242.089 13.4119 245.657 19.5292 245.844 26.4944C246.263 41.7792 230.168 55.4123 229.48 55.9849C229.095 56.3098 228.627 56.4639 228.159 56.4639Z" fill="#41294A"/>
<path d="M302.168 230.712C301.551 230.712 300.94 230.437 300.532 229.914C299.833 229.011 299.993 227.717 300.896 227.018C301.606 226.462 318.323 213.126 313.951 190.661C312.238 181.862 309.1 172.122 305.769 161.809C299.971 143.843 293.975 125.26 293.87 107.321C293.865 106.181 294.784 105.251 295.924 105.245H295.935C297.069 105.245 297.994 106.165 298 107.299C298.099 124.599 303.996 142.874 309.695 160.543C313.064 170.977 316.247 180.827 318.003 189.874C322.871 214.882 304.222 229.666 303.429 230.283C303.049 230.575 302.608 230.712 302.168 230.712Z" fill="#000C3E"/>
<path d="M309.051 136.534C308.969 136.534 308.886 136.528 308.798 136.517C307.669 136.379 306.866 135.35 307.003 134.215C309.789 111.53 305.467 92.9695 294.146 79.0501C275.91 56.6239 245.352 53.8323 245.043 53.8158C243.909 53.7167 243.067 52.7201 243.155 51.5803C243.254 50.4516 244.272 49.5981 245.385 49.6973C246.706 49.8019 277.959 52.6265 297.323 76.4127C309.393 91.2351 314.029 110.859 311.1 134.722C310.973 135.763 310.081 136.534 309.051 136.534Z" fill="#000C3E"/>
<path d="M225.245 216.102C222.921 216.102 220.454 216.025 218.604 215.959C217.465 215.909 216.578 214.951 216.622 213.812C216.661 212.672 217.536 211.752 218.764 211.829C223.516 212.017 229.275 212.039 230.321 211.736C231.395 211.433 232.557 212.011 232.904 213.074C233.245 214.131 232.738 215.254 231.698 215.629C230.696 215.986 228.08 216.102 225.245 216.102Z" fill="#EE9B68"/>
<path d="M158.921 178.609C158.722 178.609 158.519 178.581 158.32 178.515C157.225 178.185 156.613 177.034 156.949 175.944C160.704 163.605 151.713 155.412 151.625 155.329C150.777 154.575 150.7 153.264 151.46 152.411C152.214 151.558 153.519 151.48 154.378 152.246C154.829 152.648 165.418 162.311 160.892 177.144C160.627 178.036 159.807 178.609 158.921 178.609Z" fill="#EE9B68"/>
<path d="M281.354 184.659C281.293 184.659 281.238 184.659 281.172 184.654C280.038 184.549 279.195 183.553 279.294 182.413C280.654 166.935 288.335 158.775 288.66 158.434C289.453 157.619 290.747 157.597 291.573 158.379C292.399 159.161 292.426 160.466 291.644 161.292C291.573 161.369 284.635 168.829 283.413 182.776C283.314 183.85 282.411 184.659 281.354 184.659Z" fill="#EE9B68"/>
<path d="M161.043 276.78C161.043 276.78 207.927 332.832 244.086 317.834C280.238 302.835 314.112 262.178 295.936 256.782C277.761 251.392 132.621 254.227 161.043 276.78Z" fill="#FFCEB0"/>
<path d="M284.872 350.85C284.872 350.85 257.551 326.315 228.985 340.185C200.42 354.049 209.114 382.852 183.032 377.516C156.949 372.181 109.691 380.242 120.934 408.449C132.177 436.657 60.2571 458.725 87.5782 494.994C114.899 531.257 188.642 503.38 211.3 510.851C233.952 518.318 287.355 521.517 293.566 500.181C299.777 478.85 339.52 475.651 333.309 447.917C327.098 420.183 320.887 381.783 284.872 350.85Z" fill="white"/>
<path d="M194.621 415.381C194.621 415.381 222.515 448.875 222.443 481.113C222.399 501.639 207.291 467.045 202.104 460.041C196.923 453.043 213.276 483.194 207.858 492.846C205.209 497.57 188.322 462.695 188.322 462.695C188.322 462.695 195.491 495.461 190.921 498.644C186.357 501.832 174.574 470.321 174.574 470.321C174.574 470.321 175.124 495.918 169.695 496.238C164.272 496.557 166.221 470.249 144.444 458.857C122.662 447.465 23.4486 526.312 21.092 461.693C18.7354 397.073 47.846 374.686 115.279 386.419C168.495 395.68 176.892 401.55 194.621 415.381Z" fill="#FFC6A6"/>
<path d="M256.658 415.381C256.658 415.381 228.764 448.875 228.835 481.113C228.879 501.639 243.988 467.045 249.175 460.041C254.356 453.043 238.003 483.194 243.421 492.846C246.069 497.57 262.956 462.695 262.956 462.695C262.956 462.695 255.788 495.461 260.358 498.644C264.922 501.832 276.705 470.321 276.705 470.321C276.705 470.321 276.155 495.918 281.584 496.238C287.007 496.557 285.058 470.249 306.834 458.857C328.616 447.465 440.417 534.059 442.774 469.44C445.125 404.82 403.433 374.686 336 386.419C282.784 395.68 274.387 401.55 256.658 415.381Z" fill="#FFC6A6"/>
<path d="M287.706 471.703C287.706 471.703 288.301 415.012 319.284 415.381C350.266 415.756 364.995 443.446 335.835 459.777C306.675 476.113 286.886 482.77 287.706 471.703Z" fill="white"/>
<path d="M311.084 436.401C311.084 436.401 316.034 447.925 327.723 449.082C339.407 450.238 365.974 449.082 368.287 465.831C370.594 482.58 356.707 505.678 339.683 503.371C322.663 501.059 305.187 497.585 290.833 507.204C276.478 516.823 290.844 429.496 311.084 436.401Z" fill="white"/>
<path d="M340.564 346.58C340.564 354.234 334.358 360.439 326.705 360.439C319.046 360.439 312.841 354.234 312.841 346.58C312.841 338.927 319.046 332.722 326.705 332.722C334.358 332.722 340.564 338.927 340.564 346.58Z" fill="white"/>
<path d="M179.859 346.58C179.859 354.234 173.653 360.439 166 360.439C158.341 360.439 152.136 354.234 152.136 346.58C152.136 338.927 158.341 332.722 166 332.722C173.653 332.722 179.859 338.927 179.859 346.58Z" fill="white"/>
<path d="M223.959 202.745C213.377 202.745 204.066 195.428 203.636 195.075C202.739 194.37 202.596 193.071 203.306 192.179C204.011 191.292 205.31 191.138 206.202 191.849C206.312 191.931 216.779 200.119 226.966 198.362C231.877 197.498 236.012 194.387 239.261 189.112C239.861 188.138 241.144 187.829 242.102 188.435C243.076 189.035 243.374 190.307 242.779 191.276C238.881 197.608 233.793 201.363 227.659 202.431C226.415 202.646 225.182 202.745 223.959 202.745Z" fill="#EE9B68"/>
<path d="M140.278 261.038C140.278 261.038 101.124 316.192 99.9822 348.606C98.8403 381.019 63.7977 394.689 73.7295 441.389C77.6454 459.778 88.6471 485.839 78.0981 496.121C50.6159 522.908 24.086 503.496 19.5072 496.121C-13.597 442.766 26.4828 316.611 61.3583 288.54C87.6649 261.038 140.278 261.038 140.278 261.038Z" fill="#D9423D"/>
<path d="M322.031 258.648C322.031 258.648 365.567 314.556 366.767 346.006C367.967 377.456 404.791 390.72 394.355 436.033C390.24 453.876 371.093 480.011 391.042 489.14C414.655 499.943 452.34 492.996 457.151 485.84C504.981 430.836 441.187 319.366 404.538 292.129C372.253 265.822 322.031 258.648 322.031 258.648Z" fill="#D9423D"/>
<path d="M225.116 8.71668C224.472 8.71668 223.773 8.79145 223.016 8.94097C221.17 9.31154 219.973 10.2087 219.255 11.7657C216.053 18.6959 222.805 35.2021 227.628 44.9538C230.609 34.136 234.182 16.0532 229.133 10.355C228.162 9.25952 226.839 8.71668 225.116 8.71668ZM228.191 53.0931C227.388 53.0931 226.637 52.6608 226.24 51.9457C224.534 48.8869 209.737 21.7221 215.198 9.89338C216.512 7.04915 218.914 5.20284 222.142 4.55924C227.641 3.4638 230.801 5.49539 232.478 7.39046C241.248 17.2916 231.461 48.0808 230.317 51.5589C230.037 52.4008 229.289 52.9989 228.405 53.0834C228.334 53.0899 228.262 53.0931 228.191 53.0931Z" fill="#FFD310"/>
<path d="M255.24 19.708C255.029 19.708 254.814 19.721 254.6 19.7535C247.049 20.7579 237.924 36.7734 233.101 46.9053C243.129 42.6829 259.034 34.6183 261.146 27.285C261.621 25.6337 261.302 24.1743 260.148 22.6855C258.595 20.6864 256.986 19.708 255.24 19.708ZM228.813 53.2341C228.212 53.2341 227.624 52.9936 227.198 52.545C226.583 51.9014 226.408 50.9587 226.749 50.1396C228.16 46.7623 240.895 17.0718 254.008 15.323C256.521 14.9882 260.236 15.5148 263.675 19.942C265.697 22.5425 266.308 25.5102 265.44 28.5202C261.832 41.0381 232.867 51.9014 229.577 53.1009C229.327 53.1919 229.07 53.2341 228.813 53.2341Z" fill="#FFD310"/>
<path d="M186.861 45.3414C197.715 52.3193 222.525 57.7465 241.908 45.3414" stroke="#FFD310" stroke-width="3.87"/>
</svg>
