<svg width="567" height="690" viewBox="0 0 567 690" fill="none" xmlns="http://www.w3.org/2000/svg">
<path d="M341.019 561.411C201.972 601.841 86.1002 562.855 45.5449 538.308L7.88647 509.429L20.9221 487.77L102.033 480.551L236.734 473.331L345.364 494.99L458.339 457.448H466.5C449.119 516.36 376.746 551.303 341.019 561.411Z" fill="#FB4C47"/>
<path d="M329.5 274C329.5 274 439.5 279 466 394.5C487 543.5 388.011 490.804 364.343 483.46C340.681 476.116 256.307 285.402 329.5 274Z" fill="#D9423D"/>
<path d="M53.5721 506.307H389.565C389.565 506.307 401.329 313.122 358.523 284.854C315.723 256.591 115.556 262.494 71.1917 286.634C26.8275 310.781 53.5721 506.307 53.5721 506.307Z" fill="#FB4C47"/>
<path d="M104.961 257.758C104.581 257.758 104.196 257.659 103.846 257.449C102.818 256.848 78.8057 242.124 85 204.234C87.166 190.981 89.8048 181.43 92.1343 172.994C96.3261 157.815 99.3561 146.845 96.9099 124.747C96.7815 123.545 97.6455 122.465 98.8482 122.33C100.045 122.254 101.131 123.066 101.265 124.269C103.805 147.201 100.512 159.099 96.3553 174.162C94.055 182.481 91.4512 191.921 89.3203 204.94C83.6047 239.911 105.848 253.549 106.076 253.689C107.115 254.302 107.459 255.645 106.841 256.684C106.438 257.379 105.708 257.758 104.961 257.758Z" fill="#000C3E"/>
<path d="M190.665 24.398C192.37 39.478 181.523 53.0809 166.443 54.7857C151.363 56.4904 137.76 45.6431 136.055 30.5631C134.356 15.4831 145.198 1.88019 160.278 0.175449C175.358 -1.52346 188.961 9.31803 190.665 24.398Z" fill="#000C3E"/>
<path d="M101.259 247.547C101.259 247.547 111.709 262.778 145.139 263.648C178.562 264.512 202.33 248.878 228.835 254.196C255.334 259.515 289.85 242.158 295.448 230.511C301.053 218.869 281.88 102.164 259.106 85.549C236.331 68.9336 130.041 68.2505 111.009 94.5924C91.9765 120.934 84.9999 236.536 101.259 247.547Z" fill="#000C3E"/>
<path d="M275.258 126.912C280.869 176.607 245.133 221.444 195.439 227.054C145.744 232.665 100.907 196.929 95.2966 147.235C89.6862 97.5405 125.422 52.7033 175.116 47.0928C224.811 41.4823 269.648 77.2178 275.258 126.912Z" fill="#000C3E"/>
<path d="M233.82 209.743C233.82 209.743 250.161 278.592 245.519 287.221C240.878 295.844 203.199 295.593 193.227 295.12C183.25 294.641 167.965 219.691 173.774 218.809C179.583 217.934 230.358 194.365 233.82 209.743Z" fill="#FFCEB0"/>
<path d="M111.667 144.755C111.667 144.755 131.762 252.883 205.947 246.473C280.139 240.069 256.932 86.951 228.144 76.4073C199.356 65.8577 88.7984 85.3455 111.667 144.755Z" fill="#FFCEB0"/>
<path d="M190.625 156.626C190.625 156.626 209.71 187.959 206.435 190.721C203.159 193.482 192.528 194.679 189.311 192.653C186.094 190.621 184.32 153.748 190.625 156.626Z" fill="#EE9B68"/>
<path d="M160.769 78.0594C160.769 78.0594 136.348 94.7799 134.946 119.458C133.545 144.13 145.391 204.981 117.052 206.388C117.052 206.388 44.6942 93.3495 160.769 78.0594Z" fill="#000C3E"/>
<path d="M174.735 76.4811C172.604 78.5537 202.145 74.0174 222.141 91.9523C242.131 109.887 253.877 160.475 256.633 161.029C259.394 161.584 260.101 95.6186 238.657 79.0732C217.208 62.5279 186.867 64.688 174.735 76.4811Z" fill="#000C3E"/>
<path d="M178.1 240.549C178.1 240.549 209.142 252.488 236.535 232.813C236.535 232.813 241.596 250.713 239.921 255.267C238.251 259.826 191.692 269.932 179.303 250.59C179.303 250.59 175.292 240.052 178.1 240.549Z" fill="#EE9B68"/>
<path d="M250.957 166.35C250.957 166.35 253.882 138.082 267.613 145.911C281.35 153.74 274.537 183.853 262.803 188.261C251.062 192.674 246.374 181.389 250.957 166.35Z" fill="#FFCEB0"/>
<path d="M134.411 179.511C134.411 179.511 125.257 152.603 113.615 163.298C101.974 173.994 115.326 201.83 127.75 203.512C140.179 205.193 142.228 193.149 134.411 179.511Z" fill="#FFCEB0"/>
<path d="M215.568 137.219C215.568 137.219 226.526 127.189 236.883 134.778C245.985 141.451 228.465 138.696 222.959 141.305C217.46 143.915 209.683 145.433 215.568 137.219Z" fill="#41294A"/>
<path d="M165.018 146.832C165.018 146.832 151.981 139.704 143.737 149.541C136.486 158.193 152.845 151.339 158.812 152.559C164.778 153.785 172.689 153.406 165.018 146.832Z" fill="#41294A"/>
<path d="M163.727 156.548C162.927 156.548 162.127 156.594 161.315 156.682C149.657 158.007 141.238 168.569 142.552 180.222C143.865 191.781 154.333 200.311 166.079 198.98C171.731 198.337 176.792 195.541 180.336 191.098C183.88 186.649 185.48 181.091 184.843 175.446C183.623 164.675 174.551 156.548 163.727 156.548ZM163.668 202.033C151.361 202.033 141.034 192.797 139.656 180.548C138.155 167.296 147.73 155.287 160.983 153.786C174.469 152.216 186.256 161.971 187.739 175.119C188.469 181.541 186.647 187.864 182.619 192.914C178.591 197.97 172.834 201.151 166.412 201.875C165.49 201.98 164.573 202.033 163.668 202.033Z" fill="#FFFCF6"/>
<path d="M222.927 144.182C222.122 144.182 221.322 144.229 220.504 144.317C214.853 144.959 209.791 147.755 206.253 152.198C202.704 156.647 201.11 162.205 201.741 167.85C203.054 179.416 213.522 187.934 225.268 186.608C230.92 185.966 235.981 183.17 239.525 178.727C243.069 174.278 244.669 168.72 244.032 163.075C242.812 152.309 233.745 144.182 222.927 144.182ZM222.846 189.662C210.545 189.662 200.223 180.426 198.845 168.177C198.115 161.755 199.937 155.432 203.965 150.382C207.993 145.327 213.756 142.145 220.172 141.421C233.576 139.862 245.445 149.594 246.928 162.748C247.658 169.17 245.836 175.492 241.808 180.548C237.78 185.598 232.023 188.78 225.601 189.504C224.679 189.609 223.762 189.662 222.846 189.662Z" fill="#FFFCF6"/>
<path d="M141.078 176.941C140.967 176.941 140.862 176.929 140.751 176.9L131.48 174.769C130.698 174.594 130.207 173.806 130.388 173.024C130.569 172.236 131.369 171.728 132.134 171.932L141.405 174.063C142.187 174.238 142.678 175.026 142.497 175.809C142.345 176.486 141.743 176.941 141.078 176.941Z" fill="#FFFCF6"/>
<path d="M243.607 157.557C243.052 157.557 242.521 157.236 242.276 156.704C241.943 155.974 242.27 155.105 243 154.766L254.635 149.453C255.341 149.115 256.229 149.436 256.567 150.177C256.9 150.907 256.579 151.777 255.844 152.11L244.214 157.428C244.015 157.516 243.811 157.557 243.607 157.557Z" fill="#FFFCF6"/>
<path d="M168.821 71.0068C168.821 71.0068 181.035 129.418 198.076 132.313C215.124 135.209 254.829 127.713 255.781 120.976C256.732 114.244 216.017 67.3579 191.164 62.6056C147.576 54.2746 122.017 126.954 129.186 142.454C136.361 157.96 169.779 138.397 177.047 135.168C184.322 131.934 169.066 82.8816 168.821 71.0068Z" fill="#000C3E"/>
<path d="M186.108 175.476C185.443 175.476 184.841 175.021 184.69 174.35C184.509 173.561 184.993 172.779 185.775 172.598L200.412 169.2C201.229 168.99 201.988 169.51 202.163 170.286C202.344 171.074 201.86 171.857 201.071 172.038L186.441 175.435C186.324 175.465 186.219 175.476 186.108 175.476Z" fill="#FFFCF6"/>
<path d="M150.167 57.2585C149.933 57.2585 149.7 57.2235 149.466 57.1418C140.902 54.2402 135.303 49.2486 132.822 42.2895C127.381 27.011 139.121 7.98439 139.629 7.17873C140.271 6.15121 141.614 5.83595 142.647 6.48983C143.669 7.12618 143.979 8.48064 143.342 9.50232C143.231 9.6833 132.215 27.5598 136.949 40.8299C138.958 46.4521 143.646 50.5505 150.868 52.9967C152.012 53.382 152.631 54.6255 152.24 55.7698C151.936 56.6806 151.078 57.2585 150.167 57.2585Z" fill="#000C3E"/>
<path d="M182.231 57.3667C181.718 57.3667 181.198 57.1857 180.784 56.8179C179.879 56.0181 179.791 54.6344 180.591 53.7295C180.731 53.5719 194.532 37.7446 192.045 23.879C190.983 17.9941 187.036 13.1893 180.317 9.58712C179.248 9.01498 178.845 7.68971 179.417 6.62716C179.99 5.5471 181.332 5.17346 182.377 5.72225C190.352 9.99579 195.046 15.8456 196.354 23.1142C199.215 39.0699 184.503 55.9188 183.872 56.6311C183.44 57.1157 182.839 57.3667 182.231 57.3667Z" fill="#000C3E"/>
<path d="M287.408 228.326C286.866 228.326 286.323 228.128 285.902 227.719C285.027 226.89 284.991 225.507 285.826 224.625C286.48 223.93 301.887 207.309 293.755 184.447C290.573 175.497 285.733 165.794 280.613 155.513C271.686 137.584 262.45 119.048 259.508 100.249C259.315 99.0518 260.133 97.9309 261.329 97.7499C262.526 97.4872 263.647 98.3746 263.828 99.5714C266.665 117.705 275.75 135.932 284.536 153.557C289.715 163.961 294.607 173.78 297.882 182.976C306.937 208.436 289.726 226.873 288.991 227.649C288.564 228.099 287.986 228.326 287.408 228.326Z" fill="#000C3E"/>
<path d="M279.718 128.502C278.539 128.502 277.564 127.562 277.529 126.377C276.858 102.125 269.373 83.3437 255.28 70.5348C232.587 49.9202 200.15 51.8468 199.841 51.8818C198.498 52.0394 197.593 51.0469 197.511 49.8443C197.424 48.6416 198.34 47.5966 199.549 47.5149C200.944 47.4156 234.157 45.4306 258.228 67.3004C273.238 80.9325 281.201 100.765 281.908 126.248C281.943 127.457 280.991 128.467 279.783 128.502H279.718Z" fill="#000C3E"/>
<path d="M201.525 226.496C198.979 226.496 197.17 226.053 197.018 226.012C195.844 225.714 195.138 224.535 195.43 223.361C195.722 222.199 196.901 221.493 198.08 221.762C198.139 221.785 204.409 223.274 209.167 219.94C210.171 219.251 211.531 219.491 212.215 220.471C212.909 221.464 212.67 222.83 211.683 223.519C208.262 225.918 204.421 226.496 201.525 226.496Z" fill="#EE9B68"/>
<path d="M128.982 196.387C128.877 196.387 128.772 196.382 128.661 196.364C127.464 196.189 126.641 195.074 126.816 193.877C128.801 180.35 118.082 173.181 117.971 173.117C116.961 172.451 116.681 171.096 117.335 170.081C117.995 169.065 119.349 168.785 120.365 169.444C120.902 169.795 133.536 178.242 131.148 194.519C130.99 195.605 130.056 196.387 128.982 196.387Z" fill="#EE9B68"/>
<path d="M258.299 183.337C257.149 183.337 256.186 182.444 256.115 181.282C255.088 164.842 261.849 155.075 262.135 154.666C262.824 153.691 264.19 153.44 265.182 154.14C266.175 154.835 266.408 156.201 265.719 157.188C265.655 157.276 259.566 166.196 260.482 181.014C260.558 182.222 259.642 183.255 258.433 183.331C258.392 183.337 258.346 183.337 258.299 183.337Z" fill="#EE9B68"/>
<path d="M137.747 291.15C137.747 291.15 187.459 350.582 225.799 334.679C264.132 318.776 300.049 275.667 280.777 269.946C261.505 264.224 107.611 267.237 137.747 291.15Z" fill="#FFCEB0"/>
<path d="M175.17 177.849C175.719 181.469 173.226 184.843 169.607 185.392C165.987 185.935 162.612 183.448 162.064 179.828C161.521 176.208 164.008 172.834 167.627 172.285C171.247 171.742 174.622 174.229 175.17 177.849Z" fill="#41294A"/>
<path d="M237.334 165.895C237.883 169.514 235.39 172.889 231.77 173.438C228.15 173.981 224.776 171.493 224.227 167.874C223.684 164.254 226.171 160.88 229.791 160.331C233.411 159.788 236.785 162.275 237.334 165.895Z" fill="#41294A"/>
<path d="M185.988 218.532C185.643 218.532 185.305 218.45 184.983 218.287C183.915 217.732 183.489 216.419 184.044 215.339C184.359 214.731 191.908 200.311 204.068 198.951C210.975 198.18 217.712 201.712 224.175 209.419C224.952 210.353 224.829 211.731 223.907 212.507C222.984 213.301 221.606 213.161 220.824 212.238C215.354 205.717 209.912 202.687 204.565 203.306C194.739 204.392 188.002 217.213 187.932 217.347C187.546 218.1 186.782 218.532 185.988 218.532Z" fill="#EE9B68"/>
<g filter="url(#filter0_d)">
<circle cx="309.879" cy="442.564" r="105.44" fill="white"/>
</g>
<path d="M255.808 395.505C255.808 395.505 299.878 454.347 310.902 459.212C321.929 464.081 335.753 462.985 336.962 468.629C338.171 474.277 313.818 464.725 317.703 473.436C321.588 482.151 336.728 492.098 336.799 500.871C336.873 509.648 312.708 482.034 312.708 482.034C312.708 482.034 335.476 507.298 327.937 507.895C320.395 508.493 300.893 483.793 300.893 483.793C300.893 483.793 322.708 516.195 315.476 513.235C308.248 510.276 241.207 432.751 230.868 424.547C220.53 416.346 255.808 395.505 255.808 395.505Z" fill="#E27B5A"/>
<path d="M384.005 409.788C384.005 409.788 333.74 463.42 322.246 467.044C310.751 470.666 297.133 468.057 295.309 473.533C293.488 479.011 318.742 472.199 313.922 480.434C309.105 488.665 292.965 496.884 291.929 505.599C290.895 514.311 317.945 489.527 317.945 489.527C317.945 489.527 292.538 512.13 299.966 513.553C307.398 514.979 329.496 492.576 329.496 492.576C329.496 492.576 304.251 522.382 311.763 520.236C319.274 518.089 394.426 448.417 405.601 441.402C416.779 434.387 384.005 409.788 384.005 409.788Z" fill="#F8B38A"/>
<path d="M341.214 447.027C341.214 447.027 356.674 476.301 370.886 479.416C385.096 482.531 407.649 459.946 414.347 446.182C421.048 432.421 406.078 391.395 392.639 377.44C382.543 376.207 334.047 420.933 341.214 447.027Z" fill="#F65551"/>
<path d="M242.232 361.934C242.232 361.934 296.135 417.215 293.726 430.226C291.32 443.24 271.904 458.83 256.245 463.935C240.587 469.038 205.019 448.251 205.019 433.261C206.569 404.833 222.591 377.957 242.232 361.934Z" fill="#128E5A"/>
<path d="M61.9072 425.958C61.9072 425.958 180.768 490.914 202.988 490.648C225.206 490.376 247.565 477.983 253.905 486.516C260.242 495.056 212.087 497.654 225.26 509.293C238.426 520.929 271.422 526.033 278.243 540.687C285.057 555.339 223.433 527.52 223.433 527.52C223.433 527.52 280.927 552.467 268.73 559.228C256.529 565.996 204.949 539.496 204.949 539.496C204.949 539.496 266.293 577.142 251.901 577.704C237.508 578.267 65.8331 499.549 42.2264 493.698C18.6143 487.848 61.9072 425.958 61.9072 425.958Z" fill="#FFC6A6"/>
<path d="M153.609 422.254C153.609 422.254 155.034 477.413 142.365 498.46C112.244 548.5 30.7875 542.399 6.50068 506.5C-17.7861 470.601 35.3225 289.36 71.1922 286.633C107.062 283.907 153.609 370 153.609 422.254Z" fill="#D9423D"/>
<path d="M176.835 5.6696C176.162 5.6696 175.432 5.74771 174.641 5.90393C172.712 6.29107 171.462 7.22838 170.712 8.85508C167.367 16.0954 174.42 33.3405 179.46 43.5287C182.574 32.2266 186.306 13.3345 181.032 7.3812C180.017 6.23674 178.635 5.6696 176.835 5.6696ZM180.047 52.0323C179.209 52.0323 178.424 51.5807 178.01 50.8335C176.227 47.6379 160.768 19.2572 166.473 6.89896C167.845 3.92743 170.355 1.99848 173.727 1.32606C179.473 0.181598 182.774 2.30412 184.527 4.28401C193.689 14.6284 183.464 46.7957 182.268 50.4294C181.976 51.309 181.195 51.9339 180.272 52.0222C180.197 52.029 180.122 52.0323 180.047 52.0323Z" fill="#FFD310"/>
<path d="M208.307 17.1532C208.086 17.1532 207.862 17.1667 207.638 17.2007C199.749 18.2501 190.216 34.9824 185.177 45.5678C195.653 41.1564 212.27 32.7308 214.478 25.0693C214.973 23.3441 214.641 21.8193 213.435 20.2639C211.812 18.1754 210.131 17.1532 208.307 17.1532ZM180.697 52.1799C180.069 52.1799 179.454 51.9286 179.009 51.46C178.368 50.7876 178.184 49.8027 178.541 48.9469C180.015 45.4184 193.32 14.399 207.02 12.5719C209.645 12.2221 213.527 12.7723 217.12 17.3977C219.232 20.1145 219.871 23.2151 218.964 26.3598C215.194 39.438 184.932 50.7876 181.495 52.0407C181.234 52.1358 180.966 52.1799 180.697 52.1799Z" fill="#FFD310"/>
<path d="M136.867 43.9336C148.207 51.2238 174.128 56.8939 194.378 43.9336" stroke="#FFD310" stroke-width="4.87"/>
<defs>
<filter id="filter0_d" x="124.439" y="261.124" width="370.88" height="370.88" filterUnits="userSpaceOnUse" color-interpolation-filters="sRGB">
<feFlood flood-opacity="0" result="BackgroundImageFix"/>
<feColorMatrix in="SourceAlpha" type="matrix" values="0 0 0 0 0 0 0 0 0 0 0 0 0 0 0 0 0 0 127 0"/>
<feOffset dy="4"/>
<feGaussianBlur stdDeviation="40"/>
<feColorMatrix type="matrix" values="0 0 0 0 0 0 0 0 0 0 0 0 0 0 0 0 0 0 0.22 0"/>
<feBlend mode="normal" in2="BackgroundImageFix" result="effect1_dropShadow"/>
<feBlend mode="normal" in="SourceGraphic" in2="effect1_dropShadow" result="shape"/>
</filter>
</defs>
</svg>
