<svg width="502" height="554" viewBox="0 0 502 554" fill="none" xmlns="http://www.w3.org/2000/svg">
<path d="M364.102 536.123C229.051 575.391 116.509 537.525 77.1189 513.684L40.5426 485.635L53.2036 464.598L131.983 457.586L262.814 450.574L368.323 471.61L478.051 435.147H489.306C472.424 492.367 398.803 526.306 364.102 536.123Z" fill="#FB4C47"/>
<path d="M70.6014 504.644H403.958C403.958 504.644 415.63 312.974 373.16 284.927C330.696 256.886 141.28 266.496 99.9166 294.78C-4.97167 366.495 70.6014 504.644 70.6014 504.644Z" fill="#FB4C47"/>
<path d="M126.098 244.542C125.617 244.542 125.13 244.386 124.731 244.05C123.81 243.303 102.436 225.312 114.131 189.051C118.214 176.372 122.217 167.399 125.75 159.47C132.116 145.203 136.715 134.887 137.584 112.841C137.63 111.642 138.65 110.744 139.843 110.75C141.042 110.802 141.975 111.81 141.928 113.009C141.025 135.889 136.037 147.08 129.718 161.242C126.231 169.068 122.28 177.936 118.255 190.384C107.516 223.713 126.665 240.013 127.482 240.69C128.403 241.455 128.542 242.822 127.777 243.743C127.349 244.27 126.723 244.542 126.098 244.542Z" fill="#000C3E"/>
<path d="M244.432 28.286C243.87 43.3346 231.214 55.07 216.165 54.5081C201.122 53.9462 189.381 41.2899 189.943 26.2471C190.511 11.1985 203.161 -0.542625 218.21 0.0192344C233.253 0.586887 244.994 13.2374 244.432 28.286Z" fill="#000C3E"/>
<path d="M123.659 233.954C123.659 233.954 131.658 250.45 164.316 256.249C196.979 262.053 222.61 250.236 247.824 259.382C273.039 268.523 309.467 256.608 316.69 246.013C323.907 235.419 322.395 118.095 302.516 98.418C282.631 78.7471 178.461 62.3257 155.888 85.3446C133.315 108.369 109.34 220.741 123.659 233.954Z" fill="#000C3E"/>
<path d="M312.233 141.39C310.374 190.973 268.675 229.666 219.092 227.807C169.509 225.948 130.816 184.248 132.676 134.66C134.535 85.077 176.234 46.3897 225.817 48.2491C275.4 50.1027 314.093 91.8078 312.233 141.39Z" fill="#000C3E"/>
<path d="M259.307 216.508C259.307 216.508 265.14 286.474 259.307 294.247C253.474 302.02 216.547 296.193 206.834 294.247C197.114 292.307 193.227 216.508 199.055 216.508C204.887 216.508 258.189 200.909 259.307 216.508Z" fill="#FFCEB0"/>
<path d="M149.101 134.656C149.101 134.656 152.797 243.709 226.522 248.418C300.253 253.122 300.178 99.4732 273.498 84.859C246.813 70.2448 135.472 72.9846 149.101 134.656Z" fill="#FFCEB0"/>
<path d="M224.803 157.999C224.803 157.999 238.885 191.566 235.259 193.79C231.638 196.015 221.032 195.615 218.177 193.147C215.321 190.68 219.046 154.246 224.803 157.999Z" fill="#EE9B68"/>
<path d="M207.153 76.4997C207.153 76.4997 180.717 89.2835 175.689 113.281C170.655 137.285 173.262 198.736 145.25 195.915C145.25 195.915 91.0159 74.2986 207.153 76.4997Z" fill="#000C3E"/>
<path d="M221.088 77.0207C218.69 78.741 248.347 78.6657 265.301 99.2228C282.261 119.774 286.287 171.147 288.905 172.097C291.529 173.052 302.002 108.444 283.408 89.034C264.82 69.6238 234.735 67.2489 221.088 77.0207Z" fill="#000C3E"/>
<path d="M200.081 238.473C200.081 238.473 228.77 254.784 258.549 239.538C258.549 239.538 260.866 257.848 258.549 262.071C256.232 266.293 209.059 269.311 199.774 248.499C199.774 248.499 197.399 237.569 200.081 238.473Z" fill="#EE9B68"/>
<path d="M282.545 176.478C282.545 176.478 289.606 149.179 301.915 158.893C314.229 168.612 303.091 197.14 290.921 199.729C278.751 202.318 275.82 190.554 282.545 176.478Z" fill="#FFCEB0"/>
<path d="M166.264 172.121C166.264 172.121 161.265 144.37 148.261 153.14C135.257 161.904 144.23 191.19 156.174 194.683C168.118 198.17 171.912 186.66 166.264 172.121Z" fill="#FFCEB0"/>
<path d="M252.148 142.656C252.148 142.656 264.387 134.443 273.417 143.421C281.359 151.316 264.578 146.016 258.798 147.759C253.011 149.503 245.162 149.845 252.148 142.656Z" fill="#41294A"/>
<path d="M201.13 144.597C201.13 144.597 189.401 135.671 179.855 144.105C171.462 151.513 188.52 147.216 194.191 149.301C199.862 151.386 207.681 152.185 201.13 144.597Z" fill="#41294A"/>
<path d="M195.222 153.703C183.835 153.703 174.578 162.629 174.144 174.028C173.709 185.659 182.821 195.477 194.452 195.906L195.263 195.923C206.651 195.923 215.907 186.997 216.341 175.604C216.776 163.967 207.659 154.149 196.033 153.72L195.222 153.703ZM195.263 198.82L194.342 198.802C181.112 198.31 170.755 187.142 171.248 173.912C171.74 160.961 182.271 150.807 195.222 150.807L196.143 150.824C209.367 151.316 219.724 162.484 219.238 175.72C218.745 188.671 208.215 198.82 195.263 198.82Z" fill="#FFFCF6"/>
<path d="M255.124 150.338C243.731 150.338 234.474 159.264 234.046 170.663C233.831 176.293 235.83 181.674 239.664 185.804C243.499 189.94 248.718 192.332 254.354 192.541L255.165 192.558C266.552 192.558 275.809 183.632 276.243 172.233C276.452 166.603 274.453 161.221 270.619 157.086C266.784 152.956 261.571 150.563 255.935 150.355L255.124 150.338ZM255.165 195.454L254.244 195.437C247.837 195.199 241.906 192.477 237.544 187.779C233.183 183.076 230.906 176.959 231.15 170.547C231.636 157.595 242.167 147.441 255.124 147.441L256.045 147.459C262.451 147.696 268.383 150.419 272.745 155.116C277.106 159.82 279.377 165.936 279.139 172.349C278.647 185.3 268.116 195.454 255.165 195.454Z" fill="#FFFCF6"/>
<path d="M173.406 170.605C173.232 170.605 173.046 170.571 172.873 170.501L164.097 167.037C163.35 166.742 162.985 165.902 163.28 165.161C163.576 164.413 164.404 164.054 165.157 164.344L173.938 167.813C174.686 168.103 175.045 168.949 174.749 169.69C174.523 170.258 173.985 170.605 173.406 170.605Z" fill="#FFFCF6"/>
<path d="M276.856 166.774C276.231 166.774 275.646 166.363 275.466 165.72C275.246 164.956 275.692 164.156 276.462 163.936L288.661 160.443C289.443 160.229 290.237 160.669 290.451 161.44C290.671 162.21 290.225 163.009 289.455 163.229L277.25 166.716C277.123 166.757 276.984 166.774 276.856 166.774Z" fill="#FFFCF6"/>
<path d="M216.094 70.773C216.094 70.773 219.419 129.884 235.713 135.248C252.007 140.617 292.067 139.146 294.002 132.682C295.936 126.212 262.937 74.1847 239.258 65.8437C197.733 51.2122 161.889 118.728 166.627 134.993C171.366 151.264 207.047 137.026 214.658 134.935C222.275 132.844 214.571 82.4562 216.094 70.773Z" fill="#000C3E"/>
<path d="M217.797 175.837C217.044 175.837 216.412 175.257 216.355 174.504C216.291 173.705 216.887 173.01 217.681 172.946L232.544 171.788C233.436 171.649 234.039 172.326 234.097 173.114C234.16 173.914 233.569 174.609 232.77 174.672L217.913 175.831C217.872 175.837 217.832 175.837 217.797 175.837Z" fill="#FFFCF6"/>
<path d="M200.162 54.5476C199.82 54.5476 199.484 54.4665 199.166 54.3043C191.195 50.1917 186.44 44.4573 185.038 37.2632C181.962 21.4732 196.304 4.54783 196.918 3.83537C197.7 2.91439 199.067 2.81012 199.982 3.60368C200.892 4.38565 200.996 5.75265 200.214 6.66205C200.075 6.82424 186.625 22.7243 189.307 36.4406C190.442 42.262 194.433 46.9712 201.158 50.4466C202.224 50.9969 202.641 52.306 202.091 53.3718C201.708 54.119 200.95 54.5476 200.162 54.5476Z" fill="#000C3E"/>
<path d="M231.601 59.4011C230.987 59.4011 230.367 59.1347 229.939 58.6192C229.168 57.704 229.29 56.337 230.211 55.5666C230.367 55.4276 246.256 41.9487 245.862 27.9775C245.7 22.0519 242.537 16.7519 236.473 12.2222C235.511 11.504 235.314 10.1428 236.032 9.18124C236.756 8.21392 238.106 8.02856 239.073 8.74102C246.256 14.1105 250.009 20.5459 250.206 27.8732C250.647 43.9529 233.715 58.2948 232.991 58.8972C232.586 59.2389 232.094 59.4011 231.601 59.4011Z" fill="#000C3E"/>
<path d="M309.459 242.71C308.81 242.71 308.167 242.42 307.738 241.87C307.003 240.92 307.171 239.559 308.121 238.823C308.868 238.238 326.453 224.209 321.854 200.576C320.053 191.32 316.751 181.073 313.247 170.224C307.147 151.323 300.84 131.774 300.73 112.903C300.724 111.704 301.691 110.725 302.89 110.719H302.902C304.095 110.719 305.068 111.686 305.074 112.879C305.178 131.079 311.382 150.304 317.377 168.892C320.922 179.868 324.27 190.231 326.117 199.748C331.238 226.057 311.619 241.609 310.785 242.258C310.385 242.565 309.922 242.71 309.459 242.71Z" fill="#000C3E"/>
<path d="M316.7 143.634C316.613 143.634 316.527 143.628 316.434 143.616C315.246 143.471 314.401 142.388 314.546 141.195C317.476 117.33 312.929 97.8044 301.02 83.1613C281.836 59.5689 249.688 56.6322 249.364 56.6148C248.171 56.5106 247.284 55.4621 247.377 54.2631C247.481 53.0757 248.53 52.1779 249.723 52.2821C251.113 52.3922 283.991 55.3637 304.363 80.3867C317.059 95.9798 321.937 116.624 318.855 141.728C318.722 142.823 317.783 143.634 316.7 143.634Z" fill="#000C3E"/>
<path d="M228.213 228.392C224.141 228.392 220.996 227.1 220.793 227.019C219.687 226.556 219.171 225.287 219.634 224.181C220.092 223.075 221.384 222.577 222.467 223.005C222.525 223.028 228.45 225.432 233.617 222.855C234.677 222.327 235.998 222.75 236.531 223.833C237.058 224.905 236.623 226.208 235.552 226.747C233.055 227.992 230.489 228.392 228.213 228.392Z" fill="#EE9B68"/>
<path d="M158.758 187.897C158.55 187.897 158.335 187.868 158.127 187.799C156.974 187.451 156.331 186.241 156.684 185.094C160.635 172.113 151.176 163.494 151.083 163.407C150.191 162.614 150.11 161.235 150.909 160.337C151.703 159.439 153.07 159.358 153.979 160.163C154.454 160.586 165.593 170.752 160.832 186.356C160.554 187.295 159.691 187.897 158.758 187.897Z" fill="#EE9B68"/>
<path d="M287.56 194.261C287.496 194.261 287.438 194.261 287.369 194.255C286.176 194.145 285.289 193.097 285.394 191.898C286.824 175.615 294.905 167.031 295.247 166.672C296.081 165.815 297.442 165.791 298.311 166.614C299.18 167.437 299.209 168.809 298.386 169.678C298.311 169.759 291.012 177.608 289.726 192.28C289.622 193.41 288.672 194.261 287.56 194.261Z" fill="#EE9B68"/>
<path d="M160.996 291.175C160.996 291.175 210.318 350.142 248.356 334.363C286.389 318.585 322.024 275.814 302.903 270.137C283.783 264.467 131.096 267.45 160.996 291.175Z" fill="#FFCEB0"/>
<path d="M293.352 211.727C293.352 211.727 308.232 319.569 294.319 331.757C280.412 343.944 262.82 333.274 239.211 341.355C215.601 349.429 214.79 316.644 216.412 299.823C218.034 283.002 225.732 176.162 293.352 211.727Z" fill="white"/>
<path d="M29.5052 378.639L0.317383 464.817L213.025 536.863C213.025 536.863 245.561 454.275 241.466 452.891C237.376 451.501 29.5052 378.639 29.5052 378.639Z" fill="#128E5A"/>
<path d="M71.5431 482.883C71.5431 482.883 107.913 457.756 106.639 464.145C105.371 470.54 91.3009 482.883 91.3009 482.883C91.3009 482.883 116.851 463.108 118.519 472.995C120.187 482.883 111.221 492.267 111.221 492.267C111.221 492.267 129.195 477.942 132.097 485.351C134.999 492.759 111.806 525.527 91.3009 524.577C70.8017 523.627 61.5165 489.579 71.5431 482.883Z" fill="#FFC6A6"/>
<path d="M84.998 434.436L164.632 466.874C164.632 466.874 178.493 424.728 175.886 419.857C173.274 414.98 144.567 413.167 136.695 405.428C128.829 397.695 131.667 388.242 118.519 389.881C105.37 391.521 84.998 434.436 84.998 434.436Z" fill="white"/>
<path d="M230.145 221.294C229.902 221.294 229.647 221.254 229.404 221.167C223.119 218.89 220.003 216.087 219.887 212.6C219.702 207.033 227.672 203.245 229.271 202.539C230.377 202.064 231.651 202.55 232.132 203.651C232.619 204.751 232.121 206.031 231.02 206.512C228.13 207.792 224.168 210.567 224.231 212.455C224.249 212.976 224.782 214.871 230.887 217.077C232.011 217.489 232.596 218.734 232.19 219.864C231.866 220.744 231.032 221.294 230.145 221.294Z" fill="#EE9B68"/>
<path d="M203.978 179.819C203.462 179.819 202.953 179.64 202.541 179.275C193.447 171.247 187.07 173.396 186.809 173.483C185.715 173.876 184.44 173.32 184.029 172.208C183.606 171.09 184.151 169.857 185.263 169.422C185.616 169.283 194.183 166.097 205.414 176.02C206.312 176.813 206.399 178.186 205.606 179.084C205.177 179.57 204.58 179.819 203.978 179.819Z" fill="#41294A"/>
<path d="M248.62 180.312C248.017 180.312 247.421 180.063 246.992 179.576C246.199 178.678 246.286 177.306 247.183 176.512C258.392 166.607 266.976 169.77 267.329 169.915C268.453 170.349 269.009 171.612 268.569 172.724C268.14 173.842 266.883 174.404 265.783 173.969C265.464 173.859 259.098 171.78 250.056 179.767C249.645 180.132 249.135 180.312 248.62 180.312Z" fill="#41294A"/>
<path d="M389.564 472.554C389.564 472.554 416.26 506.529 457.514 482.261C501.127 445.438 510.902 397.325 493.04 360.886C470.05 322.235 413.253 279.556 398.718 279.628C384.176 279.706 333.49 417.674 389.564 472.554Z" fill="#D9423D"/>
<path d="M336.791 223.92C336.791 223.92 280.373 199.772 259.521 205.367C238.668 210.962 279.145 216.274 287.393 220.271C295.642 224.262 257.169 217.658 252.355 220.711C247.548 223.758 287.335 235.036 287.335 235.036C287.335 235.036 252.066 234.005 249.662 239.345C247.258 244.686 282.128 250.733 282.128 250.733C282.128 250.733 255.559 255.147 256.288 260.823C257.012 266.494 306.039 264.727 322.061 285.024C338.077 305.326 360.794 416.007 428.061 405.858C495.322 395.71 494.685 354.248 446.174 301.028C397.663 247.814 356.357 233.263 336.791 223.92Z" fill="#FFC6A6"/>
<path d="M227.332 8.62869C226.679 8.62869 225.969 8.70456 225.201 8.85629C223.327 9.23231 222.114 10.1427 221.385 11.7226C218.136 18.7549 224.986 35.5045 229.881 45.3999C232.906 34.4226 236.531 16.0733 231.409 10.2911C230.422 9.17953 229.08 8.62869 227.332 8.62869ZM230.452 53.6592C229.637 53.6592 228.875 53.2205 228.473 52.4948C226.741 49.391 211.727 21.8258 217.268 9.82273C218.601 6.93658 221.038 5.06306 224.314 4.40997C229.895 3.29839 233.101 5.35992 234.803 7.28292C243.702 17.33 233.77 48.573 232.609 52.1023C232.326 52.9566 231.567 53.5635 230.67 53.6493C230.597 53.6559 230.525 53.6592 230.452 53.6592Z" fill="#FFD310"/>
<path d="M257.897 19.7826C257.683 19.7826 257.465 19.7958 257.247 19.8288C249.585 20.848 240.326 37.0995 235.431 47.3808C245.607 43.0961 261.746 34.9126 263.89 27.4713C264.372 25.7957 264.049 24.3147 262.878 22.804C261.301 20.7754 259.668 19.7826 257.897 19.7826ZM231.081 53.8029C230.47 53.8029 229.873 53.5588 229.441 53.1036C228.818 52.4505 228.64 51.4939 228.986 50.6627C230.418 47.2356 243.341 17.1076 256.647 15.333C259.197 14.9933 262.967 15.5276 266.457 20.0201C268.508 22.6589 269.128 25.6703 268.248 28.7247C264.586 41.4271 235.194 52.4505 231.856 53.6676C231.602 53.76 231.341 53.8029 231.081 53.8029Z" fill="#FFD310"/>
<path d="M188.511 45.7941C199.526 52.8748 224.702 58.382 244.37 45.7941" stroke="#FFD310" stroke-width="4.87"/>
</svg>
