<svg width="473" height="562" viewBox="0 0 473 562" fill="none" xmlns="http://www.w3.org/2000/svg">
<path d="M343.811 545.069C212.896 583.135 103.801 546.429 65.6178 523.318L30.1619 496.128L42.4351 475.736L118.802 468.938L245.625 462.141L347.902 482.533L454.27 447.186H465.179C448.815 502.653 377.449 535.553 343.811 545.069Z" fill="#FB4C47"/>
<path d="M75.9809 492.896H401.565C401.565 492.896 412.964 305.696 371.485 278.303C330.011 250.916 136.045 256.636 93.0547 280.029C50.0648 303.427 75.9809 492.896 75.9809 492.896Z" fill="#FB4C47"/>
<path d="M130.187 238.86C129.717 238.86 129.242 238.708 128.846 238.379C127.952 237.65 107.077 220.078 118.493 184.663C122.487 172.279 126.402 163.511 129.848 155.766C136.065 141.832 140.557 131.756 141.411 110.23C141.456 109.059 142.627 108.182 143.612 108.188C144.783 108.239 145.694 109.223 145.648 110.394C144.766 132.74 139.889 143.665 133.723 157.497C130.317 165.14 126.453 173.801 122.533 185.964C112.038 218.517 130.736 234.436 131.539 235.098C132.439 235.845 132.569 237.18 131.828 238.08C131.409 238.594 130.798 238.86 130.187 238.86Z" fill="#000C3E"/>
<path d="M245.764 27.6485C245.216 42.3462 232.854 53.8079 218.157 53.2591C203.465 52.7103 191.997 40.3491 192.546 25.6571C193.1 10.9594 205.456 -0.507957 220.154 0.0408052C234.846 0.595218 246.313 12.9508 245.764 27.6485Z" fill="#000C3E"/>
<path d="M127.805 228.519C127.805 228.519 135.618 244.631 167.513 250.294C199.415 255.962 224.449 244.421 249.075 253.354C273.701 262.281 309.28 250.644 316.335 240.297C323.384 229.95 321.907 115.361 302.491 96.1432C283.07 76.931 181.329 60.8926 159.282 83.3747C137.236 105.863 113.82 215.614 127.805 228.519Z" fill="#000C3E"/>
<path d="M311.981 138.113C310.165 186.539 269.438 224.33 221.011 222.514C172.585 220.698 134.794 179.971 136.61 131.539C138.426 83.1125 179.153 45.3274 227.579 47.1434C276.006 48.9537 313.797 89.6863 311.981 138.113Z" fill="#000C3E"/>
<path d="M260.287 211.481C260.287 211.481 265.984 279.815 260.287 287.407C254.59 295 218.525 289.308 209.037 287.407C199.544 285.512 195.748 211.481 201.44 211.481C207.137 211.481 259.195 196.246 260.287 211.481Z" fill="#FFCEB0"/>
<path d="M152.651 131.538C152.651 131.538 156.26 238.048 228.267 242.647C300.278 247.241 300.205 97.1754 274.147 82.902C248.084 68.6286 139.339 71.3045 152.651 131.538Z" fill="#FFCEB0"/>
<path d="M226.587 154.337C226.587 154.337 240.34 187.121 236.799 189.294C233.263 191.466 222.904 191.076 220.115 188.666C217.326 186.256 220.964 150.671 226.587 154.337Z" fill="#EE9B68"/>
<path d="M205.021 165.31C204.84 169.043 201.667 171.917 197.933 171.736C194.205 171.555 191.325 168.382 191.506 164.648C191.687 160.92 194.861 158.04 198.595 158.221C202.323 158.402 205.202 161.576 205.021 165.31Z" fill="#41294A"/>
<path d="M263.108 162.122C262.927 165.856 259.753 168.73 256.02 168.549C252.291 168.368 249.412 165.194 249.593 161.46C249.774 157.732 252.948 154.852 256.681 155.033C260.41 155.214 263.289 158.388 263.108 162.122Z" fill="#41294A"/>
<path d="M209.35 74.7361C209.35 74.7361 183.53 87.2217 178.619 110.66C173.703 134.104 176.249 194.122 148.89 191.367C148.89 191.367 95.9208 72.5863 209.35 74.7361Z" fill="#000C3E"/>
<path d="M222.96 75.2465C220.618 76.9268 249.583 76.8532 266.142 96.931C282.707 117.003 286.639 167.178 289.196 168.106C291.758 169.039 301.987 105.937 283.827 86.9798C265.673 68.0222 236.288 65.7027 222.96 75.2465Z" fill="#000C3E"/>
<path d="M202.442 232.933C202.442 232.933 230.457 248.864 259.547 233.974C259.547 233.974 261.81 251.857 259.547 255.981C257.284 260.105 211.211 263.052 202.142 242.726C202.142 242.726 199.823 232.05 202.442 232.933Z" fill="#EE9B68"/>
<path d="M282.988 172.384C282.988 172.384 289.885 145.721 301.906 155.208C313.934 164.701 303.055 192.563 291.169 195.092C279.283 197.621 276.42 186.131 282.988 172.384Z" fill="#FFCEB0"/>
<path d="M169.417 168.128C169.417 168.128 164.535 141.023 151.834 149.589C139.133 158.148 147.896 186.752 159.562 190.163C171.227 193.569 174.933 182.328 169.417 168.128Z" fill="#FFCEB0"/>
<path d="M253.647 138.027C253.647 138.027 266.535 131.612 274.149 141.45C280.848 150.094 265.267 142.847 259.44 143.809C253.619 144.77 245.976 144.109 253.647 138.027Z" fill="#41294A"/>
<path d="M203.004 139.269C203.004 139.269 190.094 132.899 182.513 142.765C175.849 151.432 191.401 144.129 197.228 145.068C203.055 146.012 210.698 145.322 203.004 139.269Z" fill="#41294A"/>
<path d="M197.699 150.141C186.571 150.141 177.531 158.859 177.112 169.992C176.909 175.491 178.855 180.747 182.606 184.781C186.351 188.82 191.442 191.156 196.947 191.36L197.739 191.377C208.867 191.377 217.907 182.659 218.32 171.531C218.529 166.032 216.578 160.771 212.833 156.737C209.087 152.698 203.996 150.361 198.491 150.158L197.699 150.141ZM197.739 194.206L196.839 194.189C190.582 193.957 184.789 191.298 180.529 186.71C176.269 182.116 174.052 176.142 174.284 169.879C174.759 157.229 185.044 147.312 197.699 147.312L198.599 147.329C204.856 147.561 210.649 150.22 214.909 154.808C219.163 159.402 221.386 165.376 221.149 171.644C220.679 184.294 210.394 194.206 197.739 194.206Z" fill="#FFFCF6"/>
<path d="M256.199 146.853C245.077 146.853 236.037 155.571 235.618 166.705C235.409 172.204 237.36 177.459 241.106 181.493C244.851 185.532 249.948 187.869 255.447 188.072L256.239 188.089C267.373 188.089 276.407 179.371 276.826 168.238C277.035 162.739 275.083 157.483 271.338 153.45C267.593 149.41 262.496 147.074 256.991 146.87L256.199 146.853ZM256.239 190.918L255.345 190.901C249.082 190.669 243.289 188.01 239.029 183.422C234.769 178.828 232.552 172.854 232.789 166.592C233.265 153.942 243.55 144.025 256.199 144.025L257.099 144.041C263.356 144.273 269.149 146.932 273.409 151.52C277.669 156.114 279.886 162.088 279.655 168.351C279.179 181.001 268.894 190.918 256.239 190.918Z" fill="#FFFCF6"/>
<path d="M176.39 166.647C176.214 166.647 176.039 166.613 175.869 166.545L167.293 163.162C166.568 162.874 166.212 162.053 166.495 161.329C166.783 160.6 167.609 160.249 168.333 160.532L176.91 163.92C177.634 164.203 177.991 165.029 177.702 165.753C177.487 166.308 176.955 166.647 176.39 166.647Z" fill="#FFFCF6"/>
<path d="M277.43 162.906C276.819 162.906 276.247 162.504 276.072 161.876C275.857 161.135 276.293 160.349 277.045 160.134L288.954 156.723C289.678 156.491 290.487 156.938 290.702 157.696C290.917 158.442 290.481 159.229 289.729 159.444L277.815 162.85C277.69 162.889 277.554 162.906 277.43 162.906Z" fill="#FFFCF6"/>
<path d="M218.086 69.1435C218.086 69.1435 221.333 126.876 237.247 132.115C253.161 137.359 292.287 135.922 294.177 129.609C296.066 123.29 263.836 72.4757 240.709 64.3292C200.152 50.0388 165.145 115.98 169.772 131.866C174.4 147.757 209.249 133.852 216.683 131.81C224.122 129.767 216.598 80.5543 218.086 69.1435Z" fill="#000C3E"/>
<g opacity="0.210007">
<g opacity="0.210007">
<path opacity="0.210007" d="M178.459 189.866C178.459 189.866 215.317 169.748 231.208 173.063C247.094 176.379 275.092 177.499 276.223 183.252C277.36 189.006 240.645 185.555 229.307 186.386C217.964 187.218 174.222 199.211 178.459 189.866Z" fill="#DB5C5D"/>
</g>
</g>
<path d="M199.174 177.083C198.319 177.083 197.51 176.563 197.188 175.714C196.775 174.617 197.324 173.395 198.421 172.976C201.714 171.731 202.444 170.719 202.449 170.713C202.857 169.615 204.016 169.169 205.114 169.587C206.217 169.989 206.715 171.335 206.308 172.438C205.974 173.344 204.701 175.131 199.926 176.947C199.677 177.038 199.423 177.083 199.174 177.083Z" fill="#EE9B68"/>
<path d="M254.87 175.553C253.62 175.553 251.651 175.14 248.641 173.584C247.6 173.053 247.193 171.768 247.73 170.727C248.268 169.692 249.546 169.279 250.587 169.817C253.733 171.44 254.972 171.31 254.966 171.299C256.058 170.891 257.155 171.44 257.585 172.532C258.015 173.618 257.348 174.897 256.262 175.327C255.956 175.446 255.509 175.553 254.87 175.553Z" fill="#EE9B68"/>
<path d="M219.744 171.757C219.014 171.757 218.392 171.191 218.335 170.456C218.279 169.675 218.856 168.996 219.636 168.934L234.147 167.802C234.951 167.678 235.613 168.323 235.669 169.098C235.731 169.879 235.149 170.558 234.368 170.62L219.857 171.751C219.817 171.757 219.784 171.757 219.744 171.757Z" fill="#FFFCF6"/>
<path d="M202.517 53.2969C202.189 53.2969 201.855 53.2177 201.55 53.0593C193.76 49.0426 189.121 43.4418 187.752 36.4155C184.742 20.9936 198.755 4.46299 199.349 3.76713C200.118 2.87894 201.459 2.77145 202.342 3.54084C203.23 4.30458 203.337 5.6397 202.574 6.5279C202.438 6.68631 189.296 22.2156 191.915 35.6121C193.03 41.2977 196.922 45.8971 203.49 49.2915C204.531 49.8289 204.944 51.1075 204.401 52.1484C204.028 52.8782 203.287 53.2969 202.517 53.2969Z" fill="#000C3E"/>
<path d="M233.231 58.0374C232.625 58.0374 232.02 57.7772 231.601 57.2737C230.849 56.3799 230.968 55.0447 231.867 54.2923C232.026 54.1565 247.538 40.992 247.153 27.3522C246.995 21.5648 243.906 16.3827 237.983 11.9587C237.044 11.2572 236.851 9.92769 237.553 8.98858C238.249 8.05512 239.595 7.86843 240.523 8.55862C247.544 13.8029 251.204 20.0882 251.396 27.2447C251.832 42.9494 235.29 56.9569 234.588 57.5453C234.192 57.879 233.706 58.0374 233.231 58.0374Z" fill="#000C3E"/>
<path d="M309.272 237.072C308.638 237.072 308.01 236.789 307.592 236.251C306.873 235.323 307.037 233.994 307.965 233.275C308.695 232.704 325.87 219.002 321.378 195.92C319.619 186.886 316.389 176.878 312.972 166.293C307.009 147.827 300.848 128.728 300.741 110.291C300.735 109.12 301.68 108.164 302.851 108.158H302.862C304.027 108.158 304.978 109.103 304.983 110.269C305.085 128.05 311.144 146.826 317.005 164.992C320.468 175.701 323.737 185.822 325.542 195.111C330.543 220.807 311.382 235.997 310.567 236.63C310.177 236.93 309.724 237.072 309.272 237.072Z" fill="#000C3E"/>
<path d="M316.342 140.305C316.257 140.305 316.172 140.299 316.082 140.288C314.922 140.147 314.096 139.089 314.238 137.923C317.1 114.598 312.648 95.516 301 81.2143C282.234 58.1552 250.893 55.3322 250.576 55.3152C249.405 55.2134 248.539 54.1894 248.635 53.024C248.732 51.8529 249.75 51.0043 250.927 51.0835C252.279 51.191 284.395 54.0932 304.292 78.5328C316.693 93.7623 321.456 113.925 318.447 138.444C318.317 139.513 317.4 140.305 316.342 140.305Z" fill="#000C3E"/>
<path d="M230.189 222.768C227.971 222.768 225.555 222.7 223.377 222.621C221.821 222.558 220.605 221.24 220.662 219.679C220.724 218.117 222.099 217.043 223.598 216.963C228.322 217.15 234.126 217.178 235.269 216.89C236.751 216.369 238.318 217.133 238.844 218.604C239.376 220.069 238.567 221.71 237.102 222.236C236.004 222.638 233.294 222.768 230.189 222.768Z" fill="#DB5C5D"/>
<path d="M162.084 183.537C161.88 183.537 161.671 183.508 161.467 183.441C160.341 183.101 159.713 181.919 160.053 180.799C163.917 168.121 154.684 159.702 154.588 159.618C153.717 158.843 153.638 157.496 154.418 156.619C155.193 155.742 156.545 155.674 157.411 156.449C157.881 156.862 168.76 166.791 164.115 182.032C163.838 182.948 162.995 183.537 162.084 183.537Z" fill="#EE9B68"/>
<path d="M287.881 189.752C287.818 189.752 287.762 189.752 287.694 189.746C286.528 189.639 285.663 188.615 285.765 187.444C287.168 171.541 295.06 163.157 295.393 162.806C296.202 161.969 297.543 161.946 298.386 162.75C299.235 163.553 299.263 164.894 298.46 165.742C298.386 165.822 291.258 173.487 289.996 187.817C289.895 188.926 288.967 189.752 287.881 189.752Z" fill="#EE9B68"/>
<path d="M170.052 169.884C170.052 169.884 188.489 185.283 189.938 187.625C191.386 189.968 190.809 219.946 187.912 219.578C185.016 219.216 167.45 190.658 165.526 190.714C163.603 190.771 164.457 193.854 164.457 193.854C164.457 193.854 179.517 218.729 188.563 225.744C197.609 232.765 254.08 233.088 265.581 226.587C277.088 220.081 286.836 195.738 285.959 195.235C285.077 194.725 282.887 192.74 282.519 193.577C282.208 194.29 266.594 222.112 264.642 221.241C262.685 220.37 264.857 189.481 264.642 186.562C264.427 183.637 287.255 161.494 287.255 161.494L288.901 158.717L286.593 158.083C286.593 158.083 264.212 180.424 258.606 180.294C253 180.163 194.22 184.412 191.499 183.428C188.778 182.443 170.59 162.733 168.321 163.542C166.047 164.346 169.419 168.125 170.052 169.884Z" fill="#FFFCF6"/>
<path d="M162.686 284.324C162.686 284.324 210.858 341.915 248.009 326.504C285.155 311.094 319.959 269.32 301.284 263.776C282.609 258.238 133.483 261.151 162.686 284.324Z" fill="#FFCEB0"/>
<path d="M374.202 250.202C374.202 250.202 367.673 199.366 365.484 196.073C363.295 192.781 346.736 217.78 351.205 231.952C355.68 246.124 293.794 246.474 298.62 267.174C303.446 287.869 300.487 315.839 326.154 317.27C351.816 318.707 381.104 311.743 387.106 302.21C393.114 292.683 374.202 250.202 374.202 250.202Z" fill="url(#paint0_linear)"/>
<path d="M412.775 295.98C412.775 295.98 484.337 379.575 470.374 434.555C456.411 489.536 388.337 498.435 374.374 491.317C360.411 484.199 365.645 248.348 412.775 295.98Z" fill="#D9423D"/>
<path d="M81.6599 285.523C81.6599 285.523 -5.15145 378.767 0.483229 461.997C5.13354 530.711 110.603 520.256 123.581 513.767C136.564 507.278 125.464 242.097 81.6599 285.523Z" fill="#D9423D"/>
<path d="M379.156 262.288C379.156 262.288 466.296 434.649 442.36 464.157C418.423 493.666 375.875 497.038 358.897 472.564C348.98 458.279 362.829 332.059 348.188 316.586C333.547 301.114 374.511 254.169 379.156 262.288Z" fill="#FFCEB0"/>
<path d="M245.09 439.982C245.09 439.982 304.339 462.334 313.815 481.172C323.291 500.011 288.131 477.037 279.854 473.62C271.583 470.209 301.403 493.958 302.308 499.451C303.207 504.939 269.128 483.26 269.128 483.26C269.128 483.26 292.804 508.305 290.473 513.527C288.142 518.754 261.066 497.256 261.066 497.256C261.066 497.256 275.113 519.501 270.508 522.657C265.903 525.814 235.325 488.923 210.116 490.433C184.907 491.95 89.446 547.323 53.1317 491.689C16.8118 436.055 47.4574 409.574 117.783 410.349C188.109 411.129 225.561 431.79 245.09 439.982Z" fill="#FFCEB0"/>
<path d="M227.343 9.20771C226.71 9.20771 226.023 9.28125 225.278 9.42833C223.462 9.79284 222.285 10.6753 221.578 12.2069C218.429 19.0238 225.07 35.2603 229.815 44.8526C232.747 34.2115 236.261 16.4243 231.295 10.8192C230.339 9.74168 229.038 9.20771 227.343 9.20771ZM230.368 52.8589C229.578 52.8589 228.84 52.4337 228.449 51.7302C226.771 48.7215 212.216 22.0006 217.588 10.3652C218.88 7.56743 221.243 5.75129 224.418 5.1182C229.828 4.04067 232.935 6.03907 234.585 7.90316C243.212 17.6425 233.585 47.9285 232.459 51.3497C232.184 52.1779 231.449 52.7662 230.579 52.8493C230.509 52.8557 230.438 52.8589 230.368 52.8589Z" fill="#FFD310"/>
<path d="M256.974 20.0203C256.766 20.0203 256.555 20.0331 256.344 20.0651C248.917 21.0531 239.941 36.8068 235.196 46.7731C245.061 42.6197 260.705 34.6869 262.784 27.4735C263.251 25.8492 262.937 24.4136 261.802 22.9491C260.274 20.9827 258.691 20.0203 256.974 20.0203ZM230.979 52.9985C230.388 52.9985 229.809 52.7619 229.39 52.3207C228.786 51.6876 228.613 50.7603 228.949 49.9546C230.336 46.6324 242.864 17.4272 255.762 15.707C258.234 15.3776 261.889 15.8956 265.271 20.2505C267.26 22.8084 267.861 25.7277 267.008 28.6885C263.458 41.0018 234.966 51.6876 231.73 52.8674C231.484 52.9569 231.232 52.9985 230.979 52.9985Z" fill="#FFD310"/>
<path d="M189.713 45.2343C200.39 52.0981 224.795 57.4367 243.861 45.2343" stroke="#FFD310" stroke-width="3.87"/>
<defs>
<linearGradient id="paint0_linear" x1="388" y1="329" x2="343.318" y2="195.778" gradientUnits="userSpaceOnUse">
<stop stop-color="#FFC4A0"/>
<stop offset="1" stop-color="#FFCEB0"/>
</linearGradient>
</defs>
</svg>
