<svg width="556" height="514" viewBox="0 0 556 514" fill="none" xmlns="http://www.w3.org/2000/svg">
<path d="M210.917 487.352C181.282 497.852 151.359 502.703 119.442 496.639C83.8671 489.877 53.0108 459.433 35.5758 429.073C29.0978 417.795 23.9406 405.195 24.6145 392.21C26.1825 362.213 54.5214 358.861 78.5767 363.712C92.1367 366.441 104.588 372.652 116.897 378.803C137.334 389.023 161.307 394.049 179.629 408.214C185.778 412.981 190.395 418.708 197.539 422.176C208.652 427.575 221.337 430.125 232.752 435.038C242.497 439.255 253.39 446.19 253.405 456.804C253.406 467.69 242.05 474.626 232.072 478.96C225.008 482.047 217.976 484.862 210.917 487.352Z" fill="url(#paint0_linear)"/>
<path d="M101.834 100.426C150.381 28.8819 250.768 0.155482 332.138 27.0546C371.375 40.0322 404.259 67.0554 434.588 95.1078C461.323 119.832 487.259 146.5 505.517 178.284C517.983 199.98 526.905 225.987 533.206 250.266C542.626 286.62 534.071 333.461 487.078 330.029C476.051 329.225 466.513 325.26 456.201 321.792C447.86 318.98 439.686 320.666 431.025 319.293C409.227 315.841 388.228 307.816 368.37 298.416C327.902 279.241 290.925 253.19 249.307 236.387C215.2 222.635 178.777 215.535 142.002 215.47C126.488 215.444 110.175 216.53 96.2972 209.593C62.0915 192.479 77.4735 146.332 90.2482 120.372C93.6326 113.458 97.5042 106.792 101.834 100.426Z" fill="url(#paint1_linear)"/>
<path d="M482.473 111.225C490.465 118.464 521.867 138.225 522.472 115.035C522.615 109.258 519.994 103.648 516.428 99.4172C512.348 94.561 507.722 92.0136 504.536 86.3559C500.638 79.5245 496.2 73.1041 491.281 67.1777C481.224 54.8425 469.483 43.4453 455.236 38.3673C445.244 34.8098 428.326 35.7045 423.58 48.5108C416.665 67.1532 446.232 70.5691 455.25 77.3631C463.807 83.7937 468.654 94.8435 475.433 103.625C477.575 106.394 479.932 108.938 482.473 111.225Z" fill="url(#paint2_linear)"/>
<path d="M334.678 88.5499C351.607 98.5171 364.306 113.436 379.741 125.452C405.438 145.453 440.661 149.545 470.13 163.454C500.178 177.646 522.868 199.702 533.126 231.49C546.379 272.521 547.639 321.316 536.379 363.499C523.979 409.931 494.859 440.775 452.282 461.344C409.73 481.901 362.591 491.494 315.576 493.473C311.039 493.668 306.51 493.773 301.963 493.802C199.827 494.395 63.8782 458.444 29.1052 348.725C28.7865 347.722 28.481 346.72 28.1747 345.703C24.5916 333.48 22.4848 320.871 21.8994 308.146C19.7122 263.035 27.6075 213.243 43.4231 170.954C54.0605 142.483 76.9665 118.41 101.103 101.257C135.015 77.1595 176.393 71.0097 217.575 68.1184C248.071 65.9787 282.369 65.1969 311.207 76.8617C319.312 80.1659 327.157 84.0729 334.678 88.5499Z" fill="url(#paint3_linear)"/>
<defs>
<linearGradient id="paint0_linear" x1="40.9998" y1="367.022" x2="129.957" y2="521.82" gradientUnits="userSpaceOnUse">
<stop stop-color="#FFC5C6"/>
<stop offset="1" stop-color="#FFF6F6"/>
</linearGradient>
<linearGradient id="paint1_linear" x1="540" y1="191.022" x2="181.277" y2="-42.2834" gradientUnits="userSpaceOnUse">
<stop stop-color="white"/>
<stop offset="1" stop-color="#FFD7D7"/>
</linearGradient>
<linearGradient id="paint2_linear" x1="523.287" y1="114.628" x2="405.22" y2="64.1994" gradientUnits="userSpaceOnUse">
<stop stop-color="#FFBEBF"/>
<stop offset="1" stop-color="#FFFBFC"/>
</linearGradient>
<linearGradient id="paint3_linear" x1="555" y1="368.022" x2="42.9999" y2="164.022" gradientUnits="userSpaceOnUse">
<stop stop-color="#FFD7D7"/>
<stop offset="1" stop-color="#FFF8F8"/>
</linearGradient>
</defs>
</svg>
