<svg width="180" height="229" viewBox="0 0 180 229" fill="none" xmlns="http://www.w3.org/2000/svg">
<path d="M31.9011 215.278H140.631C140.631 215.278 150.314 134.155 135.999 126.243C121.686 118.331 54.7527 119.985 39.9173 126.742C25.082 133.499 31.9011 215.278 31.9011 215.278Z" fill="#FB4C47"/>
<path d="M36.9216 109.157C36.7 109.157 36.476 109.075 36.3026 108.908C36.2062 108.819 26.8195 99.6941 33.2917 83.629C35.5607 77.9958 37.6732 74.0387 39.5351 70.5493C42.8977 64.253 45.3257 59.7026 46.4409 49.6806C46.4963 49.1862 46.9492 48.839 47.4381 48.8824C47.9343 48.9379 48.2908 49.3864 48.2354 49.8807C47.0816 60.25 44.4537 65.1718 41.1297 71.4029C39.287 74.8513 37.2011 78.7627 34.9658 84.3042C28.9512 99.2383 37.4564 107.512 37.5407 107.596C37.9044 107.939 37.9213 108.51 37.5768 108.872C37.401 109.06 37.1625 109.157 36.9216 109.157Z" fill="#000C3E"/>
<path d="M97.3079 13.6795C97.0501 20.5449 91.2837 25.9031 84.4261 25.6451C77.5685 25.3871 72.2163 19.6141 72.474 12.7487C72.7318 5.88327 78.4982 0.525023 85.3558 0.783049C92.2134 1.04108 97.5656 6.81409 97.3079 13.6795Z" fill="#000C3E"/>
<path d="M36.0869 104.341C36.0869 104.341 39.187 112.108 53.8464 115.812C68.5059 119.516 80.5447 114.971 91.7092 119.953C102.876 124.937 119.824 120.698 123.451 116.111C127.076 111.525 130.203 58.0749 121.804 48.4749C113.405 38.8725 66.5814 28.009 55.5687 37.7536C44.556 47.4983 30.0073 97.8615 36.0869 104.341Z" fill="#000C3E"/>
<path d="M128.212 65.2881C127.364 87.9124 108.359 105.567 85.7582 104.72C63.1595 103.871 42.1843 83.8298 43.0322 61.2056C43.8776 38.5813 63.0607 22.1569 85.6594 23.0058C108.261 23.8522 129.06 42.6639 128.212 65.2881Z" fill="#000C3E"/>
<path d="M104.088 99.5647C104.088 99.5647 106.745 131.49 104.088 135.037C101.431 138.584 84.5992 135.925 80.1719 135.037C75.7423 134.152 73.9694 99.5647 76.6287 99.5647C79.2855 99.5647 103.578 92.4461 104.088 99.5647Z" fill="#FFCEB0"/>
<path d="M53.859 62.2155C53.859 62.2155 55.5427 111.976 89.1468 114.124C122.751 116.273 122.717 46.1624 110.556 39.4948C98.3939 32.8247 47.6469 34.0762 53.859 62.2155Z" fill="#FFCEB0"/>
<path d="M93.7941 72.8679C93.7941 72.8679 100.211 88.183 98.561 89.1983C96.9086 90.2135 92.0767 90.0326 90.7736 88.9065C89.4705 87.7803 91.1686 71.1534 93.7941 72.8679Z" fill="#EE9B68"/>
<path d="M80.3187 35.6792C80.3187 35.6792 68.2703 41.5125 65.9772 52.4629C63.6841 63.4157 64.8716 91.4561 52.1053 90.1684C52.1053 90.1684 27.3845 34.6761 80.3187 35.6792Z" fill="#000C3E"/>
<path d="M86.6711 35.9172C85.5776 36.701 99.0953 36.6696 106.823 46.0477C114.552 55.4259 116.388 78.8652 117.582 79.3017C118.777 79.7357 123.549 50.2557 115.077 41.3985C106.603 32.5436 92.8929 31.4585 86.6711 35.9172Z" fill="#000C3E"/>
<path d="M77.0935 109.587C77.0935 109.587 90.1681 117.029 103.744 110.074C103.744 110.074 104.799 118.427 103.744 120.354C102.686 122.281 81.1859 123.658 76.9538 114.162C76.9538 114.162 75.8723 109.175 77.0935 109.587Z" fill="#EE9B68"/>
<path d="M114.394 81.288C114.394 81.288 117.036 68.8087 121.444 73.1976C125.85 77.5864 121.728 90.6396 117.33 91.8646C112.932 93.0896 111.92 87.7314 114.394 81.288Z" fill="#FFCEB0"/>
<path d="M61.6827 79.311C61.6827 79.311 59.4065 66.6485 53.4787 70.6491C47.5508 74.6497 51.6408 88.0115 57.0845 89.6055C62.5258 91.197 64.2577 85.9449 61.6827 79.311Z" fill="#FFCEB0"/>
<path d="M100.829 65.8663C100.829 65.8663 106.408 62.1165 110.524 66.2136C114.142 69.8163 106.497 67.3976 103.859 68.1958C101.222 68.9916 97.6448 69.1459 100.829 65.8663Z" fill="#41294A"/>
<path d="M86.1178 66.752C86.1178 66.752 80.7705 62.6791 76.4203 66.5254C72.5952 69.9086 80.3706 67.9457 82.9552 68.8982C85.5397 69.8483 89.1047 70.2149 86.1178 66.752Z" fill="#41294A"/>
<path d="M80.3094 70.8496C75.0849 70.8496 70.8383 74.9467 70.6432 80.1771C70.4433 85.516 74.62 90.023 79.9553 90.2232L80.3238 90.2304C85.5483 90.2304 89.7949 86.1334 89.99 80.9029C90.0864 78.3155 89.171 75.8461 87.4127 73.9483C85.6543 72.0505 83.2625 70.9533 80.6803 70.8568L80.3094 70.8496ZM80.3238 91.4362C80.1865 91.4362 80.0492 91.4337 79.9095 91.4289C73.9118 91.2022 69.2148 86.1358 69.4388 80.1313C69.6653 74.1123 74.7019 69.4365 80.7237 69.6511C83.6286 69.7596 86.3191 70.9943 88.2943 73.1284C90.2718 75.2626 91.3004 78.0381 91.1944 80.9463C90.9728 86.8279 86.1987 91.4362 80.3238 91.4362Z" fill="#FFFCF6"/>
<path d="M70.0448 80.7571C69.9678 80.7571 69.8907 80.7426 69.8136 80.7113L60.7062 76.9349C60.4003 76.8071 60.2534 76.4526 60.381 76.1464C60.5087 75.8377 60.8604 75.6906 61.1663 75.8208L70.2761 79.5972C70.582 79.725 70.7289 80.077 70.6012 80.3857C70.5049 80.6172 70.2809 80.7571 70.0448 80.7571Z" fill="#FFFCF6"/>
<path d="M91.1908 40.2929C91.1908 40.2929 89.8274 59.6134 97.2535 62.0611C104.68 64.5111 119.021 64.2651 119.903 61.3135C120.784 58.3643 105.744 34.6236 94.9508 30.8159C76.0254 24.141 58.7741 52.0777 60.9348 59.5001C63.0954 66.925 85.6435 63.8938 89.112 62.9388C92.583 61.9839 90.497 45.6246 91.1908 40.2929Z" fill="#000C3E"/>
<path d="M91.1907 80.9487C90.88 80.9487 90.6151 80.7076 90.591 80.3917C90.5669 80.0589 90.815 79.7695 91.145 79.743L97.2728 79.2776C97.61 79.2631 97.8943 79.4994 97.9208 79.8346C97.9449 80.165 97.6968 80.4544 97.3644 80.4809L91.2389 80.9487C91.2221 80.9487 91.2052 80.9487 91.1907 80.9487Z" fill="#FFFCF6"/>
<path d="M77.1279 25.5753C76.9882 25.5753 76.8485 25.544 76.716 25.474C73.1078 23.6124 70.9544 21.0153 70.3233 17.7598C68.9286 10.5978 75.4394 2.90285 75.7188 2.57972C76.044 2.20112 76.6124 2.16013 76.9906 2.48085C77.3712 2.8064 77.4145 3.37791 77.0894 3.75651C77.0267 3.82885 70.8652 11.1187 72.0961 17.4198C72.6188 20.1013 74.4518 22.2716 77.5422 23.868C77.9854 24.0971 78.1612 24.6421 77.9324 25.0858C77.771 25.3969 77.4555 25.5753 77.1279 25.5753Z" fill="#000C3E"/>
<path d="M91.4618 27.7909C91.2041 27.7909 90.9463 27.68 90.7681 27.4678C90.4477 27.0843 90.4983 26.5128 90.8813 26.1921C90.956 26.1318 98.2279 19.9537 98.0473 13.5368C97.9702 10.8046 96.5202 8.36182 93.7332 6.28074C93.3334 5.98172 93.2515 5.41503 93.5502 5.01473C93.8465 4.61684 94.4173 4.53244 94.8124 4.83146C98.0666 7.2622 99.7623 10.1776 99.8538 13.4934C100.054 20.788 92.3675 27.3062 92.0399 27.5811C91.8713 27.721 91.6641 27.7909 91.4618 27.7909Z" fill="#000C3E"/>
<path d="M120.34 114.286C120.048 114.286 119.762 114.144 119.588 113.884C119.309 113.469 119.422 112.909 119.836 112.63C120.195 112.386 128.689 106.55 127.359 95.5904C126.841 91.3125 125.67 86.5402 124.43 81.4858C122.274 72.6888 120.041 63.5929 120.605 55.0129C120.636 54.5161 121.079 54.1158 121.566 54.1689C122.065 54.2027 122.44 54.6319 122.407 55.1311C121.862 63.4337 124.059 72.3898 126.186 81.0542C127.436 86.1616 128.621 90.9869 129.151 95.371C130.62 107.46 121.238 113.867 120.838 114.134C120.687 114.236 120.511 114.286 120.34 114.286Z" fill="#000C3E"/>
<path d="M128.131 69.4308C128.091 69.4308 128.05 69.4284 128.004 69.4211C127.51 69.3512 127.168 68.8954 127.238 68.4011C129.211 54.3906 125.272 43.2738 115.536 35.3618C108.252 29.4417 100.313 27.6355 100.234 27.6186C99.747 27.5125 99.4387 27.0302 99.5471 26.5407C99.6531 26.0536 100.137 25.7473 100.624 25.8534C100.956 25.9258 133.958 33.6376 129.025 68.6519C128.962 69.1052 128.577 69.4308 128.131 69.4308Z" fill="#000C3E"/>
<path d="M95.4584 104.902C93.6229 104.902 92.2018 104.319 92.1102 104.28C91.6526 104.087 91.4358 103.559 91.6285 103.099C91.8188 102.641 92.3463 102.423 92.8064 102.612C92.8353 102.624 95.5716 103.726 97.9611 102.542C98.4091 102.315 98.9487 102.498 99.1727 102.947C99.3943 103.393 99.2136 103.935 98.7656 104.157C97.6407 104.719 96.4845 104.902 95.4584 104.902Z" fill="#EE9B68"/>
<path d="M58.2609 86.4225C58.1742 86.4225 58.0851 86.4104 57.9984 86.3839C57.519 86.2368 57.2517 85.7328 57.3962 85.2553C59.2148 79.2798 54.8646 75.3105 54.8213 75.2695C54.4479 74.9367 54.4166 74.3652 54.749 73.9939C55.079 73.6201 55.6547 73.5863 56.0232 73.9191C56.24 74.112 61.2767 78.7131 59.1257 85.781C59.0076 86.1717 58.6487 86.4225 58.2609 86.4225Z" fill="#EE9B68"/>
<path d="M117.356 86.5991C117.334 86.5991 117.313 86.5991 117.294 86.5967C116.795 86.5605 116.419 86.1289 116.455 85.6321C116.865 79.8519 120.471 76.9244 120.622 76.8038C121.02 76.4927 121.576 76.5578 121.889 76.9485C122.2 77.3367 122.135 77.9058 121.75 78.2169C121.718 78.2434 118.609 80.8068 118.257 85.7575C118.223 86.235 117.826 86.5991 117.356 86.5991Z" fill="#EE9B68"/>
<path d="M57.0857 129.504C57.0857 129.504 88.1871 157.134 105.525 149.934C122.861 142.733 127.984 125.817 119.269 123.227C110.555 120.637 43.4571 118.679 57.0857 129.504Z" fill="#FFCEB0"/>
<path d="M97.2548 101.661C97.1536 101.661 97.05 101.645 96.9489 101.608C94.1186 100.581 92.7191 99.3296 92.6662 97.7767C92.5818 95.2422 96.4503 93.465 96.8911 93.2696C97.3439 93.0695 97.8786 93.2745 98.081 93.7326C98.2809 94.1884 98.0762 94.7238 97.6185 94.9263C96.3298 95.4954 94.439 96.7783 94.4727 97.7164C94.4944 98.3964 95.6506 99.2139 97.5607 99.906C98.0304 100.077 98.2737 100.596 98.1051 101.063C97.9702 101.432 97.6233 101.661 97.2548 101.661Z" fill="#EE9B68"/>
<path d="M82.957 83.0385C82.6728 83.0385 82.3886 82.9372 82.1598 82.737C78.1276 79.1681 75.3214 80.0941 75.2034 80.1326C74.5844 80.3545 73.8955 80.0338 73.6666 79.4189C73.4378 78.8015 73.7365 78.1191 74.3483 77.8803C74.5169 77.8128 78.5467 76.3201 83.7543 80.9284C84.2529 81.3697 84.3011 82.1342 83.8603 82.6309C83.6219 82.901 83.2895 83.0385 82.957 83.0385Z" fill="#41294A"/>
<path d="M104.215 83.2639C103.882 83.2639 103.552 83.1265 103.311 82.8564C102.871 82.3572 102.919 81.5952 103.417 81.1539C108.632 76.5408 112.655 78.0383 112.823 78.1058C113.442 78.347 113.751 79.0463 113.507 79.666C113.269 80.2834 112.58 80.5872 111.966 80.3581C111.821 80.3075 109.022 79.4153 105.012 82.9625C104.783 83.1626 104.499 83.2639 104.215 83.2639Z" fill="#41294A"/>
<path d="M179.55 102.262L156.715 95.659L150.031 104.309L133.883 102.602L152.912 111.939L159.555 101.063L179.55 102.262Z" fill="#000C3E"/>
<path d="M159.717 85.6281L145.298 85.8524L142.95 92.0571L133.276 93.9332L145.973 95.9733L147.902 88.4833L159.717 85.6281Z" fill="#000C3E"/>
<path d="M107.53 69.3136C102.305 69.3136 98.0588 73.4106 97.8637 78.6411C97.6637 83.9824 101.84 88.487 107.176 88.6872L107.544 88.6944C112.769 88.6944 117.016 84.5974 117.211 79.3669C117.411 74.028 113.231 69.521 107.898 69.3208L107.53 69.3136ZM107.544 89.9001C107.405 89.9001 107.267 89.8977 107.128 89.8929C101.132 89.6662 96.4353 84.5998 96.6593 78.5977C96.8857 72.5763 101.918 67.9053 107.947 68.1151C113.942 68.3418 118.637 73.4082 118.415 79.4103C118.196 85.2919 113.419 89.9001 107.544 89.9001Z" fill="#FFFCF6"/>
<path d="M72.4651 171.964C72.4651 171.964 90.7738 150.37 106.763 120.962C113.028 109.436 124.766 106.636 125.192 108.252C125.618 109.87 118.371 116.617 118.371 116.617C118.371 116.617 128.03 109.489 129.595 111.813C131.161 114.138 123.275 121.199 123.275 121.199C123.275 121.199 130.308 117.126 133.293 118.833C136.277 120.54 124.978 122.708 125.192 128.65C128.473 219.899 85.4867 212.788 85.4867 212.788L72.4651 171.964Z" fill="#FFBD96"/>
<path d="M90.7777 151.273C90.6645 151.273 90.5489 151.252 90.4357 151.206C89.9756 151.018 89.754 150.49 89.9419 150.027C100.463 124.241 106.936 120.472 107.205 120.325C107.644 120.084 108.19 120.25 108.431 120.684C108.67 121.121 108.511 121.666 108.082 121.907C107.959 121.981 101.718 125.946 91.6135 150.711C91.4714 151.061 91.1318 151.273 90.7777 151.273Z" fill="#EE9B68"/>
<path d="M62.8535 188.223L0.780731 193.179C0.780731 193.179 -1.30281 163.426 7.65041 148.065C16.6036 132.704 41.5652 125.755 45.7396 124.894C49.9139 124.033 62.8535 188.223 62.8535 188.223Z" fill="#FB4C47"/>
<path d="M134.28 125.379C134.28 125.379 156.62 130.218 160.915 153.873C163.663 168.996 167.52 217.337 167.52 217.337L157.534 221.165L148.358 223.899L129.039 228.274L134.28 125.379Z" fill="#D9423D"/>
<path d="M70.0382 168.12C70.0382 168.12 96.5775 211.634 87.3497 212.84C78.1219 214.046 31.1517 217.663 18.5059 212.84C5.86005 208.017 -0.5833 202.051 1.02573 188.774C-0.393564 168.12 6.38126 142.836 9.74866 148.561C26.8699 177.669 70.0382 168.12 70.0382 168.12Z" fill="#D9423D"/>
<path d="M67.3876 169.326C49.8521 169.326 33.9762 151.918 33.309 151.177C32.8634 150.683 32.9019 149.919 33.3957 149.475C33.8895 149.029 34.6507 149.067 35.0963 149.562C35.2529 149.735 50.9312 166.915 67.3876 166.915C68.0525 166.915 68.592 167.455 68.592 168.12C68.592 168.786 68.0525 169.326 67.3876 169.326Z" fill="#B43936"/>
<path d="M137.789 212.37H137.76C137.096 212.353 136.568 211.801 136.585 211.136C136.592 210.827 137.31 180.187 136.587 166.444C135.908 153.536 132.57 150.637 132.536 150.608C132.032 150.193 131.938 149.444 132.338 148.927C132.733 148.416 133.458 148.298 133.988 148.684C134.422 149.005 138.249 152.205 138.991 166.316C139.721 180.153 139.001 210.885 138.994 211.194C138.977 211.849 138.442 212.37 137.789 212.37Z" fill="#B43936"/>
<path d="M88.5012 3.19874C88.1843 3.19874 87.8402 3.23555 87.4673 3.30917C86.5582 3.49162 85.9692 3.93335 85.6155 4.69996C84.0391 8.11213 87.3632 16.2392 89.7383 21.0406C91.2059 15.7143 92.9648 6.81096 90.4793 4.00537C90.0008 3.46602 89.3494 3.19874 88.5012 3.19874ZM90.0152 25.0481C89.6199 25.0481 89.2502 24.8352 89.0549 24.4831C88.2147 22.9771 80.9294 9.60214 83.6182 3.7781C84.2648 2.37771 85.4475 1.46865 87.0367 1.15177C89.7447 0.612413 91.3003 1.6127 92.1262 2.54576C96.4442 7.42073 91.6252 22.5802 91.0619 24.2927C90.9242 24.7072 90.5561 25.0017 90.1208 25.0433C90.0856 25.0465 90.0504 25.0481 90.0152 25.0481Z" fill="#FFD310"/>
<path d="M103.333 8.611C103.229 8.611 103.124 8.6174 103.018 8.6334C99.3002 9.12794 94.8077 17.0134 92.4327 22.002C97.37 19.923 105.201 15.9523 106.241 12.3416C106.475 11.5286 106.318 10.81 105.75 10.077C104.985 9.09273 104.193 8.611 103.333 8.611ZM90.3217 25.118C90.0256 25.118 89.7359 24.9996 89.5262 24.7787C89.2237 24.4619 89.1373 23.9977 89.3054 23.5944C90 21.9315 96.2705 7.31303 102.727 6.45199C103.964 6.28714 105.793 6.54641 107.486 8.72623C108.482 10.0066 108.783 11.4678 108.356 12.9498C106.579 19.1132 92.3174 24.4619 90.6978 25.0524C90.5745 25.0972 90.4481 25.118 90.3217 25.118Z" fill="#FFD310"/>
<path d="M69.6663 21.2317C75.0106 24.6673 87.2262 27.3395 96.7697 21.2317" stroke="#FFD310" stroke-width="1.63065"/>
</svg>
