<svg width="284" height="263" viewBox="0 0 284 263" fill="none" xmlns="http://www.w3.org/2000/svg">
<path d="M107.802 249.258C92.6549 254.625 77.3612 257.104 61.0481 254.005C42.8654 250.549 27.0944 234.989 18.1832 219.471C14.8722 213.707 12.2363 207.267 12.5807 200.63C13.3822 185.298 27.8665 183.585 40.1614 186.065C47.0921 187.459 53.4559 190.634 59.7475 193.778C70.193 199.001 82.4458 201.57 91.8105 208.81C94.9529 211.246 97.3128 214.174 100.964 215.946C106.644 218.706 113.128 220.009 118.962 222.52C123.943 224.675 129.511 228.22 129.518 233.645C129.519 239.208 123.714 242.754 118.614 244.969C115.004 246.547 111.41 247.986 107.802 249.258Z" fill="url(#paint0_linear)"/>
<path d="M52.0501 51.4956C76.8631 14.9285 128.172 0.246157 169.761 13.9946C189.816 20.6276 206.623 34.4394 222.125 48.7773C235.789 61.4143 249.045 75.0443 258.377 91.2898C264.748 102.379 269.309 115.671 272.529 128.081C277.344 146.661 272.971 170.602 248.952 168.848C243.317 168.437 238.442 166.411 233.171 164.638C228.908 163.201 224.73 164.063 220.304 163.361C209.162 161.597 198.429 157.495 188.28 152.69C167.596 142.89 148.697 129.575 127.425 120.987C109.993 113.958 91.3767 110.329 72.5808 110.296C64.6512 110.283 56.3135 110.838 49.2203 107.292C31.7374 98.5449 39.5993 74.9585 46.1286 61.6903C47.8584 58.1561 49.8372 54.7492 52.0501 51.4956Z" fill="url(#paint1_linear)"/>
<path d="M246.597 57.015C250.682 60.7149 266.732 70.8153 267.041 58.9624C267.114 56.0096 265.775 53.1425 263.952 50.98C261.867 48.4979 259.502 47.196 257.874 44.3042C255.881 40.8126 253.613 37.5311 251.099 34.502C245.959 28.1974 239.958 22.3722 232.676 19.7767C227.569 17.9585 218.922 18.4157 216.496 24.9612C212.962 34.4895 228.074 36.2354 232.683 39.7079C237.057 42.9947 239.534 48.6423 242.999 53.1307C244.094 54.546 245.298 55.8463 246.597 57.015Z" fill="url(#paint2_linear)"/>
<path d="M171.059 45.4252C179.712 50.5195 186.202 58.1448 194.091 64.286C207.225 74.5089 225.228 76.6003 240.29 83.7096C255.648 90.9632 267.245 102.236 272.488 118.483C279.262 139.455 279.906 164.395 274.151 185.955C267.813 209.687 252.929 225.451 231.168 235.964C209.419 246.471 185.326 251.374 161.296 252.386C158.977 252.485 156.662 252.539 154.338 252.554C102.135 252.857 32.6502 234.482 14.8773 178.404C14.7144 177.891 14.5583 177.379 14.4017 176.859C12.5704 170.611 11.4936 164.167 11.1944 157.663C10.0765 134.606 14.1118 109.157 22.1954 87.5428C27.6323 72.991 39.3397 60.6869 51.6763 51.9199C69.009 39.6034 90.1575 36.4602 111.206 34.9824C126.793 33.8888 144.323 33.4892 159.063 39.4512C163.205 41.14 167.215 43.1369 171.059 45.4252Z" fill="url(#paint3_linear)"/>
<defs>
<linearGradient id="paint0_linear" x1="11.2362" y1="202.746" x2="26.9514" y2="257.313" gradientUnits="userSpaceOnUse">
<stop stop-color="#FFD0D0"/>
<stop offset="1" stop-color="#FFF8F8"/>
</linearGradient>
<linearGradient id="paint1_linear" x1="304.772" y1="56.8221" x2="128.881" y2="16.2066" gradientUnits="userSpaceOnUse">
<stop stop-color="#FFF8F8"/>
<stop offset="1" stop-color="#FFD0D0"/>
</linearGradient>
<linearGradient id="paint2_linear" x1="267.458" y1="58.7546" x2="207.112" y2="32.9798" gradientUnits="userSpaceOnUse">
<stop stop-color="#FFD0D0"/>
<stop offset="1" stop-color="#FFF7F7"/>
</linearGradient>
<linearGradient id="paint3_linear" x1="253.838" y1="228.726" x2="11.2439" y2="88.2405" gradientUnits="userSpaceOnUse">
<stop stop-color="#FFCFCF"/>
<stop offset="1" stop-color="#FFF8F8"/>
</linearGradient>
</defs>
</svg>
