<svg width="100" height="175" viewBox="0 0 100 175" fill="none" xmlns="http://www.w3.org/2000/svg">
<path d="M95.8786 54.9624C95.8786 54.9624 95.1993 64.5549 94.2476 78.0691C93.4993 88.6789 92.5771 101.707 91.6681 114.434C91.4482 117.558 91.2185 120.656 91.0019 123.698C90.4834 131.049 89.9813 138.056 89.5317 144.144C89.1379 149.263 88.7999 153.746 88.5439 157.224C88.2026 161.681 87.9729 164.507 87.8876 164.996C87.3887 168.228 77.8783 174.503 55.9694 174.503C34.0704 174.503 21.3275 174.844 17.0875 169.587C16.4508 168.786 15.6796 165.675 14.8362 160.946C13.0017 150.677 10.7997 132.815 8.8175 114.788C7.58028 103.594 6.41198 92.3479 5.46028 82.7981C3.98022 68.0171 2.98914 57.3416 2.98914 57.3416L29.6007 56.6623L63.4386 55.7927L95.8786 54.9624Z" fill="#FB4C47"/>
<path d="M94.2497 78.0695C93.5014 88.6794 92.5793 101.708 91.6702 114.434C83.1935 116.732 58.0784 121.392 8.8195 114.789C7.58228 103.595 6.41398 92.3483 5.46228 82.7985C18.4251 84.2917 60.4117 87.9738 94.2497 78.0695Z" fill="#D9423D"/>
<path d="M88.5436 157.225C88.2023 161.679 87.9726 164.507 87.8906 164.996C87.3885 168.229 77.878 174.504 55.9691 174.504C34.0701 174.504 21.3304 174.845 17.0904 169.588C16.4504 168.783 15.6792 165.676 14.8358 160.947C26.3974 163.027 58.9161 167.343 88.5436 157.225Z" fill="#D9423D"/>
<path d="M98.7574 56.1593C97.238 57.8428 84.8494 63.6285 51.0508 65.3153C47.8872 65.4761 44.8287 65.5581 41.9374 65.5713C16.481 65.7747 1.76572 61.1311 1.46708 60.2352C1.12906 59.2014 0.449742 52.4082 1.30628 51.5681L1.3194 51.555C2.13655 50.8593 11.8341 55.8475 39.7354 55.0303C43.1747 54.9352 46.8797 54.7448 50.8867 54.4462C83.7205 52.0144 94.2483 47.0032 96.9361 46.8391C97.2511 46.8129 97.4546 46.8523 97.5793 46.977C98.7574 48.1715 100.293 54.4462 98.7574 56.1593Z" fill="#FF807C"/>
<path d="M96.898 47.655C95.7166 52.082 61.4028 60.2339 44.597 59.8794C43.2515 59.8532 41.8273 59.8138 40.3472 59.7318C23.3938 58.9573 -0.73351 55.4655 1.30444 51.5668L1.31757 51.5537C1.53417 51.2124 8.33063 41.2293 35.4016 38.4858C37.0458 38.3217 38.7687 38.1872 40.5638 38.0789C41.4991 38.01 42.4508 37.9673 43.4287 37.9148C43.606 37.9148 43.7832 37.9148 43.9604 37.9017C44.9383 37.859 45.9425 37.8327 46.9763 37.8196C48.1708 37.7934 49.3391 37.7802 50.4779 37.7802C83.0392 37.5472 96.3663 42.6963 96.9374 46.8378C96.9767 47.1233 96.9669 47.3957 96.898 47.655Z" fill="#C63F3B"/>
<path d="M58.5921 58.7332C58.0571 59.6208 55.1983 60.4033 51.8964 60.8071C48.6447 61.2068 44.9416 61.2236 42.6052 60.5968C41.5519 60.3192 40.7703 59.9195 40.4234 59.3768C40.2354 59.0824 39.9595 58.2621 39.6126 57.0463C39.0066 54.9556 38.1748 51.6827 37.2595 47.9009C37.155 47.4507 37.038 46.9964 36.9293 46.5253C36.3818 44.262 35.8092 41.8263 35.2198 39.3864C34.8562 37.8552 34.4717 36.3239 34.1122 34.8095C33.9033 33.9555 33.6985 33.1184 33.5062 32.3023C32.7622 29.286 32.0517 26.4507 31.4122 24.0991C30.6014 21.0492 29.9076 18.786 29.4395 17.9363C29.335 17.7596 29.2472 17.6376 29.1803 17.5871C29.0758 17.5156 28.9212 17.4819 28.6997 17.4483C27.4709 17.2548 24.495 17.4483 20.9967 17.7091C13.9708 18.2307 4.90525 19.0132 4.09441 17.3599C3.59286 16.3335 3.21251 14.0703 3.1122 11.563C2.91994 7.65918 3.38388 3.20425 4.95959 2.13994C6.15495 1.34066 13.0053 0.54138 20.4784 0.188017C24.3571 0.0323675 28.4029 -0.0181136 31.9138 0.120706C36.3818 0.293186 39.9762 0.764337 41.2886 1.68561C41.8612 2.08946 42.5885 3.32624 43.4369 5.173C44.649 7.80221 46.0826 11.6472 47.5873 16.1231C48.4691 18.807 49.3887 21.6971 50.3082 24.6544C51.2026 27.5991 52.0845 30.6112 52.9204 33.5895C53.0583 34.0397 53.1754 34.4772 53.2966 34.9315C53.4554 35.5036 53.6309 36.0799 53.7856 36.652C54.3206 38.6208 54.8388 40.5559 55.3237 42.3984C55.6163 43.5132 55.8921 44.5775 56.1345 45.6208C56.8074 48.25 57.3633 50.6184 57.798 52.604C58.5044 56.0325 58.8345 58.3167 58.5921 58.7332Z" fill="#F5C827"/>
<path d="M57.5814 52.4313L49.9039 54.2344L39.2372 56.7295C38.6301 54.7066 37.7911 51.54 36.8678 47.8808L47.252 44.8485L55.0855 42.557C56.1142 46.3301 56.9701 49.7531 57.5814 52.4313Z" fill="#FFAE00"/>
<path d="M53.2204 34.6666C51.0446 35.2245 48.2306 35.9654 45.3627 36.6845C41.6577 37.6433 37.8656 38.6152 35.2961 39.2864C34.9355 37.6956 34.5543 36.1092 34.1937 34.5402C33.9865 33.6555 33.7876 32.7882 33.5969 31.9427L42.8595 27.5408L50.253 24.0237C51.1441 27.0701 52.0185 30.1907 52.8432 33.2763C52.98 33.747 53.1002 34.1959 53.2204 34.6666Z" fill="#FFAE00"/>
<path d="M47.7678 16.2151L40.3835 19.7117L31.2492 24.0238C30.4211 21.0379 29.7126 18.8221 29.2345 17.9902L37.2718 10.964L43.5293 5.49054C44.7671 8.06461 46.2311 11.833 47.7678 16.2151Z" fill="#FFAE00"/>
<path d="M31.4138 0.119279C30.9994 2.52796 30.4933 5.48482 29.9315 8.56212C29.4015 11.4816 28.8556 14.4883 28.3456 17.2251C27.1781 17.034 24.3411 17.2251 21.0059 17.4825L20.7748 9.14353L20.5118 0.18988C24.2056 0.0320699 28.0667 -0.0177665 31.4138 0.119279Z" fill="#FFAE00"/>
<g opacity="0.309998">
<g opacity="0.309998">
<path opacity="0.309998" d="M58.2063 45.0692C66.4041 45.4302 74.5165 46.3392 82.5895 47.8258C85.1526 48.2984 86.2519 44.3735 83.6725 43.8976C75.2417 42.3421 66.7683 41.3707 58.2063 40.9933C55.5842 40.8784 55.5908 44.9543 58.2063 45.0692Z" fill="white"/>
</g>
</g>
<g opacity="0.300003">
<g opacity="0.300003">
<path opacity="0.300003" d="M83.647 75.7151C83.181 90.5978 82.2326 105.448 80.8084 120.268C80.5557 122.877 84.6348 122.86 84.8809 120.268C86.3117 105.448 87.2568 90.5978 87.7228 75.7151C87.8049 73.093 83.7291 73.093 83.647 75.7151Z" fill="#FFC7D3"/>
</g>
<g opacity="0.300003">
<path opacity="0.300003" d="M82.7043 131.57C85.3264 131.57 85.3296 127.494 82.7043 127.494C80.0822 127.494 80.0756 131.57 82.7043 131.57Z" fill="#FFC7D3"/>
</g>
</g>
</svg>
