<svg width="176" height="175" viewBox="0 0 176 175" fill="none" xmlns="http://www.w3.org/2000/svg">
<path d="M81.1723 117.392C78.8153 116.841 76.458 118.305 75.9073 120.663L73.64 130.369C72.4858 135.311 70.2128 139.928 66.9565 143.819C65.9856 144.98 65.2999 146.413 65.0335 148.034C64.3277 152.332 66.9677 156.566 71.1367 157.825C76.0311 159.302 81.0779 156.331 82.2226 151.431C82.5326 150.104 82.5231 148.777 82.2439 147.53C81.1237 142.528 81.0101 137.353 82.1761 132.361L84.4431 122.657C84.9939 120.3 83.5293 117.942 81.1723 117.392Z" fill="#1DB776"/>
<path d="M66.9725 53.0878C68.6724 52.0317 69.1942 49.7975 68.1381 48.0977L63.7889 41.0974C61.5749 37.5338 60.2046 33.5059 59.833 29.327C59.7224 28.0811 59.2856 26.8425 58.4931 25.7387C56.3935 22.8139 52.3747 21.8818 49.2015 23.5832C45.4762 25.5806 44.2625 30.2679 46.4581 33.8018C47.0527 34.7588 47.8342 35.5292 48.7259 36.0948C52.3053 38.3643 55.3968 41.3234 57.6334 44.9234L61.9818 51.9223C63.0385 53.622 65.2727 54.1439 66.9725 53.0878Z" fill="#128E5A"/>
<path d="M106.196 116.223C104.417 117.329 103.871 119.666 104.976 121.445L109.527 128.771C111.844 132.5 113.277 136.715 113.666 141.087C113.782 142.391 114.239 143.687 115.069 144.842C117.266 147.903 121.471 148.878 124.792 147.098C128.69 145.008 129.96 140.103 127.663 136.405C127.04 135.403 126.222 134.597 125.289 134.005C121.544 131.63 118.309 128.534 115.968 124.767L111.418 117.443C110.312 115.664 107.974 115.118 106.196 116.223Z" fill="#128E5A"/>
<path d="M58.0828 80.2328C58.6333 77.8757 57.169 75.5184 54.8117 74.9678L45.1052 72.7005C40.1639 71.5463 35.5468 69.2733 31.6551 66.017C30.4949 65.0461 29.0619 64.3604 27.44 64.094C23.1428 63.3881 18.9086 66.0282 17.6499 70.1972C16.1723 75.0916 19.143 80.1384 24.0432 81.283C25.3706 81.5931 26.6978 81.5836 27.9441 81.3044C32.9463 80.1841 38.1212 80.0706 43.1131 81.2366L52.8179 83.5035C55.1749 84.0544 57.5322 82.5898 58.0828 80.2328Z" fill="#1DB776"/>
<path d="M27.9457 81.3047C32.948 80.1844 38.1229 80.0709 43.1148 81.2369L52.8199 83.5039C55.1769 84.0545 57.5342 82.5901 58.0848 80.2328C58.6355 77.8755 57.1711 75.5185 54.8138 74.9679L45.1087 72.7009C40.1168 71.5349 34.9422 71.6485 29.9396 72.7687C28.6934 73.0479 27.3662 73.0574 26.0388 72.7473C22.8819 72.0099 20.5282 69.652 19.6465 66.7597C18.7456 67.7146 18.0495 68.8793 17.6516 70.1975C16.174 75.0919 19.1447 80.1387 24.0449 81.2833C25.3723 81.5934 26.6995 81.5839 27.9457 81.3047Z" fill="#128E5A"/>
<path d="M113.274 59.5343C111.475 67.2344 116.259 74.9346 123.959 76.7333C131.659 78.5319 139.359 73.7478 141.158 66.0477C142.957 58.3476 138.173 50.6474 130.473 48.8487C122.772 47.0501 115.072 51.8342 113.274 59.5343Z" fill="#128E5A"/>
<path d="M141.16 66.0494C141.508 64.5604 141.607 63.0718 141.489 61.6252C138.375 66.8158 132.166 69.6495 125.955 68.1987C119.744 66.7479 115.433 61.4568 114.941 55.4239C114.194 56.6683 113.624 58.0466 113.276 59.5359C111.477 67.2361 116.261 74.9362 123.961 76.7349C131.661 78.5335 139.362 73.7492 141.16 66.0494Z" fill="#1DB776"/>
<path d="M42.6809 76.6366C36.808 101.779 52.429 126.922 77.5715 132.795C102.714 138.668 127.857 123.047 133.73 97.9044C139.603 72.7619 123.982 47.6189 98.8393 41.746C73.6968 35.873 48.5539 51.4941 42.6809 76.6366Z" fill="#1DB776"/>
<path d="M133.739 97.9035C134.075 96.464 134.337 95.0247 134.535 93.5886C126.977 116.227 103.277 129.795 79.5741 124.258C55.8713 118.722 40.6341 96.0583 43.8874 72.4149C43.4285 73.7896 43.0259 75.1965 42.6896 76.636C36.8167 101.779 52.4376 126.921 77.5802 132.794C102.723 138.667 127.866 123.046 133.739 97.9035Z" fill="#128E5A"/>
<path d="M90.5287 105.818C89.3358 110.925 92.5088 116.032 97.6159 117.225C102.723 118.418 107.83 115.245 109.023 110.138C110.216 105.031 107.043 99.9236 101.936 98.7306C96.8288 97.5377 91.7217 100.711 90.5287 105.818Z" fill="#128E5A"/>
<path d="M109.033 110.137C109.393 108.597 109.353 107.057 108.985 105.625C106.752 108.223 103.187 109.521 99.6195 108.688C96.0525 107.855 93.4312 105.111 92.58 101.793C91.6158 102.914 90.8982 104.277 90.5385 105.817C89.3455 110.924 92.5186 116.031 97.6256 117.224C102.733 118.417 107.84 115.244 109.033 110.137Z" fill="white"/>
<path d="M67.9641 65.38C67.1565 68.8373 69.3046 72.2947 72.7619 73.1023C76.2193 73.9099 79.6767 71.7618 80.4843 68.3045C81.2919 64.8472 79.1438 61.3898 75.6865 60.5822C72.2291 59.7746 68.7717 61.9226 67.9641 65.38Z" fill="white"/>
<path d="M38.6709 108.36C37.5695 113.075 40.4989 117.79 45.2137 118.891C49.9286 119.993 54.6436 117.063 55.7449 112.348C56.8462 107.633 53.9169 102.918 49.202 101.817C44.4871 100.716 39.7722 103.645 38.6709 108.36Z" fill="#1DB776"/>
<path d="M55.749 112.347C56.1123 110.792 56.0345 109.237 55.6011 107.811C53.529 110.017 50.3713 111.091 47.2117 110.353C44.0521 109.615 41.6971 107.253 40.8165 104.357C39.7963 105.444 39.0377 106.803 38.6744 108.359C37.573 113.074 40.5025 117.789 45.2173 118.89C49.932 119.991 54.6476 117.062 55.749 112.347Z" fill="#128E5A"/>
<path d="M95.2437 57.1467C92.8867 56.5961 91.4221 54.239 91.9727 51.8818L94.24 42.1753C95.3942 37.2339 95.4019 32.0876 94.2065 27.1561C93.85 25.6858 93.8701 24.0973 94.3498 22.5253C95.6207 18.36 99.8633 15.7336 104.158 16.452C109.201 17.2955 112.41 22.1946 111.265 27.0948C110.955 28.4222 110.358 29.6078 109.556 30.6014C106.336 34.5898 103.941 39.1788 102.775 44.1707L100.508 53.8759C99.9581 56.2327 97.6008 57.6973 95.2437 57.1467Z" fill="#128E5A"/>
<path d="M118.332 94.3074C117.781 96.6644 119.246 99.0217 121.603 99.5723L131.31 101.84C136.251 102.994 140.868 105.267 144.76 108.523C145.92 109.494 147.353 110.18 148.975 110.446C153.272 111.152 157.506 108.512 158.765 104.343C160.242 99.4485 157.272 94.4017 152.372 93.2571C151.044 92.947 149.717 92.9565 148.471 93.2357C143.468 94.356 138.294 94.4695 133.302 93.3035L123.597 91.0365C121.24 90.4857 118.883 91.9503 118.332 94.3074Z" fill="#1DB776"/>
<path d="M148.973 110.444C153.271 111.15 157.505 108.51 158.764 104.341C159.289 102.6 159.25 100.84 158.763 99.2428C156.814 101.308 153.906 102.391 150.967 101.908C149.346 101.642 147.912 100.956 146.752 99.9852C142.861 96.7289 138.243 94.456 133.302 93.3017L123.596 91.0344C121.239 90.4838 118.881 91.9482 118.331 94.3055C117.78 96.6628 119.244 99.0198 121.602 99.5704L131.308 101.838C136.25 102.992 140.867 105.265 144.758 108.521C145.919 109.492 147.352 110.178 148.973 110.444Z" fill="#128E5A"/>
<path d="M82.2205 151.437C82.5304 150.111 82.521 148.784 82.2419 147.538C82.1926 147.318 82.1476 147.096 82.1022 146.875C79.9109 149.231 76.486 150.308 73.1325 149.295C70.2644 148.429 68.1207 146.155 67.2924 143.42C67.1822 143.556 67.0735 143.694 66.9611 143.828C65.9907 144.988 65.3052 146.42 65.0389 148.042C64.3336 152.337 66.9723 156.569 71.1395 157.828C76.0319 159.305 81.0765 156.335 82.2205 151.437Z" fill="#128E5A"/>
</svg>
