<svg width="263" height="186" viewBox="0 0 263 186" fill="none" xmlns="http://www.w3.org/2000/svg">
<path d="M60.3902 34.7599C60.3902 34.7599 113.466 105.627 126.743 111.487C140.024 117.35 156.672 116.03 158.128 122.828C159.584 129.63 130.255 118.125 134.934 128.617C139.612 139.113 157.846 151.093 157.932 161.659C158.021 172.229 128.917 138.972 128.917 138.972C128.917 138.972 156.339 169.399 147.259 170.118C138.175 170.838 114.688 141.09 114.688 141.09C114.688 141.09 140.961 180.114 132.251 176.549C123.546 172.985 42.8046 79.6173 30.3535 69.7372C17.9025 59.8608 60.3902 34.7599 60.3902 34.7599Z" fill="#E27B5A"/>
<path d="M214.787 51.9623C214.787 51.9623 154.251 116.554 140.407 120.919C126.563 125.281 110.163 122.139 107.966 128.734C105.773 135.331 136.187 127.128 130.382 137.045C124.581 146.958 105.143 156.857 103.894 167.353C102.65 177.845 135.228 147.997 135.228 147.997C135.228 147.997 104.628 175.219 113.574 176.933C122.525 178.65 149.138 151.669 149.138 151.669C149.138 151.669 118.735 187.566 127.781 184.981C136.828 182.396 227.338 98.4849 240.797 90.0364C254.259 81.5878 214.787 51.9623 214.787 51.9623Z" fill="#FFCEB0"/>
<path d="M163.25 96.8122C163.25 96.8122 181.869 132.069 198.985 135.82C216.099 139.571 253.071 106.104 261.138 89.5269C269.208 72.953 229.877 22.7967 221.46 15.5826C209.301 14.0982 154.618 65.3849 163.25 96.8122Z" fill="#FB4C47"/>
<path d="M47.721 0.553433C47.721 0.553433 108.959 60.9063 106.057 76.5769C103.159 92.2506 79.7756 111.026 60.917 117.174C42.0585 123.32 0.829786 98.563 0.829786 80.5095C-2.17659 49.8497 13.4547 17.9875 47.721 0.553433Z" fill="#128E5A"/>
</svg>
