<svg width="270" height="249" viewBox="0 0 270 249" fill="none" xmlns="http://www.w3.org/2000/svg">
<path d="M102.298 236.075C87.9242 241.168 73.4113 243.521 57.9311 240.58C40.6768 237.3 25.711 222.534 17.2548 207.809C14.1129 202.339 11.6115 196.228 11.9384 189.93C12.6989 175.381 26.4437 173.755 38.1109 176.108C44.6877 177.432 50.7266 180.444 56.6969 183.427C66.6091 188.384 78.2363 190.822 87.1229 197.692C90.1048 200.004 92.3442 202.782 95.8092 204.464C101.199 207.083 107.352 208.319 112.888 210.702C117.615 212.747 122.898 216.111 122.905 221.259C122.906 226.539 117.398 229.903 112.558 232.005C109.132 233.502 105.722 234.868 102.298 236.075Z" fill="url(#paint0_linear)"/>
<path d="M49.3907 48.41C72.9369 13.71 121.626 -0.222703 161.092 12.8238C180.122 19.1181 196.071 32.2247 210.782 45.8306C223.748 57.8223 236.328 70.7565 245.183 86.1725C251.229 96.6952 255.557 109.309 258.613 121.085C263.181 138.717 259.032 161.436 236.24 159.771C230.892 159.381 226.266 157.458 221.264 155.776C217.219 154.412 213.254 155.23 209.054 154.564C198.481 152.89 188.296 148.997 178.665 144.438C159.037 135.138 141.103 122.503 120.917 114.353C104.375 107.683 86.7095 104.24 68.8732 104.208C61.3485 104.196 53.4365 104.722 46.7054 101.358C30.1152 93.0571 37.5757 70.675 43.7716 58.0842C45.4131 54.7305 47.2909 51.4976 49.3907 48.41Z" fill="url(#paint1_linear)"/>
<path d="M234.007 53.6475C237.883 57.1585 253.114 66.7432 253.407 55.4955C253.476 52.6934 252.205 49.9727 250.475 47.9206C248.497 45.5653 246.253 44.3298 244.708 41.5857C242.817 38.2724 240.665 35.1584 238.279 32.284C233.401 26.3012 227.706 20.7734 220.797 18.3105C215.95 16.5851 207.745 17.019 205.443 23.2302C202.089 32.2721 216.43 33.9289 220.803 37.224C224.954 40.343 227.304 45.7023 230.592 49.9615C231.631 51.3045 232.774 52.5384 234.007 53.6475Z" fill="url(#paint2_linear)"/>
<path d="M162.324 42.6499C170.535 47.4841 176.694 54.7201 184.18 60.5477C196.644 70.2486 213.727 72.2333 228.02 78.9796C242.594 85.8629 253.598 96.5601 258.574 111.978C265.002 131.879 265.613 155.545 260.152 176.004C254.137 198.525 240.014 213.484 219.363 223.46C198.725 233.431 175.862 238.084 153.059 239.044C150.859 239.138 148.662 239.189 146.456 239.203C96.919 239.491 30.9818 222.054 14.1164 168.839C13.9618 168.352 13.8136 167.866 13.6651 167.373C11.9272 161.444 10.9054 155.329 10.6215 149.157C9.56065 127.278 13.39 103.128 21.0608 82.617C26.2201 68.8082 37.3298 57.1323 49.0364 48.813C65.4842 37.1253 85.5529 34.1426 105.527 32.7403C120.318 31.7025 136.953 31.3233 150.94 36.9809C154.871 38.5835 158.676 40.4784 162.324 42.6499Z" fill="url(#paint3_linear)"/>
<path d="M193.966 233.12C130.471 251.582 80.419 235.142 61.8996 223.933L44.7029 210.745L50.6556 200.855L87.6946 197.558L149.206 194.261L198.812 204.152L208.31 199.322L210.004 216.822C212.262 230.371 210.568 226.984 193.966 233.12Z" fill="#FB4C47"/>
<defs>
<linearGradient id="paint0_linear" x1="10.6625" y1="191.938" x2="25.5753" y2="243.719" gradientUnits="userSpaceOnUse">
<stop stop-color="#FFD8D8"/>
<stop offset="1" stop-color="#FFF8F8"/>
</linearGradient>
<linearGradient id="paint1_linear" x1="259.25" y1="79.4139" x2="102.754" y2="-19.38" gradientUnits="userSpaceOnUse">
<stop stop-color="#FFF8F8"/>
<stop offset="1" stop-color="#FFCFCF"/>
</linearGradient>
<linearGradient id="paint2_linear" x1="253.802" y1="55.2982" x2="196.538" y2="30.8394" gradientUnits="userSpaceOnUse">
<stop stop-color="#FFD7D7"/>
<stop offset="1" stop-color="#FFF9F9"/>
</linearGradient>
<linearGradient id="paint3_linear" x1="240.876" y1="216.592" x2="10.6684" y2="83.2792" gradientUnits="userSpaceOnUse">
<stop stop-color="#FFCFCF"/>
<stop offset="1" stop-color="#FFF8F8"/>
</linearGradient>
</defs>
</svg>
