<svg width="329" height="329" viewBox="0 0 329 329" fill="none" xmlns="http://www.w3.org/2000/svg">
<path d="M213.175 143.624C214.776 147.434 219.162 149.225 222.972 147.624L238.662 141.032C246.649 137.676 255.309 136.192 263.952 136.793C266.529 136.973 269.197 136.485 271.706 135.228C278.353 131.898 281.561 124.005 279.123 116.981C276.262 108.735 267.098 104.735 259.177 108.063C257.032 108.964 255.206 110.307 253.763 111.942C247.971 118.503 240.931 123.846 232.862 127.236L217.175 133.827C213.365 135.427 211.574 139.814 213.175 143.624Z" fill="#FB4C47"/>
<path d="M138.515 227.692C135.352 226.4 131.741 227.918 130.449 231.081L125.13 244.108C122.423 250.739 118.228 256.669 112.824 261.37C111.212 262.772 109.938 264.617 109.206 266.818C107.267 272.651 110.005 279.141 115.537 281.822C122.031 284.97 129.726 281.951 132.411 275.375C133.139 273.594 133.42 271.742 133.309 269.943C132.859 262.721 133.852 255.482 136.587 248.783L141.905 235.759C143.196 232.595 141.678 228.983 138.515 227.692Z" fill="#C63F3B"/>
<path d="M186.488 110.205C189.798 111.556 193.577 109.969 194.929 106.658L200.494 93.0271C203.328 86.0877 207.717 79.8822 213.372 74.9629C215.058 73.496 216.392 71.5656 217.158 69.2617C219.187 63.1576 216.321 56.3672 210.533 53.5613C203.738 50.2672 195.684 53.4265 192.875 60.3076C192.114 62.1716 191.819 64.1096 191.936 65.9925C192.406 73.5499 191.368 81.1245 188.506 88.1348L182.941 101.764C181.59 105.074 183.178 108.853 186.488 110.205Z" fill="#C63F3B"/>
<path d="M184.948 212.774C181.138 214.374 179.346 218.761 180.947 222.571L187.539 238.261C190.895 246.248 192.38 254.908 191.778 263.551C191.599 266.127 192.087 268.796 193.343 271.304C196.674 277.952 204.566 281.16 211.59 278.722C219.837 275.86 223.836 266.697 220.508 258.776C219.607 256.63 218.264 254.805 216.629 253.362C210.068 247.57 204.726 240.53 201.336 232.461L194.745 216.774C193.144 212.964 188.758 211.173 184.948 212.774Z" fill="#FB4C47"/>
<path d="M216.627 253.363C210.066 247.57 204.723 240.531 201.333 232.462L194.742 216.774C193.141 212.964 188.755 211.173 184.944 212.774C181.134 214.375 179.343 218.761 180.944 222.571L187.535 238.259C190.926 246.328 196.268 253.367 202.829 259.16C204.464 260.603 205.807 262.428 206.708 264.574C208.852 269.677 207.951 275.293 204.837 279.41C207.059 279.698 209.367 279.494 211.588 278.723C219.834 275.861 223.834 266.697 220.506 258.777C219.605 256.631 218.262 254.806 216.627 253.363Z" fill="#C63F3B"/>
<path d="M101.029 157.224C113.476 151.994 119.326 137.665 114.097 125.219C108.867 112.772 94.5381 106.922 82.0917 112.151C69.6453 117.381 63.7947 131.71 69.0241 144.156C74.2536 156.603 88.5827 162.453 101.029 157.224Z" fill="#FF8F8C"/>
<path d="M82.097 112.15C79.6902 113.162 77.5333 114.516 75.6517 116.129C85.9472 115.232 96.086 120.976 100.304 131.015C104.522 141.055 101.528 152.316 93.6817 159.042C96.1499 158.827 98.6272 158.234 101.034 157.223C113.481 151.994 119.331 137.665 114.102 125.218C108.872 112.771 94.5431 106.921 82.097 112.15Z" fill="#FB4C47"/>
<path d="M195.405 237.669C236.046 220.593 255.149 173.805 238.074 133.165C220.999 92.524 174.211 73.4205 133.57 90.4959C92.9294 107.571 73.826 154.359 90.9013 195C107.977 235.641 154.765 254.744 195.405 237.669Z" fill="#FB4C47"/>
<path d="M133.57 90.4952C131.244 91.4728 128.991 92.5522 126.808 93.7184C165.675 81.4811 208.18 100.647 224.277 138.961C240.375 177.274 224.315 221.047 188.371 240.242C190.731 239.499 193.079 238.645 195.406 237.668C236.047 220.592 255.15 173.805 238.075 133.164C221 92.5229 174.211 73.4198 133.57 90.4952Z" fill="#C63F3B"/>
<path d="M187.796 142.281C196.051 138.813 199.932 129.309 196.463 121.054C192.995 112.798 183.491 108.918 175.236 112.387C166.98 115.855 163.1 125.359 166.569 133.614C170.037 141.869 179.541 145.75 187.796 142.281Z" fill="#C63F3B"/>
<path d="M175.234 112.387C172.745 113.433 170.657 115.03 169.045 116.974C174.874 117.458 180.242 121.085 182.664 126.851C185.087 132.617 183.921 138.989 180.186 143.492C182.703 143.701 185.305 143.327 187.795 142.281C196.05 138.813 199.93 129.309 196.462 121.054C192.993 112.799 183.49 108.918 175.234 112.387Z" fill="white"/>
<path d="M154.514 213.999C160.103 211.651 162.729 205.217 160.381 199.629C158.033 194.041 151.6 191.414 146.012 193.762C140.423 196.11 137.797 202.543 140.145 208.132C142.493 213.72 148.926 216.347 154.514 213.999Z" fill="white"/>
<path d="M243.278 211.422C250.898 208.22 254.48 199.447 251.278 191.827C248.076 184.207 239.304 180.625 231.683 183.826C224.063 187.028 220.481 195.801 223.683 203.421C226.885 211.041 235.657 214.623 243.278 211.422Z" fill="#FB4C47"/>
<path d="M231.683 183.827C229.169 184.883 227.097 186.549 225.561 188.576C230.686 189.23 235.334 192.518 237.48 197.625C239.625 202.731 238.721 208.353 235.601 212.471C238.124 212.793 240.763 212.479 243.277 211.423C250.898 208.221 254.479 199.448 251.278 191.828C248.076 184.208 239.303 180.625 231.683 183.827Z" fill="#C63F3B"/>
<path d="M115.791 184.54C117.392 188.35 115.602 192.737 111.791 194.338L96.1015 200.93C88.1142 204.286 80.9926 209.432 75.3733 216.026C73.6981 217.992 71.4821 219.556 68.8284 220.468C61.797 222.885 53.915 219.652 50.6042 212.995C46.7174 205.179 50.2746 195.835 58.1953 192.507C60.3409 191.605 62.5775 191.242 64.7551 191.355C73.4954 191.81 82.2382 190.522 90.3072 187.131L105.995 180.54C109.804 178.939 114.191 180.73 115.791 184.54Z" fill="#C63F3B"/>
<path d="M144.035 115.389C147.845 113.788 149.637 109.402 148.036 105.592L141.443 89.902C138.088 81.9147 136.603 73.2547 137.205 64.612C137.384 62.0353 136.896 59.3673 135.639 56.8583C132.309 50.2108 124.417 47.0031 117.392 49.4407C109.146 52.3025 105.146 61.4662 108.474 69.387C109.376 71.5326 110.719 73.3577 112.354 74.8007C118.915 80.593 124.257 87.6327 127.647 95.7017L134.239 111.389C135.839 115.199 140.225 116.99 144.035 115.389Z" fill="#FB4C47"/>
<path d="M135.64 56.8582C132.31 50.2106 124.418 47.003 117.393 49.4406C114.459 50.4585 112.067 52.2767 110.347 54.5506C115.154 55.1742 119.565 58.1098 121.843 62.6554C123.099 65.1643 123.588 67.8324 123.408 70.4091C122.806 79.0517 124.291 87.7118 127.647 95.6991L134.239 111.389C135.839 115.199 140.226 116.99 144.036 115.389C147.847 113.788 149.637 109.402 148.036 105.592L141.444 89.9019C138.088 81.9146 136.604 73.2545 137.206 64.6119C137.385 62.0352 136.898 59.3669 135.64 56.8582Z" fill="#C63F3B"/>
<path d="M260.738 108.452C258.578 109.313 256.729 110.622 255.257 112.229C254.997 112.513 254.731 112.792 254.465 113.071C259.903 113.841 264.756 117.585 266.612 123.269C268.2 128.131 267.107 133.354 264.087 137.184C264.385 137.205 264.684 137.223 264.982 137.249C267.554 137.476 270.229 137.037 272.759 135.827C279.463 132.621 282.813 124.793 280.506 117.73C277.798 109.436 268.714 105.272 260.738 108.452Z" fill="#C63F3B"/>
</svg>
