<svg width="885" height="871" viewBox="0 0 885 871" fill="none" xmlns="http://www.w3.org/2000/svg">
<path d="M406.104 722.83C370.933 743.162 334.065 756.385 292.087 756.212C245.298 756.015 198.915 724.62 169.603 690.164C158.712 677.367 149.188 662.576 146.98 645.921C141.894 607.443 177.105 596.498 208.809 596.986C226.679 597.253 243.962 602.205 261.052 607.115C289.425 615.276 321.066 616.004 347.685 629.677C356.62 634.282 363.837 640.469 373.731 643.189C389.123 647.425 405.84 647.671 421.499 651.22C434.875 654.277 450.35 660.518 452.872 673.998C455.443 687.826 442.653 699.318 430.999 707.177C422.754 712.766 414.485 718.002 406.104 722.83Z" fill="url(#paint0_linear)"/>
<path d="M157.8 267.685C198.798 157.432 322.155 86.9824 438.386 96.193C494.435 100.643 546.635 125.71 595.793 152.964C639.122 176.983 682.026 203.828 716.439 239.921C739.934 264.556 760.142 296.034 776.325 326.078C800.538 371.069 804.394 435.735 741.184 446.409C726.354 448.915 712.466 446.763 697.717 445.517C685.784 444.5 675.529 449.375 663.64 450.363C633.718 452.856 603.371 449.047 574.089 443.053C514.407 430.811 457.113 408.354 396.679 399.62C347.158 392.486 296.73 394.892 248.114 406.707C227.604 411.695 206.399 418.409 185.815 413.734C135.076 402.189 140.467 336.23 148.946 297.792C151.181 287.559 154.14 277.498 157.8 267.685Z" fill="url(#paint1_linear)"/>
<path d="M657.509 161.678C669.569 168.201 714.33 183.109 708.062 154.285C706.491 147.106 701.558 140.971 695.873 136.824C689.365 132.06 682.882 130.313 677.235 124.29C670.354 117.032 662.931 110.445 655.063 104.613C638.912 92.4207 620.963 81.8962 601.832 79.9338C588.415 78.5628 567.791 84.785 565.803 102.037C562.901 127.153 600.452 122.428 613.644 128.092C626.158 133.445 635.486 145.626 646.515 154.421C649.998 157.193 653.679 159.622 657.509 161.678Z" fill="url(#paint2_linear)"/>
<path d="M453.693 174.827C479.29 182.519 500.899 198.123 525.184 209.005C565.615 227.119 613.483 221.127 656.926 229.97C701.226 238.999 738.347 260.8 762.191 299.486C792.983 349.417 810.44 413.489 809.213 472.875C807.855 538.245 779.357 588.427 729.751 629.388C680.174 670.324 620.988 698.257 559.502 716.088C553.57 717.814 547.619 719.418 541.619 720.928C406.845 754.768 215.563 751.26 134.103 617.527C133.357 616.305 132.629 615.08 131.895 613.835C123.204 598.842 116.339 582.862 111.447 566.236C93.9575 507.333 88.2759 438.982 95.4886 377.98C100.331 336.915 125.321 304.897 151.665 274.419C188.678 231.601 238.853 202.876 292.337 185.727C331.943 173.03 377.012 160.896 418.895 166.977C430.674 168.721 442.306 171.344 453.693 174.827Z" fill="url(#paint3_linear)"/>
<path d="M767.258 591.85C743.601 624.875 715.466 652.125 677.152 669.277C634.445 688.391 579.243 678.915 538.331 659.612C523.132 652.444 508.356 642.897 499.477 628.634C478.977 595.677 506.541 571.187 535.626 558.558C552.016 551.432 569.803 548.817 587.397 546.244C616.612 541.978 645.737 529.595 675.625 531.075C685.665 531.586 694.79 534.246 704.926 532.644C720.695 530.157 736.026 523.487 751.756 520.263C765.202 517.533 781.873 516.837 789.73 528.078C797.774 539.615 790.86 555.359 783.484 567.324C778.278 575.815 772.903 583.995 767.258 591.85Z" fill="url(#paint4_linear)"/>
<defs>
<linearGradient id="paint0_linear" x1="144.615" y1="651.802" x2="208.866" y2="780.175" gradientUnits="userSpaceOnUse">
<stop stop-color="#FFC8C8"/>
<stop offset="1" stop-color="#FFF2F5"/>
</linearGradient>
<linearGradient id="paint1_linear" x1="776.18" y1="248.499" x2="254.511" y2="38.2372" gradientUnits="userSpaceOnUse">
<stop stop-color="white"/>
<stop offset="1" stop-color="#FFD5D5"/>
</linearGradient>
<linearGradient id="paint2_linear" x1="708.946" y1="153.536" x2="547.873" y2="126.967" gradientUnits="userSpaceOnUse">
<stop stop-color="#FFD3D3"/>
<stop offset="1" stop-color="#FFF6F6"/>
</linearGradient>
<linearGradient id="paint3_linear" x1="70.4312" y1="428.025" x2="827.765" y2="428.025" gradientUnits="userSpaceOnUse">
<stop stop-color="#FFF8F5"/>
<stop offset="1" stop-color="#FFDEDE"/>
</linearGradient>
<linearGradient id="paint4_linear" x1="758.009" y1="609.534" x2="559.623" y2="627.818" gradientUnits="userSpaceOnUse">
<stop stop-color="#FFC2C2"/>
<stop offset="1" stop-color="white"/>
</linearGradient>
</defs>
</svg>
