<svg width="761" height="710" viewBox="0 0 761 710" fill="none" xmlns="http://www.w3.org/2000/svg">
<g opacity="0.62">
<path d="M313.319 659.925C275.696 676.086 237.219 684.929 195.225 679.756C148.418 673.986 105.734 637.038 80.4997 599.06C71.1241 584.954 63.3527 569.015 63.127 552.082C62.62 512.965 99.1652 506.204 130.839 510.469C148.694 512.865 165.402 519.88 181.922 526.83C209.349 538.378 240.931 542.876 265.944 559.731C274.339 565.405 280.825 572.456 290.404 576.358C305.305 582.431 322.007 584.668 337.258 590.086C350.281 594.739 365.027 602.828 365.946 616.621C366.871 630.767 352.701 640.746 340.1 647.224C331.183 651.836 322.283 656.091 313.319 659.925Z" fill="url(#paint0_linear)"/>
<path d="M138.723 166.325C195.746 69.2262 323.773 23.3767 431.805 51.4321C483.899 64.9694 528.928 97.2993 570.724 131.184C607.566 161.048 643.536 193.505 669.96 233.264C688.002 260.402 701.804 293.444 712.052 324.464C727.378 370.91 720.234 432.512 658.87 432.038C644.472 431.929 631.739 427.585 618.043 423.952C606.964 421.005 596.484 423.89 585.113 422.84C556.49 420.203 528.518 411.555 501.914 401.023C447.694 379.536 397.428 348.817 341.915 330.511C296.423 315.532 248.485 309.395 200.686 312.429C180.521 313.713 159.413 316.508 140.789 308.669C94.8826 289.33 110.958 228.051 125.358 193.23C129.17 183.956 133.636 174.965 138.723 166.325Z" fill="url(#paint1_linear)"/>
<path d="M634.327 148.067C645.328 156.797 687.815 179.815 686.633 149.625C686.328 142.105 682.447 135.037 677.453 129.841C671.739 123.876 665.511 120.958 660.891 113.875C655.245 105.328 648.933 97.36 642.036 90.0753C627.921 74.8975 611.694 61.0816 592.749 55.6907C579.461 51.9151 557.55 54.513 552.468 71.5589C545.063 96.3735 583.779 98.3045 596.074 106.369C607.741 114 614.977 127.95 624.533 138.787C627.551 142.204 630.83 145.311 634.327 148.067Z" fill="url(#paint2_linear)"/>
<path d="M440.326 131.136C463.172 142.654 480.942 160.966 502.021 175.271C537.114 199.085 583.237 201.415 622.715 216.992C662.97 232.887 694.329 259.626 710.358 300.068C731.063 352.268 736.839 415.576 725.785 471.353C713.608 532.749 678.38 575.304 624.791 605.648C571.234 635.974 510.785 652.44 449.853 659.001C443.973 659.639 438.095 660.16 432.188 660.583C299.502 670.019 119.77 634.83 65.2711 495.187C64.7718 493.911 64.2898 492.634 63.8054 491.339C58.1117 475.757 54.3041 459.549 52.4638 443.061C45.7943 384.62 51.8311 319.24 68.7976 262.938C80.2068 225.035 107.933 191.806 137.847 167.466C179.875 133.272 233.128 121.769 286.404 114.518C325.855 109.15 370.363 105.224 408.831 117.937C419.644 121.544 430.172 125.956 440.326 131.136Z" fill="url(#paint3_linear)"/>
</g>
<defs>
<linearGradient id="paint0_linear" x1="60.0595" y1="557.687" x2="109.076" y2="693.827" gradientUnits="userSpaceOnUse">
<stop stop-color="#FFD8D8"/>
<stop offset="1" stop-color="#FFF8F8"/>
</linearGradient>
<linearGradient id="paint1_linear" x1="706.47" y1="212.694" x2="269.853" y2="-24.655" gradientUnits="userSpaceOnUse">
<stop stop-color="#FFF8F8"/>
<stop offset="1" stop-color="#FFCFCF"/>
</linearGradient>
<linearGradient id="paint2_linear" x1="687.658" y1="149.028" x2="529.938" y2="93.5056" gradientUnits="userSpaceOnUse">
<stop stop-color="#FFD7D7"/>
<stop offset="1" stop-color="#FFF9F9"/>
</linearGradient>
<linearGradient id="paint3_linear" x1="681.235" y1="583.48" x2="41.0668" y2="266.53" gradientUnits="userSpaceOnUse">
<stop stop-color="#FFCFCF"/>
<stop offset="1" stop-color="#FFF8F8"/>
</linearGradient>
</defs>
</svg>
