<svg width="198" height="197" viewBox="0 0 198 197" fill="none" xmlns="http://www.w3.org/2000/svg">
<g opacity="0.63">
<path d="M126.882 92.0245C128.098 93.7412 130.475 94.1474 132.192 92.9314L139.261 87.9246C142.86 85.3757 147 83.6825 151.361 83.028C152.661 82.833 153.933 82.296 155.041 81.3947C157.977 79.0063 158.7 74.7305 156.714 71.5089C154.382 67.7267 149.387 66.7502 145.818 69.2779C144.852 69.9626 144.093 70.8313 143.556 71.8029C141.402 75.7023 138.493 79.1338 134.857 81.7088L127.789 86.7148C126.072 87.9304 125.666 90.3079 126.882 92.0245Z" fill="#FFC700"/>
<path d="M93.1892 132.854C91.4749 132.561 89.8478 133.714 89.555 135.428L88.3492 142.488C87.7354 146.082 86.3052 149.492 84.1384 152.424C83.4922 153.298 83.0625 154.355 82.9418 155.53C82.6217 158.643 84.6984 161.565 87.743 162.287C91.3172 163.135 94.8082 160.786 95.4169 157.222C95.5818 156.257 95.5174 155.305 95.2635 154.424C94.2433 150.884 93.938 147.178 94.558 143.547L95.7636 136.489C96.0559 134.774 94.9035 133.147 93.1892 132.854Z" fill="#D09700"/>
<path d="M104.068 69.1791C105.862 69.4855 107.565 68.2796 107.871 66.4856L109.133 59.098C109.775 55.3371 111.272 51.7692 113.539 48.7008C114.215 47.7859 114.665 46.6795 114.791 45.4502C115.126 42.1931 112.953 39.135 109.767 38.3794C106.027 37.4922 102.374 39.9506 101.737 43.6798C101.564 44.6901 101.632 45.6856 101.897 46.6084C102.965 50.3119 103.284 54.1904 102.636 57.9896L101.374 65.376C101.068 67.1701 102.274 68.8726 104.068 69.1791Z" fill="#D09700"/>
<path d="M114.613 120.32C112.897 121.536 112.49 123.913 113.706 125.63L118.713 132.7C121.262 136.298 122.955 140.438 123.61 144.799C123.805 146.1 124.342 147.372 125.243 148.48C127.632 151.416 131.907 152.139 135.129 150.152C138.911 147.821 139.888 142.826 137.36 139.257C136.675 138.29 135.807 137.531 134.835 136.994C130.936 134.84 127.504 131.931 124.929 128.295L119.923 121.227C118.707 119.511 116.33 119.105 114.613 120.32Z" fill="#FFC700"/>
<path d="M134.835 136.993C130.935 134.838 127.504 131.929 124.929 128.294L119.923 121.225C118.707 119.509 116.329 119.103 114.613 120.318C112.896 121.534 112.49 123.912 113.706 125.628L118.712 132.697C121.287 136.332 124.718 139.241 128.618 141.396C129.589 141.932 130.458 142.691 131.143 143.658C132.771 145.957 132.943 148.848 131.85 151.237C132.986 151.135 134.11 150.779 135.129 150.151C138.911 147.819 139.887 142.824 137.36 139.255C136.675 138.288 135.806 137.529 134.835 136.993Z" fill="#D09700"/>
<path d="M66.7887 101.973C72.3966 98.0016 73.7229 90.2357 69.7511 84.6279C65.7794 79.02 58.0135 77.6937 52.4057 81.6654C46.7978 85.6372 45.4715 93.403 49.4432 99.0109C53.415 104.619 61.1808 105.945 66.7887 101.973Z" fill="#D09700"/>
<path d="M52.4063 81.6652C51.3218 82.4332 50.3995 83.3444 49.6425 84.3533C54.6595 82.7718 60.3313 84.5074 63.5349 89.0307C66.7385 93.554 66.4932 99.4803 63.3362 103.688C64.539 103.309 65.7047 102.741 66.7893 101.973C72.3972 98.0013 73.7235 90.2356 69.7517 84.6276C65.7799 79.0197 58.014 77.6935 52.4063 81.6652Z" fill="#FFC700"/>
<path d="M122.556 131.537C140.867 118.569 145.198 93.2107 132.229 74.8993C119.26 56.588 93.9024 52.2571 75.591 65.2261C57.2796 78.1951 52.9487 103.553 65.9177 121.864C78.8867 140.176 104.244 144.506 122.556 131.537Z" fill="#FFC700"/>
<path d="M75.5974 65.2255C74.549 65.968 73.5487 66.7529 72.5926 67.5732C90.5562 57.2042 113.793 62.0388 126.019 79.3017C138.245 96.5645 135.094 120.088 119.351 133.592C120.441 132.962 121.514 132.279 122.562 131.537C140.874 118.568 145.205 93.2101 132.236 74.8986C119.267 56.5871 93.9089 52.2564 75.5974 65.2255Z" fill="#D09700"/>
<path d="M103.679 87.7592C105.033 86.8001 105.353 84.9248 104.394 83.5706C103.435 82.2164 101.56 81.8961 100.206 82.8552C98.8515 83.8143 98.5312 85.6896 99.4903 87.0438C100.449 88.398 102.325 88.7183 103.679 87.7592Z" fill="white"/>
<path d="M99.6223 124.287C102.14 122.503 102.736 119.016 100.953 116.498C99.1691 113.98 95.6819 113.384 93.1638 115.168C90.6456 116.951 90.05 120.438 91.8335 122.957C93.617 125.475 97.1042 126.07 99.6223 124.287Z" fill="white"/>
<path d="M81.9866 100.846C85.8418 98.116 86.7536 92.7772 84.0232 88.922C81.2927 85.0668 75.9539 84.155 72.0987 86.8854C68.2435 89.6159 67.3316 94.9546 70.0621 98.8099C72.7926 102.665 78.1313 103.577 81.9866 100.846Z" fill="white"/>
<path d="M143.446 113.213C146.88 110.781 147.692 106.026 145.26 102.593C142.828 99.1593 138.073 98.3472 134.64 100.779C131.206 103.211 130.394 107.966 132.826 111.399C135.258 114.833 140.013 115.645 143.446 113.213Z" fill="#FFC700"/>
<path d="M134.641 100.779C133.509 101.582 132.663 102.638 132.123 103.815C134.742 103.574 137.415 104.696 139.045 106.996C140.674 109.297 140.845 112.19 139.749 114.581C141.038 114.463 142.315 114.016 143.448 113.214C146.882 110.782 147.693 106.027 145.262 102.593C142.83 99.16 138.075 98.3474 134.641 100.779Z" fill="#D09700"/>
<path d="M77.1373 113.919C78.3531 115.636 77.9472 118.013 76.2304 119.229L69.161 124.236C65.5622 126.785 62.591 130.128 60.5261 134.025C59.9106 135.187 58.982 136.208 57.7639 136.954C54.5365 138.931 50.263 138.194 47.8833 135.251C45.0895 131.796 45.8262 126.76 49.3951 124.233C50.3618 123.548 51.4331 123.121 52.5278 122.937C56.9212 122.199 61.1236 120.594 64.7593 118.019L71.8276 113.013C73.544 111.797 75.9215 112.203 77.1373 113.919Z" fill="#D09700"/>
<path d="M83.5389 76.4432C85.2555 75.2274 85.6617 72.8501 84.4457 71.1333L79.4389 64.0639C76.89 60.4651 75.1969 56.3254 74.5423 51.9642C74.3473 50.664 73.8104 49.392 72.909 48.2839C70.5206 45.348 66.2448 44.6248 63.0232 46.6111C59.2411 48.943 58.2646 53.938 60.7922 57.5069C61.4769 58.4736 62.3457 59.2324 63.3172 59.7691C67.2167 61.9236 70.6481 64.8324 73.2231 68.468L78.2292 75.5364C79.4447 77.253 81.8222 77.659 83.5389 76.4432Z" fill="#FFC700"/>
<path d="M72.9068 48.2843C70.5184 45.3484 66.2426 44.6252 63.021 46.6115C61.6753 47.441 60.6871 48.6085 60.0832 49.9282C62.541 49.7077 65.0566 50.6798 66.6899 52.6874C67.5913 53.7955 68.1282 55.0674 68.3233 56.3677C68.9778 60.7289 70.6709 64.8685 73.2198 68.4673L78.2267 75.5367C79.4425 77.2533 81.8198 77.6595 83.5366 76.4436C85.2535 75.2276 85.6595 72.8505 84.4435 71.1336L79.4367 64.0643C76.8878 60.4654 75.1947 56.3258 74.5401 51.9646C74.3451 50.6644 73.8084 49.3922 72.9068 48.2843Z" fill="#D09700"/>
</g>
</svg>
